<svg width="441" height="182" viewBox="0 0 441 182" fill="none" xmlns="http://www.w3.org/2000/svg">
<path d="M4.64894 91V45.1327H22.4791C26.0968 45.1327 29.3915 45.6925 32.3631 46.8123C35.3348 47.889 37.8974 49.4394 40.0508 51.4636C42.2042 53.4878 43.8623 55.8996 45.0251 58.6991C46.188 61.4985 46.7694 64.5994 46.7694 68.0017C46.7694 71.4041 46.1664 74.5265 44.9605 77.369C43.7977 80.1684 42.1396 82.6018 39.9862 84.669C37.8328 86.6932 35.2487 88.2652 32.2339 89.385C29.2623 90.4617 25.9676 91 22.3499 91H4.64894ZM14.2746 82.4726H21.8976C24.9555 82.4726 27.6041 81.8911 29.8437 80.7283C32.0832 79.5655 33.8059 77.9073 35.0118 75.754C36.2177 73.6006 36.8207 71.038 36.8207 68.0663C36.8207 65.0946 36.2177 62.5321 35.0118 60.3787C33.8059 58.2253 32.0832 56.5672 29.8437 55.4044C27.6041 54.2415 24.9555 53.6601 21.8976 53.6601H14.2746V82.4726ZM69.4956 91.969C66.9546 91.969 64.6074 91.5168 62.454 90.6124C60.3006 89.708 58.4272 88.459 56.8336 86.8655C55.2401 85.2289 53.9912 83.3124 53.0867 81.1159C52.2254 78.9194 51.7947 76.5292 51.7947 73.9451C51.7947 71.361 52.2469 68.9923 53.1513 66.8389C54.0558 64.6424 55.3047 62.7259 56.8982 61.0893C58.5348 59.4527 60.4298 58.1822 62.5832 57.2778C64.7797 56.3734 67.1699 55.9212 69.754 55.9212C72.295 55.9212 74.6422 56.3734 76.7956 57.2778C78.949 58.1822 80.8225 59.4527 82.416 61.0893C84.0095 62.6828 85.2369 64.5778 86.0983 66.7743C87.0027 68.9277 87.4549 71.2964 87.4549 73.8805C87.4549 76.4646 87.0027 78.8548 86.0983 81.0513C85.1939 83.2478 83.9234 85.1643 82.2868 86.8009C80.6933 88.4375 78.7983 89.708 76.6018 90.6124C74.4484 91.5168 72.0797 91.969 69.4956 91.969ZM69.6248 83.8292C71.2614 83.8292 72.7257 83.3985 74.0177 82.5372C75.3098 81.6758 76.3219 80.513 77.054 79.0487C77.8293 77.5413 78.2169 75.8401 78.2169 73.9451C78.2169 72.0501 77.8293 70.3705 77.054 68.9062C76.3219 67.3988 75.3098 66.2144 74.0177 65.353C72.7257 64.4917 71.2614 64.061 69.6248 64.061C67.9882 64.061 66.5239 64.4917 65.2319 65.353C63.9398 66.2144 62.9062 67.3988 62.131 68.9062C61.3988 70.3705 61.0328 72.0501 61.0328 73.9451C61.0328 75.8401 61.3988 77.5413 62.131 79.0487C62.9062 80.513 63.9398 81.6758 65.2319 82.5372C66.5239 83.3985 67.9882 83.8292 69.6248 83.8292ZM121.63 91.969C118.873 91.969 116.332 91.4953 114.007 90.5478C111.724 89.5572 109.765 88.1791 108.128 86.4133C106.535 84.6044 105.436 82.451 104.833 79.9531L113.813 78.015C114.373 79.7808 115.342 81.159 116.72 82.1495C118.141 83.1401 119.821 83.6354 121.759 83.6354C123.137 83.6354 124.343 83.3985 125.377 82.9248C126.453 82.4079 127.272 81.7189 127.832 80.8575C128.435 79.9961 128.736 79.0056 128.736 77.8858C128.736 76.4646 128.198 75.3233 127.121 74.4619C126.044 73.5575 124.3 72.8253 121.888 72.2655L119.821 71.8132C115.084 70.7796 111.595 69.1215 109.355 66.8389C107.116 64.5132 105.996 61.6923 105.996 58.376C105.996 56.3088 106.405 54.4138 107.224 52.6911C108.042 50.9684 109.162 49.4825 110.583 48.2335C112.047 46.9415 113.748 45.9509 115.686 45.2619C117.625 44.5297 119.713 44.1636 121.953 44.1636C124.494 44.1636 126.863 44.6374 129.059 45.5849C131.256 46.5324 133.107 47.889 134.615 49.6548C136.122 51.4206 137.134 53.5094 137.651 55.9212L128.801 57.8592C128.284 56.1365 127.379 54.8229 126.087 53.9185C124.838 52.971 123.374 52.4973 121.694 52.4973C120.532 52.4973 119.476 52.7341 118.529 53.2079C117.625 53.6386 116.892 54.2631 116.332 55.0813C115.816 55.8566 115.557 56.7395 115.557 57.73C115.557 59.2374 116.139 60.4002 117.302 61.2185C118.464 61.9937 120.187 62.6398 122.47 63.1566L124.537 63.6088C129.231 64.6424 132.698 66.279 134.938 68.5185C137.22 70.7581 138.362 73.6221 138.362 77.1106C138.362 79.3071 137.931 81.3097 137.07 83.1186C136.251 84.9274 135.089 86.4994 133.581 87.8345C132.074 89.1696 130.308 90.2032 128.284 90.9354C126.26 91.6245 124.042 91.969 121.63 91.969ZM161.288 91.969C158.747 91.969 156.4 91.5168 154.247 90.6124C152.093 89.708 150.22 88.459 148.626 86.8655C147.033 85.2289 145.784 83.3124 144.879 81.1159C144.018 78.9194 143.587 76.5292 143.587 73.9451C143.587 71.361 144.04 68.9923 144.944 66.8389C145.848 64.6424 147.097 62.7259 148.691 61.0893C150.328 59.4527 152.223 58.1822 154.376 57.2778C156.572 56.3734 158.963 55.9212 161.547 55.9212C164.088 55.9212 166.435 56.3734 168.588 57.2778C170.742 58.1822 172.615 59.4527 174.209 61.0893C175.802 62.6828 177.03 64.5778 177.891 66.7743C178.795 68.9277 179.248 71.2964 179.248 73.8805C179.248 76.4646 178.795 78.8548 177.891 81.0513C176.987 83.2478 175.716 85.1643 174.08 86.8009C172.486 88.4375 170.591 89.708 168.395 90.6124C166.241 91.5168 163.872 91.969 161.288 91.969ZM161.418 83.8292C163.054 83.8292 164.518 83.3985 165.81 82.5372C167.103 81.6758 168.115 80.513 168.847 79.0487C169.622 77.5413 170.01 75.8401 170.01 73.9451C170.01 72.0501 169.622 70.3705 168.847 68.9062C168.115 67.3988 167.103 66.2144 165.81 65.353C164.518 64.4917 163.054 64.061 161.418 64.061C159.781 64.061 158.317 64.4917 157.025 65.353C155.733 66.2144 154.699 67.3988 153.924 68.9062C153.192 70.3705 152.825 72.0501 152.825 73.9451C152.825 75.8401 153.192 77.5413 153.924 79.0487C154.699 80.513 155.733 81.6758 157.025 82.5372C158.317 83.3985 159.781 83.8292 161.418 83.8292ZM185.193 91V56.8902H193.526L193.785 61.2185C194.775 59.5819 196.11 58.2899 197.79 57.3424C199.47 56.3949 201.365 55.9212 203.475 55.9212C205.757 55.9212 207.782 56.4811 209.547 57.6008C211.356 58.7206 212.756 60.271 213.747 62.2522C214.78 60.3572 216.266 58.8283 218.204 57.6654C220.185 56.5026 222.446 55.9212 224.987 55.9212C227.528 55.9212 229.725 56.5241 231.577 57.73C233.429 58.8929 234.85 60.5725 235.84 62.769C236.874 64.9654 237.391 67.5495 237.391 70.5212V91H228.347V71.684C228.347 69.3153 227.83 67.4634 226.796 66.1283C225.763 64.7501 224.32 64.061 222.468 64.061C221.176 64.061 220.013 64.384 218.979 65.03C217.989 65.633 217.214 66.4943 216.654 67.6141C216.094 68.7339 215.814 70.0044 215.814 71.4256V91H206.77V71.684C206.77 69.3153 206.253 67.4634 205.219 66.1283C204.186 64.7501 202.743 64.061 200.891 64.061C199.599 64.061 198.436 64.384 197.402 65.03C196.412 65.633 195.637 66.4943 195.077 67.6141C194.517 68.7339 194.237 70.0044 194.237 71.4256V91H185.193ZM260.772 91.969C258.231 91.969 255.884 91.5383 253.73 90.677C251.62 89.7726 249.789 88.5236 248.239 86.9301C246.689 85.2935 245.483 83.377 244.621 81.1805C243.76 78.941 243.329 76.5076 243.329 73.8805C243.329 71.3395 243.76 68.9708 244.621 66.7743C245.483 64.5778 246.667 62.6828 248.174 61.0893C249.725 59.4527 251.534 58.1822 253.601 57.2778C255.668 56.3734 257.908 55.9212 260.32 55.9212C262.817 55.9212 265.079 56.3519 267.103 57.2132C269.17 58.0746 270.936 59.302 272.4 60.8955C273.864 62.489 274.984 64.384 275.759 66.5805C276.578 68.7769 276.987 71.2318 276.987 73.9451V76.2062H252.503C252.89 78.7472 253.816 80.7498 255.281 82.2141C256.745 83.6354 258.597 84.346 260.836 84.346C262.387 84.346 263.786 83.9799 265.035 83.2478C266.327 82.5156 267.383 81.4605 268.201 80.0823L276.276 82.6664C275.501 84.6044 274.338 86.2625 272.788 87.6407C271.237 89.0189 269.428 90.0956 267.361 90.8708C265.294 91.603 263.097 91.969 260.772 91.969ZM260.32 62.8982C258.338 62.8982 256.659 63.5442 255.281 64.8362C253.945 66.1283 253.063 67.8941 252.632 70.1336H267.684C267.34 67.8941 266.5 66.1283 265.165 64.8362C263.873 63.5442 262.258 62.8982 260.32 62.8982ZM297.015 91.969C294.647 91.969 292.601 91.5168 290.878 90.6124C289.199 89.6649 287.885 88.3083 286.938 86.5425C286.033 84.7767 285.581 82.6233 285.581 80.0823V64.1902H279.767V56.8902H285.581V45.2619H294.625V56.8902H303.928V64.1902H294.625V78.984C294.625 80.6206 294.97 81.8911 295.659 82.7956C296.348 83.6569 297.403 84.0876 298.824 84.0876C299.556 84.0876 300.332 83.9799 301.15 83.7646C302.011 83.5492 302.83 83.2693 303.605 82.9248L305.22 89.708C304.1 90.397 302.851 90.9354 301.473 91.323C300.095 91.7537 298.609 91.969 297.015 91.969ZM310.548 91V42.807H319.592V60.6371C320.626 59.1728 321.961 58.0315 323.598 57.2132C325.234 56.3519 327.108 55.9212 329.218 55.9212C331.716 55.9212 333.891 56.5241 335.743 57.73C337.638 58.8929 339.102 60.5725 340.136 62.769C341.169 64.9654 341.686 67.5495 341.686 70.5212V91H332.642V71.684C332.642 69.3153 332.104 67.4634 331.027 66.1283C329.95 64.7501 328.464 64.061 326.569 64.061C325.191 64.061 323.985 64.384 322.952 65.03C321.918 65.633 321.1 66.4943 320.497 67.6141C319.894 68.7339 319.592 70.0044 319.592 71.4256V91H310.548ZM358.596 47.6521C358.596 48.6427 358.359 49.5256 357.885 50.3008C357.454 51.076 356.83 51.7005 356.012 52.1743C355.236 52.6049 354.375 52.8203 353.427 52.8203C352.48 52.8203 351.597 52.6049 350.779 52.1743C350.004 51.7005 349.379 51.076 348.905 50.3008C348.475 49.5256 348.259 48.6427 348.259 47.6521C348.259 46.6616 348.475 45.7787 348.905 45.0035C349.379 44.2282 350.004 43.6253 350.779 43.1946C351.597 42.7209 352.48 42.484 353.427 42.484C354.375 42.484 355.236 42.7209 356.012 43.1946C356.83 43.6253 357.454 44.2282 357.885 45.0035C358.359 45.7787 358.596 46.6616 358.596 47.6521ZM348.905 91V56.8902H357.95V91H348.905ZM365.182 91V56.8902H373.516L373.774 61.2831C374.765 59.6465 376.121 58.3545 377.844 57.407C379.61 56.4165 381.612 55.9212 383.852 55.9212C386.35 55.9212 388.525 56.5241 390.377 57.73C392.272 58.8929 393.736 60.5725 394.77 62.769C395.803 64.9654 396.32 67.5495 396.32 70.5212V91H387.276V71.684C387.276 69.3153 386.737 67.4634 385.661 66.1283C384.584 64.7501 383.098 64.061 381.203 64.061C379.825 64.061 378.619 64.384 377.586 65.03C376.552 65.633 375.734 66.4943 375.131 67.6141C374.528 68.7339 374.226 70.0044 374.226 71.4256V91H365.182ZM417.558 90.031C415.405 90.031 413.38 89.6003 411.485 88.7389C409.634 87.8776 408.018 86.6932 406.64 85.1858C405.262 83.6354 404.185 81.8481 403.41 79.8239C402.635 77.7566 402.247 75.5386 402.247 73.1699C402.247 70.715 402.635 68.4539 403.41 66.3867C404.228 64.2764 405.348 62.446 406.769 60.8955C408.234 59.3451 409.913 58.1392 411.808 57.2778C413.746 56.3734 415.835 55.9212 418.075 55.9212C420.271 55.9212 422.252 56.3734 424.018 57.2778C425.784 58.1392 427.248 59.4097 428.411 61.0893L428.605 56.8902H436.939V86.9301C436.939 89.5572 436.508 91.9475 435.647 94.1009C434.828 96.2543 433.644 98.1062 432.093 99.6567C430.543 101.207 428.691 102.391 426.538 103.21C424.427 104.071 422.08 104.502 419.496 104.502C416.955 104.502 414.672 104.093 412.648 103.274C410.624 102.499 408.858 101.401 407.351 99.9797C405.844 98.5584 404.659 96.9003 403.798 95.0053L412.454 92.8735C413.23 94.1224 414.22 95.0915 415.426 95.7805C416.675 96.5127 418.075 96.8788 419.625 96.8788C421.305 96.8788 422.748 96.4912 423.954 95.7159C425.203 94.9838 426.172 93.9286 426.861 92.5504C427.55 91.2153 427.894 89.6434 427.894 87.8345V85.0566C426.731 86.6071 425.246 87.8345 423.437 88.7389C421.671 89.6003 419.711 90.031 417.558 90.031ZM419.754 82.0203C421.348 82.0203 422.748 81.6327 423.954 80.8575C425.203 80.0392 426.193 78.9625 426.925 77.6274C427.657 76.2492 428.024 74.6988 428.024 72.9761C428.024 71.2534 427.657 69.7244 426.925 68.3893C426.193 67.0112 425.203 65.9345 423.954 65.1592C422.748 64.341 421.348 63.9318 419.754 63.9318C418.161 63.9318 416.74 64.341 415.491 65.1592C414.285 65.9345 413.316 67.0112 412.584 68.3893C411.852 69.7244 411.485 71.2534 411.485 72.9761C411.485 74.6988 411.852 76.2492 412.584 77.6274C413.316 78.9625 414.285 80.0392 415.491 80.8575C416.74 81.6327 418.161 82.0203 419.754 82.0203Z" fill="black"/>
<g filter="url(#filter0_d_1_47)">
<path d="M129.456 51.5376C129.877 51.5376 130.245 51.6848 130.56 51.9792C130.897 52.2526 131.086 52.568 131.128 52.9255C131.17 53.6195 131.149 54.2924 131.065 54.9443C131.023 55.6383 130.928 56.2902 130.781 56.9001C130.739 57.1734 130.718 57.4258 130.718 57.6571C129.057 65.2066 126.975 72.5879 124.472 79.8009C124.241 80.6211 124.125 81.4517 124.125 82.2929C124.209 83.3023 124.02 84.2486 123.557 85.1319C122.506 86.709 121.654 88.3493 121.002 90.0527C116.733 102.229 112.149 114.257 107.249 126.139C103.127 136.317 98.459 146.264 93.2437 155.979C91.8137 158.524 90.2891 161.047 88.6698 163.55C87.8707 164.622 86.9875 165.621 86.0202 166.547C85.1369 167.283 84.117 167.493 82.9604 167.178C81.7617 166.883 81.1834 166.116 81.2255 164.875C81.3727 163.403 81.6986 161.973 82.2033 160.585C85.2105 152.257 88.5437 144.066 92.2028 136.012C98.9111 120.745 106.702 106.077 115.577 92.0084C117.196 89.3167 118.447 86.5198 119.331 83.6177C120.908 78.8862 122.39 74.1441 123.778 69.3914C125.166 64.6178 126.365 59.8021 127.374 54.9443C127.521 54.1663 127.711 53.3777 127.942 52.5786C128.215 51.8846 128.72 51.5376 129.456 51.5376ZM87.8182 158.345C92.1292 150.48 96.0511 142.468 99.584 134.309C103.117 126.149 106.366 117.832 109.331 109.358C109.289 109.4 109.247 109.473 109.205 109.578C109.058 109.662 108.921 109.778 108.795 109.925C108.458 110.514 108.132 111.092 107.817 111.66C103.927 118.873 100.331 126.223 97.029 133.709C93.7064 141.217 90.5414 148.756 87.5343 156.326C87.4922 156.432 87.4712 156.505 87.4712 156.547C87.345 156.779 87.2819 157.041 87.2819 157.336C87.2819 157.651 87.4607 157.988 87.8182 158.345ZM267.902 49.8027C267.902 49.992 267.808 50.1812 267.618 50.3705C267.45 50.5597 267.25 50.707 267.019 50.8121C266.788 50.8962 266.577 50.8857 266.388 50.7806C265.189 50.0445 263.917 49.5503 262.571 49.298C261.225 49.0456 259.88 48.8459 258.534 48.6987C257.524 48.6566 256.536 48.5409 255.569 48.3517C251.952 47.8049 248.335 47.3423 244.717 46.9637C232.836 45.9964 220.923 45.4707 208.978 45.3865C197.475 45.2393 185.962 45.4917 174.438 46.1436C161.442 46.7955 148.467 47.7629 135.513 49.0456C123.61 50.1181 111.739 51.4114 99.8995 52.9255C99.1634 53.0307 98.3959 53.1253 97.5968 53.2094C93.0755 53.8193 88.5647 54.4712 84.0644 55.1652C79.5431 55.8591 75.0324 56.7108 70.5321 57.7202C70.1746 57.8254 69.8066 57.92 69.4281 58.0041C67.6826 58.4247 65.9267 58.8873 64.1602 59.392C62.3938 59.8967 60.7009 60.5697 59.0817 61.4108C58.8504 61.537 58.598 61.6317 58.3246 61.6947C57.9671 61.7368 57.6307 61.7263 57.3152 61.6632C56.9787 61.5791 56.7159 61.3793 56.5266 61.0639C56.3374 60.7274 56.3163 60.412 56.4635 60.1175C56.5897 59.8231 56.821 59.5813 57.1575 59.392C58.209 58.8453 59.313 58.3616 60.4696 57.941C63.3506 56.9737 66.2632 56.1535 69.2073 55.4806C72.1303 54.8077 75.0744 54.2188 78.0396 53.7141C86.5985 52.2631 95.1574 51.0014 103.716 49.9289C112.275 48.8353 120.876 47.868 129.519 47.0268C141.653 45.7861 153.797 44.7977 165.952 44.0617C176.551 43.3677 187.15 42.9682 197.749 42.863C205.529 42.7789 213.3 42.8525 221.06 43.0838C228.84 43.3152 236.611 43.7778 244.37 44.4718C251.457 45.2078 258.492 46.2908 265.473 47.7208C266.125 47.868 266.725 48.0993 267.271 48.4148C267.734 48.7512 267.944 49.2139 267.902 49.8027ZM149.203 113.301C148.824 113.637 148.424 113.942 148.004 114.215C146.658 115.056 145.438 115.719 144.345 116.203C143.272 116.686 142 117.18 140.528 117.685C138.341 118.337 136.932 118.19 136.301 117.244C135.691 116.297 135.597 114.983 136.017 113.301C136.606 110.903 136.943 109.147 137.027 108.033C137.132 106.918 136.764 106.54 135.923 106.897C135.102 107.234 133.599 108.38 131.412 110.335C128.363 112.964 125.755 115.971 123.589 119.357C123.316 119.82 122.979 120.198 122.58 120.493C122.18 120.787 121.686 120.934 121.097 120.934C120.529 120.934 120.119 120.787 119.867 120.493C119.614 120.198 119.604 119.799 119.835 119.294C121.076 116.56 122.348 113.847 123.652 111.156C125.881 106.487 128.079 101.84 130.245 97.2132C131.864 93.7433 133.462 90.2735 135.039 86.8037C136.007 84.7638 136.953 82.724 137.878 80.6842C137.962 80.5159 138.057 80.3372 138.162 80.1479C138.246 79.9166 138.341 79.6853 138.446 79.454C138.572 79.2226 138.709 78.9703 138.856 78.6969C138.982 78.4656 139.214 78.2763 139.55 78.1291C139.908 77.9819 140.255 77.8873 140.591 77.8452C140.949 77.8032 141.222 77.8242 141.411 77.9083C141.685 78.0976 141.832 78.2973 141.853 78.5076C141.895 78.7179 141.863 78.9387 141.758 79.1701C141.716 79.2121 141.695 79.2857 141.695 79.3909C141.275 80.6316 140.833 81.8303 140.37 82.9869C137.7 89.4218 134.787 95.7621 131.633 102.008C131.401 102.428 131.128 102.933 130.812 103.522C130.35 104.363 129.919 105.194 129.519 106.014C129.12 106.813 128.983 107.349 129.109 107.623C129.256 107.896 129.887 107.686 131.002 106.992C131.338 106.76 131.643 106.529 131.917 106.298C132.8 105.709 133.672 105.152 134.535 104.626C135.292 104.121 136.133 103.848 137.058 103.806C139.266 103.659 140.507 104.658 140.78 106.803C140.885 107.665 140.854 108.516 140.686 109.358C140.517 110.199 140.318 111.029 140.086 111.85C140.044 112.081 140.002 112.312 139.96 112.543C139.582 113.973 139.676 114.794 140.244 115.004C140.833 115.214 141.643 115.099 142.673 114.657C143.724 114.215 144.786 113.679 145.859 113.048C146.595 112.67 147.236 112.344 147.783 112.07C148.351 111.797 148.771 111.681 149.045 111.723C149.55 111.807 149.781 112.018 149.739 112.354C149.697 112.67 149.518 112.985 149.203 113.301ZM170.558 111.944C171.062 112.218 171.105 112.901 170.684 113.995C170.074 114.794 169.422 115.54 168.728 116.234C168.034 116.928 167.277 117.548 166.457 118.095C166.394 118.095 166.362 118.116 166.362 118.158C165.816 118.537 165.237 118.863 164.628 119.136C159.602 120.945 157.036 119.883 156.931 115.95C154.891 117.717 153.524 118.8 152.83 119.199C151.169 120.188 149.371 120.629 147.436 120.524C146.006 120.44 145.039 120.009 144.534 119.231C144.008 118.432 144.05 117.359 144.66 116.013C145.586 113.889 146.9 111.997 148.603 110.335C150.601 108.485 152.82 107.002 155.259 105.888C156.563 105.236 157.93 104.983 159.36 105.131C160.79 105.215 161.652 106.024 161.946 107.56C162.072 108.022 161.957 108.432 161.599 108.79C161.137 109.21 160.6 109.305 159.991 109.074C159.949 109.074 159.885 109.063 159.801 109.042C159.738 109.021 159.686 108.99 159.644 108.947C159.034 108.106 158.413 107.759 157.783 107.907C157.173 108.033 156.521 108.306 155.827 108.727C152.588 110.619 150.18 113.258 148.603 116.644C148.519 116.791 148.467 116.96 148.446 117.149C148.424 117.317 148.477 117.454 148.603 117.559C148.982 117.685 149.402 117.664 149.865 117.496C150.328 117.307 150.79 117.044 151.253 116.707C151.716 116.35 152.105 116.055 152.42 115.824C152.462 115.761 152.483 115.729 152.483 115.729C154.018 114.447 155.522 113.132 156.994 111.786C157.646 111.092 158.455 110.703 159.423 110.619C160.811 110.619 161.389 111.24 161.158 112.48C161.032 112.943 160.895 113.406 160.748 113.868C160.201 115.866 160.18 117.044 160.685 117.401C161.189 117.738 161.957 117.738 162.987 117.401C164.039 117.044 165.08 116.381 166.11 115.414C167.162 114.426 168.045 113.532 168.76 112.733C169.475 111.913 170.074 111.65 170.558 111.944ZM193.616 112.26C193.953 112.68 193.532 113.448 192.355 114.562C191.177 115.677 189.926 116.613 188.601 117.37C187.276 118.127 185.741 118.884 183.995 119.641C182.839 120.146 181.609 120.314 180.305 120.146C179.001 119.977 178.349 119.189 178.349 117.78C178.349 116.371 178.675 114.972 179.327 113.584C179.979 112.154 180.116 111.418 179.737 111.376C179.38 111.334 178.623 111.681 177.466 112.417C174.459 114.394 171.662 116.655 169.075 119.199C168.381 120.04 167.498 120.503 166.426 120.587C165.879 120.587 165.458 120.419 165.164 120.082C164.848 119.725 164.806 119.346 165.038 118.947C166.888 115.519 168.76 112.133 170.652 108.79C171.073 108.096 171.704 107.665 172.545 107.496C172.903 107.433 173.228 107.549 173.523 107.843C173.838 108.117 173.996 108.432 173.996 108.79C173.954 109.126 173.817 109.526 173.586 109.988C173.481 110.262 173.376 110.525 173.271 110.777C173.186 111.029 173.155 111.24 173.176 111.408C173.218 111.576 173.355 111.629 173.586 111.566C173.901 111.397 174.217 111.219 174.532 111.029C175.331 110.567 176.099 110.125 176.835 109.705C177.487 109.326 178.17 108.99 178.885 108.695C179.6 108.401 180.347 108.201 181.125 108.096C182.387 108.012 183.28 108.296 183.806 108.947C184.332 109.599 184.395 110.504 183.995 111.66C183.575 112.712 183.133 113.753 182.671 114.783C182.103 115.75 182.008 116.486 182.387 116.991C182.765 117.496 184.521 116.918 187.655 115.256L190.02 113.868C192.249 112.438 193.448 111.902 193.616 112.26ZM391.712 45.4496C391.165 45.5758 390.671 45.5653 390.229 45.4181C389.788 45.2499 389.378 45.0501 388.999 44.8188C388.81 44.7346 388.652 44.64 388.526 44.5349C383.164 41.6328 377.475 39.4563 371.461 38.0053C355.815 34.2621 339.875 35.8182 323.64 42.6738C317.71 45.1763 312.022 48.1834 306.575 51.6953C301.15 55.2072 295.85 59.0451 290.677 63.2088C282.349 69.9592 274.674 77.351 267.65 85.3842C260.647 93.4174 254.191 101.987 248.282 111.092C246.137 114.331 244.076 117.612 242.099 120.934C242.057 121.039 242.005 121.134 241.942 121.218C240.428 123.573 239.187 126.076 238.219 128.726C237.757 129.966 237.178 131.144 236.485 132.258C235.643 133.73 234.487 134.288 233.015 133.93C232.174 133.741 231.827 133.205 231.974 132.322C232.058 131.67 232.258 131.049 232.573 130.46C234.15 127.348 235.538 124.204 236.737 121.029C237.957 117.832 239.092 114.615 240.144 111.376C240.417 110.535 240.701 109.726 240.995 108.947C247.325 90.3997 253.192 71.7257 258.597 52.9255C258.702 52.526 258.776 52.1159 258.818 51.6953C258.818 51.5061 258.839 51.2958 258.881 51.0644C258.376 51.1065 257.987 51.2747 257.714 51.5691C257.44 51.8425 257.209 52.158 257.02 52.5155C256.978 52.6627 256.904 52.7994 256.799 52.9255C256.483 53.3882 256.189 53.8824 255.916 54.4081C252.845 59.2028 249.786 64.029 246.736 68.8867C241.984 76.6676 237.221 84.4484 232.447 92.2292C225.549 103.459 218.61 114.72 211.628 126.013C210.093 128.515 208.474 130.944 206.77 133.299C206.35 133.909 205.961 134.488 205.603 135.034C204.951 136.107 204.047 136.759 202.89 136.99C202.554 137.032 202.249 137.011 201.976 136.927C201.702 136.864 201.523 136.696 201.439 136.422C201.334 136.233 201.334 136.012 201.439 135.76C201.523 135.507 201.639 135.287 201.786 135.097C218.441 107.843 235.139 80.6211 251.878 53.4302C253.413 51.0119 255.032 48.6461 256.736 46.3329C257.114 45.8282 257.461 45.3235 257.777 44.8188C258.744 43.3888 260.016 42.4635 261.593 42.0429C262.561 41.8536 263.318 41.9903 263.865 42.453C264.432 42.9156 264.695 43.6621 264.653 44.6926C264.38 47.6998 263.781 50.6754 262.855 53.6195C258.271 69.4545 253.361 85.1844 248.124 100.809C248.082 100.998 248.019 101.167 247.935 101.314C247.746 101.777 247.609 102.239 247.525 102.702C247.462 103.164 247.567 103.669 247.84 104.216C248.219 103.711 248.597 103.228 248.976 102.765C249.754 101.798 250.49 100.83 251.184 99.8628C259.427 88.1916 268.817 77.6139 279.353 68.1297C285.409 62.6831 291.686 57.6571 298.184 53.0517C304.703 48.4463 311.548 44.5033 318.719 41.2228C333.524 34.5985 348.392 32.1381 363.323 33.8415C372.765 34.9981 381.555 37.7319 389.693 42.0429C389.882 42.127 390.093 42.2216 390.324 42.3268C390.745 42.5161 391.134 42.7263 391.491 42.9577C391.87 43.189 392.175 43.536 392.406 43.9986C392.448 44.0827 392.469 44.2089 392.469 44.3771C392.469 44.5243 392.448 44.6716 392.406 44.8188C392.322 44.966 392.217 45.1027 392.091 45.2288C391.985 45.334 391.859 45.4076 391.712 45.4496ZM266.388 120.524H266.293C263.244 120.482 261.236 119.809 260.269 118.505C259.301 117.18 259.343 115.425 260.395 113.237C261.278 111.576 262.393 110.125 263.738 108.884C264.201 108.464 264.674 108.127 265.158 107.875C265.642 107.623 266.188 107.496 266.798 107.496C267.156 107.433 267.566 107.496 268.028 107.686C268.176 107.728 268.323 107.78 268.47 107.843C268.828 107.78 269.175 107.665 269.511 107.496C269.595 107.433 269.711 107.381 269.858 107.339C270.552 107.065 271.288 106.95 272.066 106.992C272.381 106.992 272.707 106.992 273.044 106.992C274.285 107.181 275.22 107.707 275.851 108.569C276.482 109.41 276.703 110.441 276.514 111.66C276.409 112.396 276.177 113.09 275.82 113.742C273.401 118.074 270.321 120.335 266.577 120.524H266.388ZM271.372 109.231C269.711 109.168 268.228 109.652 266.924 110.682C265.642 111.692 264.685 112.859 264.054 114.184C263.423 115.509 263.244 116.602 263.518 117.464C263.812 118.306 264.695 118.537 266.167 118.158C267.829 117.654 269.29 116.707 270.552 115.319C271.835 113.931 272.613 112.617 272.886 111.376C273.181 110.115 272.676 109.4 271.372 109.231ZM297.869 112.764C295.051 116.087 292.286 118.537 289.573 120.114C286.881 121.691 283.99 122.217 280.898 121.691C277.828 121.144 276.566 119.073 277.113 115.477C277.492 113.669 278.007 111.902 278.659 110.178C280.278 106.161 281.918 102.166 283.58 98.191C284.126 96.761 284.705 95.3205 285.314 93.8695C285.462 93.5541 285.598 93.2386 285.725 92.9232C285.956 92.3975 286.187 91.8612 286.419 91.3145C286.755 90.3892 286.387 89.9055 285.314 89.8634C284.705 89.8634 284.105 89.8634 283.516 89.8634C283.243 89.8634 282.938 89.8634 282.602 89.8634C282.286 89.9055 281.96 89.9476 281.624 89.9896C281.077 90.0317 280.53 90.0527 279.984 90.0527C279.458 90.0527 278.964 89.916 278.501 89.6426C278.375 89.6006 278.27 89.527 278.186 89.4218C278.122 89.2956 278.091 89.159 278.091 89.0117C278.133 88.9276 278.196 88.833 278.28 88.7279C278.385 88.6017 278.512 88.5176 278.659 88.4755C279.121 88.2862 279.605 88.1495 280.11 88.0654C281.414 88.0023 282.707 87.9498 283.99 87.9077C284.494 87.9077 284.936 87.9077 285.314 87.9077C286.156 87.9077 286.776 87.8762 287.176 87.8131C287.596 87.75 287.933 87.5292 288.185 87.1507C288.437 86.7721 288.732 86.1938 289.068 85.4157C289.257 84.9952 289.489 84.5325 289.762 84.0278C290.456 82.5558 291.15 81.0522 291.844 79.517C292.159 78.8231 292.485 78.1501 292.822 77.4982C293.095 76.8463 293.526 76.3416 294.115 75.9841C294.683 75.7107 295.177 75.7318 295.598 76.0472C295.724 76.1313 295.819 76.268 295.882 76.4573C295.966 76.6465 296.008 76.8148 296.008 76.962C296.008 77.7821 295.798 78.5918 295.377 79.3909C295.293 79.5591 295.198 79.7589 295.093 79.9902C294.82 80.7472 294.525 81.5148 294.21 82.2929C293.6 83.7229 293.022 85.1844 292.475 86.6775C292.328 86.9509 292.317 87.1927 292.443 87.403C292.591 87.6133 292.801 87.7185 293.074 87.7185C294.567 87.7605 296.029 87.7815 297.459 87.7815C298.195 87.7815 298.931 87.7815 299.667 87.7815C301.98 87.8236 302.905 88.1495 302.443 88.7594C302.127 89.1169 301.78 89.3272 301.402 89.3903C301.044 89.4323 300.676 89.4218 300.298 89.3587C300.066 89.3587 299.835 89.3587 299.604 89.3587C297.249 89.5059 294.914 89.6006 292.601 89.6426C291.529 89.6426 290.814 90.1263 290.456 91.0936C290.078 92.0189 289.71 92.9442 289.352 93.8695C288.826 95.0892 288.332 96.2774 287.87 97.434C287.407 98.5275 286.944 99.6315 286.482 100.746C285.283 103.564 284.126 106.392 283.012 109.231C282.318 111.082 281.771 112.975 281.371 114.909C280.488 118.421 281.845 119.767 285.441 118.947C288.974 118.106 292.675 115.561 296.544 111.313C298.226 110.241 298.668 110.724 297.869 112.764ZM321.685 113.301C321.306 113.637 320.906 113.942 320.486 114.215C319.14 115.056 317.92 115.719 316.827 116.203C315.754 116.686 314.482 117.18 313.01 117.685C310.823 118.337 309.414 118.19 308.783 117.244C308.173 116.297 308.079 114.983 308.499 113.301C309.088 110.903 309.425 109.147 309.509 108.033C309.614 106.918 309.246 106.54 308.405 106.897C307.584 107.234 306.081 108.38 303.894 110.335C300.845 112.964 298.237 115.971 296.071 119.357C295.798 119.82 295.461 120.198 295.062 120.493C294.662 120.787 294.168 120.934 293.579 120.934C293.011 120.934 292.601 120.787 292.349 120.493C292.096 120.198 292.086 119.799 292.317 119.294C293.558 116.56 294.83 113.847 296.134 111.156C298.363 106.487 300.561 101.84 302.727 97.2132C304.346 93.7433 305.944 90.2735 307.521 86.8037C308.489 84.7638 309.435 82.724 310.36 80.6842C310.444 80.5159 310.539 80.3372 310.644 80.1479C310.728 79.9166 310.823 79.6853 310.928 79.454C311.054 79.2226 311.191 78.9703 311.338 78.6969C311.464 78.4656 311.696 78.2763 312.032 78.1291C312.39 77.9819 312.737 77.8873 313.073 77.8452C313.431 77.8032 313.704 77.8242 313.893 77.9083C314.167 78.0976 314.314 78.2973 314.335 78.5076C314.377 78.7179 314.345 78.9387 314.24 79.1701C314.198 79.2121 314.177 79.2857 314.177 79.3909C313.757 80.6316 313.315 81.8303 312.852 82.9869C310.182 89.4218 307.269 95.7621 304.115 102.008C303.883 102.428 303.61 102.933 303.294 103.522C302.832 104.363 302.401 105.194 302.001 106.014C301.602 106.813 301.465 107.349 301.591 107.623C301.738 107.896 302.369 107.686 303.484 106.992C303.82 106.76 304.125 106.529 304.399 106.298C305.282 105.709 306.154 105.152 307.017 104.626C307.774 104.121 308.615 103.848 309.54 103.806C311.748 103.659 312.989 104.658 313.262 106.803C313.368 107.665 313.336 108.516 313.168 109.358C312.999 110.199 312.8 111.029 312.568 111.85C312.526 112.081 312.484 112.312 312.442 112.543C312.064 113.973 312.158 114.794 312.726 115.004C313.315 115.214 314.125 115.099 315.155 114.657C316.206 114.215 317.268 113.679 318.341 113.048C319.077 112.67 319.718 112.344 320.265 112.07C320.833 111.797 321.253 111.681 321.527 111.723C322.032 111.807 322.263 112.018 322.221 112.354C322.179 112.67 322 112.985 321.685 113.301ZM332.693 114.72C331.579 116.045 330.254 117.265 328.719 118.379C327.184 119.494 325.449 120.251 323.514 120.65C321.579 121.029 320.076 120.882 319.003 120.209C317.931 119.536 317.721 118.043 318.372 115.729C319.214 113.332 320.37 111.05 321.842 108.884C322.179 108.422 322.662 108.096 323.293 107.907C323.756 107.801 324.156 107.886 324.492 108.159C324.849 108.411 324.986 108.737 324.902 109.137C324.587 109.894 324.24 110.651 323.861 111.408C323.483 112.165 323.23 112.659 323.104 112.89C322.368 114.236 321.853 115.645 321.558 117.117C321.558 117.959 322.683 118.011 324.934 117.275C327.184 116.539 329.371 115.193 331.495 113.237C333.619 111.261 334.628 110.682 334.523 111.503C334.439 112.302 333.829 113.374 332.693 114.72ZM327.205 104.153C327.1 104.237 326.879 104.342 326.542 104.468C326.227 104.573 325.88 104.658 325.501 104.721C325.144 104.763 324.86 104.7 324.65 104.531C324.439 104.363 324.429 104.027 324.618 103.522C324.955 102.639 325.302 101.871 325.659 101.219C326.038 100.546 326.521 99.8103 327.11 99.0112C327.489 98.6537 327.899 98.4644 328.34 98.4434C328.782 98.4013 329.15 98.517 329.444 98.7904C329.739 99.0427 329.823 99.4002 329.697 99.8628C329.234 101.524 328.403 102.954 327.205 104.153ZM357.455 112.26C357.792 112.68 357.371 113.448 356.194 114.562C355.016 115.677 353.765 116.613 352.44 117.37C351.115 118.127 349.58 118.884 347.834 119.641C346.678 120.146 345.448 120.314 344.144 120.146C342.84 119.977 342.188 119.189 342.188 117.78C342.188 116.371 342.514 114.972 343.166 113.584C343.818 112.154 343.955 111.418 343.576 111.376C343.219 111.334 342.461 111.681 341.305 112.417C338.298 114.394 335.501 116.655 332.914 119.199C332.22 120.04 331.337 120.503 330.265 120.587C329.718 120.587 329.297 120.419 329.003 120.082C328.687 119.725 328.645 119.346 328.877 118.947C330.727 115.519 332.599 112.133 334.491 108.79C334.912 108.096 335.543 107.665 336.384 107.496C336.742 107.433 337.067 107.549 337.362 107.843C337.677 108.117 337.835 108.432 337.835 108.79C337.793 109.126 337.656 109.526 337.425 109.988C337.32 110.262 337.215 110.525 337.11 110.777C337.025 111.029 336.994 111.24 337.015 111.408C337.057 111.576 337.194 111.629 337.425 111.566C337.74 111.397 338.056 111.219 338.371 111.029C339.17 110.567 339.938 110.125 340.674 109.705C341.326 109.326 342.009 108.99 342.724 108.695C343.439 108.401 344.186 108.201 344.964 108.096C346.226 108.012 347.119 108.296 347.645 108.947C348.171 109.599 348.234 110.504 347.834 111.66C347.414 112.712 346.972 113.753 346.51 114.783C345.942 115.75 345.847 116.486 346.226 116.991C346.604 117.496 348.36 116.918 351.494 115.256L353.859 113.868C356.088 112.438 357.287 111.902 357.455 112.26ZM383.479 111.092C383.647 111.05 383.837 111.05 384.047 111.092C384.257 111.135 384.415 111.229 384.52 111.376C384.646 111.608 384.636 111.839 384.488 112.07C384.362 112.302 384.163 112.48 383.889 112.607C381.997 113.532 380.093 114.489 378.18 115.477C375.93 116.634 373.669 117.79 371.398 118.947C371.061 119.073 370.735 119.231 370.42 119.42C369.915 119.693 369.41 119.946 368.906 120.177C367.749 120.745 366.982 121.628 366.603 122.827C365.594 125.687 364.532 128.526 363.417 131.344C361.987 135.108 360.2 138.693 358.055 142.1C356.856 144.056 355.405 145.791 353.702 147.305C351.662 149.219 349.328 150.428 346.699 150.932C342.346 151.816 338.15 151.532 334.113 150.081C332.452 149.492 331.022 148.546 329.823 147.242C328.204 145.496 328.13 143.625 329.602 141.627C330.254 140.786 330.98 139.997 331.779 139.261C333.566 137.642 335.501 136.191 337.583 134.908C345.048 130.134 352.713 125.739 360.578 121.723C360.62 121.723 360.641 121.723 360.641 121.723C361.461 121.302 362.271 120.861 363.07 120.398C363.196 120.293 363.375 120.072 363.606 119.736C363.838 119.378 364.006 119.031 364.111 118.695C364.237 118.337 364.206 118.085 364.016 117.937C363.848 117.769 363.417 117.843 362.723 118.158C362.45 118.263 362.197 118.379 361.966 118.505C361.356 118.8 360.746 119.063 360.137 119.294C356.541 120.156 354.743 118.768 354.743 115.13C354.827 112.943 355.479 110.977 356.698 109.231C357.939 107.465 359.516 106.088 361.43 105.099C363.344 104.09 365.415 103.701 367.644 103.932C367.875 103.932 368.107 103.964 368.338 104.027C368.948 104.111 369.558 104.153 370.168 104.153C370.798 104.153 371.44 104.016 372.092 103.743C372.786 103.469 373.301 103.553 373.637 103.995C373.995 104.416 374.058 104.973 373.827 105.667C373.217 106.971 372.617 108.296 372.029 109.641C371.608 110.462 371.208 111.313 370.83 112.197C370.409 113.122 369.999 114.068 369.6 115.035C369.032 116.297 368.948 116.96 369.347 117.023C369.747 117.086 370.43 116.865 371.398 116.36C371.524 116.318 371.661 116.276 371.808 116.234C373.574 115.393 375.351 114.562 377.139 113.742C378.4 113.174 379.652 112.596 380.892 112.007C381.734 111.629 382.596 111.324 383.479 111.092ZM361.051 128.032C361.703 126.181 361.977 124.972 361.871 124.404C361.787 123.815 361.388 123.657 360.673 123.931C359.958 124.204 359.022 124.709 357.865 125.445C357.129 125.908 356.32 126.37 355.437 126.833C350.116 129.714 344.932 132.795 339.885 136.075C337.656 137.379 335.669 138.956 333.924 140.807C332.073 142.784 332.136 144.54 334.113 146.075C335.269 147 336.563 147.641 337.993 147.999C339.402 148.377 340.958 148.567 342.661 148.567C344.659 148.714 346.51 148.346 348.213 147.463C349.916 146.579 351.494 145.255 352.945 143.488C353.807 142.331 354.637 141.133 355.437 139.892C357.75 136.107 359.621 132.153 361.051 128.032ZM358.969 116.865C359.516 117.096 360.305 116.897 361.335 116.266C362.387 115.635 363.459 114.773 364.553 113.679C365.646 112.565 366.508 111.429 367.139 110.272C367.791 109.116 367.959 108.138 367.644 107.339C367.56 107.107 367.423 106.897 367.234 106.708C366.897 106.308 366.519 106.119 366.098 106.14C365.699 106.161 365.268 106.235 364.805 106.361C363.27 106.971 361.914 108.022 360.736 109.515C359.558 110.987 358.77 112.449 358.37 113.9C357.992 115.351 358.191 116.339 358.969 116.865Z" fill="#FF0039"/>
</g>
<defs>
<filter id="filter0_d_1_47" x="52.2427" y="31.2864" width="344.226" height="144.364" filterUnits="userSpaceOnUse" color-interpolation-filters="sRGB">
<feFlood flood-opacity="0" result="BackgroundImageFix"/>
<feColorMatrix in="SourceAlpha" type="matrix" values="0 0 0 0 0 0 0 0 0 0 0 0 0 0 0 0 0 0 127 0" result="hardAlpha"/>
<feOffset dy="4"/>
<feGaussianBlur stdDeviation="2"/>
<feComposite in2="hardAlpha" operator="out"/>
<feColorMatrix type="matrix" values="0 0 0 0 0 0 0 0 0 0 0 0 0 0 0 0 0 0 0.25 0"/>
<feBlend mode="normal" in2="BackgroundImageFix" result="effect1_dropShadow_1_47"/>
<feBlend mode="normal" in="SourceGraphic" in2="effect1_dropShadow_1_47" result="shape"/>
</filter>
</defs>
</svg>
