<?xml version="1.0" encoding="utf-8"?>
<!-- Generator: Adobe Illustrator 27.8.1, SVG Export Plug-In . SVG Version: 6.00 Build 0)  -->
<svg version="1.1" id="Layer_1" xmlns="http://www.w3.org/2000/svg" xmlns:xlink="http://www.w3.org/1999/xlink" x="0px" y="0px"
	 viewBox="0 0 98.6 8410.2" style="enable-background:new 0 0 98.6 8410.2;" xml:space="preserve">
<style type="text/css">
	.st0{fill:#5035BF;}
</style>
<path id="Path_1453" class="st0" d="M0,8284.3l0.9,112.9c0.2,3.4,1.6,6.6,4.1,9c2.2,2,5,3.3,8,3.4c7.7,0.5,10.4-4.6,10.1-12.3
	l0.8-92.9c0-1.8,0.6-3.6,1.9-5c1.3-1.3,3-2.1,4.9-2.3c5.2-0.1,5.7,5.2,5.7,10.4c-0.2,12.3,1.5,45.6,1.5,45.6
	c0.5,23.4,0.5,26.6,1.3,31.6c0.5,14.9,4.5,21.6,9.9,21c4.6-0.5,11.8-1.9,11-24.1c-0.2-7.1-0.5-13.8-0.9-25.3
	c-0.7-24.7-1-43.8,0.6-49.8c1.6-6,5.3-6,8.2-5.9c2.9,0.1,4.2,5.6,4.8,10.3l-1.3,41.9l1.8,37.4c0.4,7.9,6.7,14.2,14.6,14.8
	c0,0,12.4,0,10.4-18.7c-0.8-14.3-1.5-16-0.6-69.9l0.3-104.5V0H0v8205.8L0,8284.3z"/>
</svg>
