<?xml version="1.0" encoding="UTF-8"?>
<!-- Generator: Adobe Illustrator 27.0.0, SVG Export Plug-In . SVG Version: 6.00 Build 0)  -->
<svg xmlns="http://www.w3.org/2000/svg" xmlns:xlink="http://www.w3.org/1999/xlink" version="1.1" id="Layer_1" x="0px" y="0px" viewBox="0 0 300 300" style="enable-background:new 0 0 300 300;" xml:space="preserve">
<style type="text/css">
	.st0{display:none;}
	.st1{display:inline;}
	.st2{fill:#41413F;}
	.st3{display:inline;fill:#41413F;}
	.st4{fill:#FFFFFF;}
	.st5{fill:url(#SVGID_1_);}
	.st6{fill:url(#SVGID_00000066515229990780497420000004177865748326991240_);}
	.st7{fill:url(#SVGID_00000091699646904090392950000003147125703663160970_);}
</style>
<g class="st0">
	<g class="st1">
		<path class="st2" d="M132.3,102.6c-1.5,0-3-0.1-4.4-0.2c-7.8-0.9-13.1-4.2-15-9.4c-1.9-5.1,0.1-11.1,5.5-16.8    c4.8-5.1,12-9.6,20.3-12.6c8.2-3,16.6-4.2,23.6-3.4c7.8,0.9,13.1,4.2,15,9.4l0,0c1.9,5.1-0.1,11.1-5.5,16.8    c-4.8,5.1-12,9.6-20.3,12.6C145,101.3,138.3,102.6,132.3,102.6z M158,66.6c-4.9,0-10.7,1-17,3.3c-7.3,2.7-13.6,6.5-17.7,10.9    c-3.5,3.7-5,7.4-4.1,10s4.4,4.4,9.5,5c6,0.7,13.3-0.4,20.6-3c15.3-5.6,23.8-15.5,21.8-20.9C169.9,68.6,165,66.6,158,66.6z"></path>
	</g>
	<g class="st1">
		<g>
			<g>
				<path class="st2" d="M99.5,99.5l7.8,0.1v19.2c0.9-1.9,5-4.7,9.6-4.7c10.6,0,12.4,8.4,12.4,13.7v19.5h-7.8V129      c0-6.3-2.9-8.4-6.6-8.4s-7.7,2.8-7.7,8.4v18.4h-7.7L99.5,99.5z"></path>
				<path class="st2" d="M133.3,131.1c0-11.4,7.9-17.1,16.6-17.1c8.7,0,16.8,5.7,15.8,18.8l-24.9,0.3c0,2.6,2.1,8.5,8.6,8.8      c4.9,0.2,7.7-2.2,9.1-5l6.8,2c-1.6,4-6.8,9.2-15.3,9.2C139.5,148,133.3,140.4,133.3,131.1z M141.2,127.2l16.8-0.1      c0-3.1-3.2-7.3-9.4-6.8C144.8,120.6,141.6,123.5,141.2,127.2z"></path>
				<path class="st2" d="M178,147.5h-7.7V99.6h7.7V147.5z"></path>
				<path class="st2" d="M182.9,114.9l6.8,0.1l0.3,3.4c1.9-2.8,5.2-4.5,10-4.5c7.1,0,15.9,6.6,15,18.9c-0.8,10.5-7.9,14.7-13.8,15.4      c-3.3,0.4-7.9-0.3-11.2-3.6l0.1,15.5l-7.2,0.1L182.9,114.9z M198.9,141.5c5,0.1,9.1-4.4,9.1-10.4c0-5.6-3.9-10.5-9.4-10.2      c-7,0.3-8.8,6.1-8.8,10.3C189.8,136.9,193,141.4,198.9,141.5z"></path>
			</g>
		</g>
		<path class="st2" d="M106.2,154.2v4.6c0.6-0.9,3.7-5,8.4-5.6c6.6-0.9,9.8,3.1,10.9,5.8c1.4-2.8,4.5-5.2,9.3-5.8    c9-1.2,12.4,6.4,12.4,11.9v21.3H140v-18.7c0-4.1-0.9-7.9-5.1-7.9c-5.2,0-7.9,3.9-7.9,9.6v17.1h-7.2v-16.9c0-5.2-0.7-9.8-5.6-9.8    c-5.2,0-7.7,3.8-7.7,11.1v15.5h-7.2v-32.3L106.2,154.2L106.2,154.2z"></path>
		<path class="st2" d="M79.3,179.1L96.9,226h-8.2l-4.1-11.8H65.4L61.2,226H53l17.8-47L79.3,179.1z M74.8,187.2l-7.3,20.1h14.7    L74.8,187.2z"></path>
		<path class="st2" d="M106.6,193.6v4.6c0.6-0.9,3.3-4.9,8.3-5.5c7-0.9,11,2.5,12.6,5.8c0.9,2,1.4,4.7,1.4,10.4V226h-7.5v-17.4    c0-5.6-0.9-9.4-7.9-9.1c-2.9,0.1-6.6,3.3-6.6,10.4v16.2h-7.3v-32.3h7C106.6,193.8,106.6,193.6,106.6,193.6z"></path>
		<path class="st2" d="M170.3,209.6c0-11.4,7.9-17.1,16.6-17.1c8.7,0,16.8,5.7,15.8,18.8l-24.9,0.3c0,2.6,2.1,8.5,8.6,8.8    c4.9,0.2,7.7-2.2,9.1-5l6.8,2c-1.6,4-6.8,9.2-15.3,9.2C176.5,226.6,170.3,219,170.3,209.6z M178.2,205.7l16.8-0.1    c0-3.1-3.2-7.3-9.4-6.8C181.8,199.2,178.5,202,178.2,205.7z"></path>
		<path class="st2" d="M214.1,226.1h-7.7v-47.9h7.7V226.1z"></path>
		<path class="st2" d="M217.9,217.7c-0.5-6.4,3.4-10,10.4-11.2c3.2-0.5,7-0.9,10.6-0.3c0.7-2.1,0.5-5.8-4.1-7    c-4.1-1-8.1,0.1-9.6,4.3l-6.4-2.4c0.7-2,2.2-4.7,6-6.8c3.3-2,9.3-2.6,13.8-0.9c5.5,2,8.2,6.7,8.2,11l0.2,21.5h-7.2l-0.3-4.1    c-1.4,2-4.6,4.6-8.9,5C223.9,227.4,218.5,223.6,217.9,217.7z M239.7,212.2c-6.5-0.5-14.4-1.4-14.4,4.3c0,3.1,3.5,5.2,7.8,4.3    C237.9,219.6,240.1,215.5,239.7,212.2z"></path>
		<path class="st2" d="M191.3,174.4c-5.2-2.2-9.3-1.3-13,1.3c-0.2,0.1-1.5,1.2-2.8,2.4c-2.3,2.3-4.3,3.1-8.1,2.9    c-5.4-0.3-7.8-4.4-8.4-7.3c-0.1-0.6-0.2-1.1-0.2-1.5l24.9-0.3c1-13.1-7.1-18.8-15.8-18.8s-16.6,5.6-16.6,17.1c0,1,0.1,1.9,0.2,2.9    c0,0.1,0,0.2,0,0.3s0,0.2,0.1,0.3c1.5,8.8,8.5,13.8,16.2,13.8c2.5,0,4.6-0.5,6.4-1.4c2-0.9,3.7-2.2,5.3-3.7c0.8-0.6,1.4-1.1,2-1.5    c1.7-1.3,2.6-1.7,4.5-1.8c1.7-0.1,3.7,1.1,3.4,2.9c-0.3,1.4-1.3,2.4-3.1,2.8c-1.7,0.4-7.2,1.4-12.2,3.1l0,0    c-1.7,0.5-3.1,1.1-4.4,1.8c-0.1,0-0.1,0.1-0.2,0.1c-0.2,0.1-0.3,0.2-0.5,0.3c-6.2,3.4-7.6,7.9-8.2,9.1v0.1c0,0-3.4-6.8-12.6-6.7    c-1,0-2,0.1-2.9,0.3c0,0,0,0-0.1,0l0,0c-6.2,1.4-11.6,6.7-12.2,14.4c-0.7,8.2,3.1,14.6,8.5,17.3c4.8,2.4,12.1,2.8,17-2.9    c0,9.2-3.6,12.6-9.4,12.6c-3.7,0-6.3-2-8.1-5.3l-7.2,2c3.7,8.9,11.2,10.6,16.6,10.2c10.5-0.8,15.4-8.3,15.4-17.6    c0-3.7-0.1-9.1-0.1-15c0-1.8,0.2-3.5,0.8-5.2c0.2-0.6,0.4-1.2,0.7-1.7c3.2-6.6,10.5-10.1,19-11c7.1-0.8,9.6-4.8,9.8-7.9    C196.3,178.4,193.9,175.5,191.3,174.4z M166.6,159.5c6.2-0.5,9.4,3.7,9.4,6.8l-16.8,0.1C159.6,162.7,162.8,159.8,166.6,159.5z     M149,219.4c-4.7,0-8.6-4.4-8.6-10c0-5.3,3-8.9,7-9.9l0,0c0.7-0.2,1.4-0.2,2.1-0.2c0.8,0,1.6,0.1,2.4,0.3c1.1,0.3,2.1,0.9,3.1,1.6    c1.9,1.6,3.3,4,3.5,7.4c0,0.2,0,0.5,0,0.7C158.6,216.7,153.5,219.4,149,219.4z"></path>
	</g>
</g>
<g class="st0">
	<path class="st3" d="M210,141.6h-3.6c0-1.8,0-4,0-7.1c0-0.4-0.3-0.8-0.8-0.8h-6.5c-0.4,0-0.8,0.3-0.8,0.8v7.1h-3.6   c-0.4,0-0.8,0.3-0.8,0.8v6.5c0,0.4,0.3,0.8,0.8,0.8c1.4,0,2.6,0,3.6,0V164c0,0.4,0.3,0.8,0.8,0.8h6.5c0.4,0,0.8-0.4,0.8-0.8   c0-7.9,0-11.6,0-14.3c0.9,0,2,0,3.6,0c0.4,0,0.8-0.3,0.8-0.8v-6.5C210.8,142,210.5,141.6,210,141.6z"></path>
	<path class="st3" d="M130,141.7c-2.6,0-4.6,1.9-6.3,4.9c-0.6-3.2-2.3-4.9-6.3-4.9c-3.1,0-4.1,1.3-4.7,2.4c-0.1,0.2-0.4,0.2-0.4-0.1   c0-0.5,0-1.1,0-1.6c0-0.4-0.3-0.8-0.8-0.8H105c-0.4,0-0.8,0.3-0.8,0.8v21.5c0,0.4,0.3,0.8,0.8,0.8h6.5c0.4,0,0.8-0.3,0.8-0.8   c0.1-2.6,0.6-10.7,3.8-10.7c3.2,0,3.7,8.2,3.8,10.7c0,0.4,0.4,0.8,0.8,0.8c0.2,0,0.4,0,0.6,0l0,0h4.1c0.4,0,0.8-0.3,0.8-0.8   c0.1-2.6,0.6-10.7,3.9-10.7c3.3,0,3.5,8.1,3.4,10.7c0,0.4,0.3,0.8,0.8,0.8c1.1,0,3.2,0,5.1,0c0.4,0,0.8-0.3,0.8-0.8   C140.1,150.6,139.9,141.7,130,141.7z"></path>
	<path class="st3" d="M89.1,143.6c-2-0.5-5.2-1.4-7.1-1.8c-0.4-0.1-0.8,0.2-0.8,0.6l-1.8,7.7c-0.2,0.7-1.2,0.8-1.4,0.1l-2.8-7   c-0.1-0.3-0.4-0.5-0.7-0.5c-1.2,0,0.3,0-1.6,0s-0.4,0-1.6,0c-0.3,0-0.6,0.2-0.7,0.5l-2.8,7c-0.3,0.7-1.3,0.6-1.4-0.1l-1.8-7.7   c-0.1-0.4-0.5-0.6-0.8-0.6c-1.9,0.4-5.1,1.4-7.1,1.8c-0.4,0.1-0.7,0.5-0.6,0.9l4.5,19.6c0.1,0.3,0.4,0.6,0.7,0.6h7.1   c0.3,0,0.6-0.2,0.7-0.5l3.2-9c0.2-0.7,1.2-0.7,1.4,0l3.2,9c0.1,0.3,0.4,0.5,0.7,0.5h7.1c0.4,0,0.7-0.2,0.7-0.6l4.5-19.6   C89.8,144.1,89.5,143.7,89.1,143.6z"></path>
	<path class="st3" d="M47.9,143.2c-1.7-1-3.7-1.6-5.7-1.6c-2.1,0-4,0.5-5.8,1.6c-1.8,1-3.2,2.4-4.2,4.2c-1,1.7-1.5,3.7-1.5,5.7   c0,2.1,0.5,4,1.5,5.8s2.4,3.2,4.2,4.2s3.7,1.5,5.8,1.5s4-0.5,5.7-1.5c1.8-1,3.2-2.4,4.2-4.2s1.6-3.7,1.6-5.8s-0.5-4-1.6-5.7   C51,145.6,49.6,144.2,47.9,143.2z M44.6,155.6c-0.7,0.7-1.5,1-2.5,1s-1.8-0.3-2.5-1s-1-1.5-1-2.5s0.3-1.8,1-2.5s1.5-1,2.5-1   s1.8,0.3,2.5,1s1,1.5,1,2.5S45.3,154.9,44.6,155.6z"></path>
	<path class="st3" d="M236.9,141.6h-6.4c-0.4,0-0.8,0.3-0.8,0.8v0.3l0,0c0,0.1-0.1,0.3-0.3,0.2c-1.3-0.9-3.1-1.3-4.8-1.3   c-2.1,0-4,0.5-5.8,1.6c-1.8,1-3.2,2.4-4.2,4.2c-1,1.7-1.5,3.7-1.5,5.7c0,2.1,0.5,4,1.5,5.8s2.4,3.2,4.2,4.2s3.7,1.5,5.8,1.5   c1.8,0,3.5-0.4,5.1-1.2v0.4c0,0.4,0.3,0.8,0.8,0.8h6.4c0.4,0,0.8-0.4,0.8-0.8c0-13.7,0-10.1,0-21.5   C237.6,142,237.3,141.6,236.9,141.6z M227.1,155.6c-0.7,0.7-1.5,1-2.5,1s-1.8-0.3-2.5-1s-1-1.5-1-2.5s0.3-1.8,1-2.5s1.5-1,2.5-1   s1.8,0.3,2.5,1s1,1.5,1,2.5S227.7,154.9,227.1,155.6z"></path>
	<path class="st3" d="M247.6,130.1h-6.5c-0.4,0-0.8,0.3-0.8,0.8v33c0,0.4,0.3,0.8,0.8,0.8h6.5c0.4,0,0.8-0.4,0.8-0.8   c0-21.8,0-14.9,0-33C248.4,130.5,248,130.1,247.6,130.1z"></path>
	<path class="st3" d="M164.3,144.9c-0.7-1.1-1.8-1.7-2-1.8h-0.1c-0.2-0.1-1.3-0.7-2.8-1c-3.5-0.6-6.4-0.4-7.8,0   c-1.7,0.4-3.1,0.9-4.2,1.6c-1.1,0.7-2,1.6-2.7,2.6c-0.7,0.9-1.2,2-1.5,3.1s-0.4,2.1-0.5,3.1c0,0.6-0.1,2.2,0,2.7   c1.5,7.6,6,9.6,12,9.6c8.7,0,10.4-2.9,10.8-5.6c0.1-0.9-0.7-1.6-1.6-1.6c-3.9,0.1-10.4,0-11.8-3c-0.3-0.7,0.3-1.3,1-1.3h5.8h5h0.1   c0.6,0,1.5,0,1.5-1c0-0.1,0-0.3,0-0.4c0-0.8,0-1.5-0.2-3.1C165.4,147.4,164.9,145.9,164.3,144.9z M156.3,149.7h-1.6H153   c-0.4,0-0.8-0.3-0.7-0.8c0.1-1.3,0.4-2.9,2.4-2.9s2.3,1.7,2.4,2.9C157.1,149.4,156.7,149.7,156.3,149.7z"></path>
	<path class="st3" d="M270.7,142.2c1.3,0,2.5-0.5,3.4-1.4c1-1,1.4-2.1,1.4-3.4s-0.5-2.5-1.4-3.4c-0.9-1-2-1.4-3.4-1.4   c-1.3,0-2.5,0.5-3.4,1.4s-1.4,2-1.4,3.4s0.5,2.5,1.4,3.4C268.2,141.8,269.3,142.2,270.7,142.2z"></path>
	<path class="st3" d="M294,140.4c-0.6-1.9-1.2-3.7-2.1-5.2s-1.7-2.9-2.5-4s-1.6-2-2.2-2.7c-0.4-0.4-0.9-0.6-1.4-0.6   c-0.6-0.1-1.1,0.1-1.5,0.4l-1.6,1.3c-0.5,0.4-0.8,0.8-0.9,1.5s0.1,1.2,0.5,1.7c0.6,0.7,1.1,1.5,1.7,2.5s1.1,2,1.5,3.3   c0.5,1.2,0.8,2.5,1.1,4c0.3,1.4,0.4,2.9,0.4,4.4c0,2.3-0.4,4.7-1.2,7.1c-0.8,2.4-2.2,4.8-4.3,7.1c-0.4,0.4-0.6,0.9-0.6,1.4   s0.1,1,0.5,1.4l1.8,2.2c0.4,0.5,1,0.8,1.6,0.8c0.7,0,1.2-0.2,1.7-0.7c2.9-3.2,5-6.5,6.4-9.8s2.1-6.5,2-9.6   C294.9,144.5,294.6,142.4,294,140.4z"></path>
	<path class="st3" d="M270.7,150.2c-1.3,0-2.5,0.5-3.5,1.4c-0.9,0.9-1.4,2.1-1.4,3.4c0,1.3,0.5,2.5,1.4,3.4c1,0.9,2.1,1.4,3.5,1.4   c0.4,0,0.8,0.3,0.8,0.7v5.1c0,0.7,0.6,1.3,1.3,1.3h1.5c0.7,0,1.3-0.6,1.3-1.3v-10.8c-0.1-1.4-0.5-2.5-1.4-3.4   C273.1,150.6,272,150.2,270.7,150.2z"></path>
	<path class="st3" d="M182.4,141.6c-3.4,0-4.8,1.5-5.4,2.4c-0.3,0.4-0.5,0.3-0.5-0.2s0-1,0-1.5c0-0.4-0.3-0.8-0.8-0.8h-6.5   c-0.4,0-0.8,0.3-0.8,0.8v21.5c0,0.4,0.3,0.8,0.8,0.8h6.5c0.4,0,0.8-0.3,0.8-0.7c0.1-2.5,0.9-10.7,4.1-10.7c3.2,0,3.7,8.2,3.8,10.7   c0,0.4,0.4,0.8,0.8,0.8c1.1,0,3.4,0,5.5,0c0.4,0,0.8-0.3,0.8-0.8C191.5,154.8,192.5,141.6,182.4,141.6z"></path>
	<path class="st3" d="M18.9,141.6c-3.4,0-4.8,1.5-5.5,2.4c-0.3,0.4-0.5,0.3-0.5-0.2c0-2.6,0-10.5,0-13c0-0.4-0.3-0.8-0.8-0.8H5.7   c-0.4,0-0.8,0.3-0.8,0.8v33c0,0.4,0.3,0.8,0.8,0.8h6.5c0.4,0,0.8-0.3,0.8-0.7c0.2-2.5,0.9-10.5,4.1-10.5s3.7,8,3.8,10.5   c0,0.4,0.4,0.8,0.8,0.8c1.1,0,3.4,0,5.5,0c0.4,0,0.8-0.3,0.8-0.8C27.9,154.7,29,141.6,18.9,141.6z"></path>
</g>
<g class="st0">
	<g class="st1">
		<path class="st2" d="M77.1,189c-8.3,0-15-2.6-20-7.7c-5-5.2-7.5-12-7.5-20.3s2.6-15.1,7.5-20.2c5-5.2,11.7-7.8,20-7.8    s15,2.6,20,7.8c5,5.1,7.5,11.9,7.5,20.2s-2.6,15.1-7.5,20.3C92.1,186.4,85.4,189,77.1,189z M86,161.2c0-6.2-3.6-10.3-8.9-10.3    c-5.4,0-9,4.1-8.9,10.3c-0.1,6.1,3.4,10.1,8.9,10.1C82.4,171.2,86,167.3,86,161.2z M207.7,129.9c6.2,0,10.4-3.8,10.4-9.2    c0-5.8-4.2-9.7-10.4-9.7c-6.5,0-10.9,3.9-10.9,9.7C196.8,126.1,201.1,129.9,207.7,129.9z"></path>
	</g>
	<path class="st3" d="M23.5,187.1v-71.8l19.4-2.2v74H23.5z M150.4,184.6c-4.9,3-10.1,4.4-15.6,4.4c-13.2,0-20.7-8.3-20.7-23.1V151   h-6.7v-14.5l6.7-1.6l2.2-13.4l17.2-2.2V135h12.2l-1.1,16.1h-11.1v14.3c0,5.1,1.7,7.7,5,7.7c1.8,0,3.8-0.6,5.9-1.6L150.4,184.6z    M193.2,184.6c-4.9,3-10.1,4.4-15.6,4.4c-13.2,0-20.7-8.3-20.7-23.1V151h-6.7v-14.5l6.7-1.6l2.2-13.4l17.2-2.2V135h12.2l-1.1,16.1   h-11.1v14.3c0,5.1,1.7,7.7,5,7.7c1.8,0,3.8-0.6,5.9-1.6L193.2,184.6z M197.8,187.1V135h19.4v52.1H197.8z M271.1,142.7   c4.7,6.3,6.3,14.6,5,25h-34.8c2.2,4.5,6.3,6.9,12.4,6.9c5,0,10.1-1.6,15.3-4.7l5.8,12.2c-7.5,4.5-15.3,6.9-23.2,6.9   c-8.2,0-15.1-2.6-20.6-7.5c-5.4-5-8.2-11.9-8.2-20.5c0-8.3,2.6-15.1,7.5-20.2c5-5.1,11.7-7.7,19.9-7.7   C259.5,133.1,266.5,136.3,271.1,142.7z M258.4,155.5c0-4-3.4-6.7-8.7-6.7c-4.3,0-7.3,2.2-9,6.5L258.4,155.5z"></path>
</g>
<g class="st0">
	<path id="Path_115" class="st3" d="M75,129.2c-2.6,0.1-4.8-1.8-5-4.4c0-2.6,2.1-4.7,4.7-4.7l0,0c0.1,0,0.2,0,0.2,0l0,0   c2.6-0.1,4.8,2,4.9,4.6C79.8,127.2,77.6,129.3,75,129.2L75,129.2"></path>
	<path id="Path_116" class="st3" d="M59.8,182c-2.6,0.1-4.8-2-4.8-4.6l0,0v-18.8c0-7.9-6.8-14.3-15.1-14.3s-15.1,6.4-15.1,14.3v18.8   c-0.1,2.6-2.4,4.6-5,4.5c-2.5,0-4.6-2-4.7-4.5v-18.8c0-13,11.1-23.5,24.8-23.5s24.8,10.5,24.8,23.5v18.8   C64.5,180,62.4,182,59.8,182L59.8,182"></path>
	<path id="Path_117" class="st3" d="M141.8,135.1c-6.8,0.1-13.1,3.3-17.1,8.8c-4-5.5-10.3-8.7-17.1-8.8c-12.1,0-21.9,10.5-21.9,23.5   v18.8c0.1,2.7,2.3,4.8,5,4.7c2.5-0.1,4.5-2,4.7-4.5c0-0.1,0-0.2,0-0.2v-18.8c0-7.9,5.5-14.3,12.2-14.3s12.2,6.4,12.2,14.3v18.8   c0.1,2.7,2.4,4.8,5.1,4.6c2.5-0.1,4.5-2.1,4.6-4.6v-18.8c0-7.9,5.5-14.3,12.2-14.3s12.2,6.4,12.2,14.3v18.8c0.1,2.7,2.3,4.8,5,4.7   c2.5-0.1,4.5-2,4.7-4.5c0-0.1,0-0.2,0-0.2v-18.8C163.8,145.6,153.9,135.1,141.8,135.1"></path>
	<path id="Path_118" class="st3" d="M245.9,154h28.6c-2.7-7.5-11.3-11.5-19.2-9C251,146.4,247.5,149.7,245.9,154 M260.2,182.1   c-13.7,0-24.8-10.5-24.8-23.5s11.1-23.5,24.8-23.5c13.7,0,24.8,10.5,24.8,23.5l0,0c-0.1,2.6-2.2,4.7-4.8,4.6l0,0h-34.3   c2.3,5.9,8,9.8,14.3,9.7c2.3,0,4.5-0.5,6.5-1.4c2.4-1.1,5.2-0.2,6.5,2.2c1.1,2.2,0.2,4.9-2,6c-0.1,0-0.2,0.1-0.2,0.1l0,0   C267.6,181.3,263.9,182.1,260.2,182.1"></path>
	<path id="Path_119" class="st3" d="M74.9,182c-2.6,0.1-4.8-2-4.8-4.6v-38.9c0.2-2.7,2.5-4.7,5.2-4.5c2.4,0.2,4.3,2.1,4.5,4.5v19.6   c0,0.2,0,0.3,0,0.5s0,0.3,0,0.5v18.3C79.7,180,77.5,182,74.9,182"></path>
	<path id="Path_121" class="st3" d="M226.3,182c-2.6,0.1-4.8-2-4.8-4.6l0,0v-57.2c0.1-2.7,2.4-4.7,5.1-4.6c2.5,0.1,4.5,2.1,4.6,4.6   v37.9c0,0.3,0,0.6,0,0.9v18.3C231.1,180,228.9,182,226.3,182L226.3,182"></path>
	<path id="Path_220" class="st3" d="M192.9,135.1c-5.4,0-10.7,1.7-15.1,4.9v-0.1v-19.6c-0.1-2.7-2.4-4.7-5.1-4.6   c-2.5,0.1-4.5,2.1-4.6,4.6v38.2c0,0.1,0,0.1,0,0.2s0,0.1,0,0.2v0.3c0,0.1,0,0.2,0,0.4c0.5,12.6,11.4,22.6,24.8,22.6   c13.7,0,24.8-10.5,24.8-23.5l0,0C217.7,145.6,206.6,135.1,192.9,135.1z M193,172.9c-8.3,0-15.1-6.4-15.1-14.3s6.8-14.3,15.1-14.3   c2.5,0,4.9,0.6,7.2,1.7c4.8,2.4,7.9,7.2,7.9,12.6C208,166.4,201.3,172.9,193,172.9L193,172.9z"></path>
</g>
<g>
	<g>
		<path class="st4" d="M86.9,152.3c-1.1,0-2.1-0.3-3-0.8s-1.6-1.2-2.1-2.1c-0.5-0.9-0.8-1.9-0.8-3s0.3-2.1,0.8-3    c0.5-0.9,1.2-1.6,2.1-2.1c0.9-0.5,1.9-0.8,3-0.8h11.5v3.9H86.9c-0.5,0-1,0.2-1.4,0.6s-0.6,0.8-0.6,1.4c0,0.5,0.2,1,0.6,1.4    s0.8,0.6,1.4,0.6h6.2c1.1,0,2.1,0.3,3,0.8s1.6,1.2,2.1,2.1c0.5,0.9,0.8,1.9,0.8,3s-0.3,2.1-0.8,3c-0.5,0.9-1.2,1.6-2.1,2.1    c-0.9,0.5-1.9,0.8-3,0.8H81.3v-3.9h11.8c0.5,0,1-0.2,1.4-0.6c0.4-0.4,0.6-0.8,0.6-1.4s-0.2-1-0.6-1.4c-0.4-0.4-0.8-0.6-1.4-0.6    L86.9,152.3L86.9,152.3z"></path>
		<path class="st4" d="M127.4,160.2h-11.1c-1.1,0-2.1-0.3-3-0.8c-0.9-0.5-1.6-1.2-2.1-2.1c-0.5-0.9-0.8-1.9-0.8-3v-7.9    c0-1.1,0.3-2.1,0.8-3c0.5-0.9,1.2-1.6,2.1-2.1c0.9-0.5,1.9-0.8,3-0.8h11.1v3.9h-11.1c-0.5,0-1,0.2-1.4,0.6s-0.6,0.8-0.6,1.4v2    h11.1v3.9h-11.1v2c0,0.5,0.2,1,0.6,1.4c0.4,0.4,0.8,0.6,1.4,0.6h11.1V160.2L127.4,160.2z"></path>
		<path class="st4" d="M157.2,147.8c0,1.2-0.3,2.3-1,3.3c-0.7,1-1.5,1.7-2.6,2.1l3.4,7h-4.4l-3.2-6.5h-6v6.5h-3.9v-8.5    c0-0.5,0.2-1,0.6-1.4c0.4-0.4,0.8-0.6,1.4-0.6h9.8c0.5,0,1-0.2,1.4-0.6c0.4-0.4,0.6-0.8,0.6-1.4v-1.3c0-0.5-0.2-1-0.6-1.4    c-0.4-0.4-0.8-0.6-1.4-0.6h-11.8v-3.9h11.8c1.1,0,2.1,0.3,3,0.8c0.9,0.5,1.6,1.2,2.1,2.1c0.5,0.9,0.8,1.9,0.8,3L157.2,147.8    L157.2,147.8z"></path>
		<path class="st4" d="M177.7,140.6c0.4,0,0.7,0.1,1.1,0.3c0.3,0.2,0.6,0.5,0.7,0.9l8.2,18.5h-4.3l-5.7-12.8l-5.7,12.8h-4.3    l8.2-18.5c0.2-0.4,0.4-0.6,0.7-0.9C177,140.7,177.4,140.6,177.7,140.6z"></path>
		<path class="st4" d="M199.1,144.5v-3.9h12.4c1.1,0,2.1,0.3,3,0.8c0.9,0.5,1.6,1.2,2.1,2.1c0.5,0.9,0.8,1.9,0.8,3v1.3    c0,1.1-0.3,2.1-0.8,3c-0.5,0.9-1.2,1.6-2.1,2.1c-0.9,0.5-1.9,0.8-3,0.8H203v6.5h-3.9v-10.5h12.4c0.5,0,1-0.2,1.4-0.6    c0.4-0.4,0.6-0.8,0.6-1.4v-1.3c0-0.5-0.2-1-0.6-1.4c-0.4-0.4-0.8-0.6-1.4-0.6L199.1,144.5L199.1,144.5z"></path>
		<path class="st4" d="M232.7,152.3v7.9h-3.9v-19.7h3.9v7.9h9.2v-7.9h3.9v19.7h-3.9v-7.9H232.7z"></path>
		<path class="st4" d="M261.1,140.5v19.7h-3.9v-19.7H261.1z"></path>
		<path class="st4" d="M297,160.2h-3.9V149l-6.9,10.3c-0.4,0.6-0.9,0.9-1.6,0.9h0c-0.7,0-1.2-0.3-1.6-0.9l-6.5-10.1v11h-3.9v-17.7    c0-0.4,0.1-0.8,0.4-1.2c0.3-0.3,0.6-0.6,1-0.7c0.9-0.2,1.7,0.1,2.2,0.8l8.5,13.2l8.8-13.2c0.6-0.8,1.3-1,2.2-0.8    c0.4,0.1,0.8,0.4,1,0.7c0.3,0.3,0.4,0.7,0.4,1.2L297,160.2L297,160.2z"></path>
	</g>
	<g>
		
			<linearGradient id="SVGID_1_" gradientUnits="userSpaceOnUse" x1="3104.7773" y1="-7353.0435" x2="3163.752" y2="-7353.0435" gradientTransform="matrix(0.7071 -0.7071 0.7071 0.7071 3004.5388 7555.5898)">
			<stop offset="0" style="stop-color:#FFFFFF;stop-opacity:0"></stop>
			<stop offset="0.75" style="stop-color:#FFFFFF"></stop>
			<stop offset="1" style="stop-color:#FFFFFF"></stop>
		</linearGradient>
		<path class="st5" d="M11,171.2c-11.5-11.5-11.5-30.2,0-41.7c11.5-11.5,30.2-11.5,41.7,0L11,171.2z"></path>
		
			<linearGradient id="SVGID_00000080906055600607908190000003440444430468908183_" gradientUnits="userSpaceOnUse" x1="-16688.6855" y1="-6951.5063" x2="-16629.7109" y2="-6951.5063" gradientTransform="matrix(-0.7071 0.7071 -0.7071 -0.7071 -16653.0293 7025.1699)">
			<stop offset="0" style="stop-color:#FFFFFF;stop-opacity:0"></stop>
			<stop offset="0.75" style="stop-color:#FFFFFF"></stop>
			<stop offset="1" style="stop-color:#FFFFFF"></stop>
		</linearGradient>
		<path style="fill:url(#SVGID_00000080906055600607908190000003440444430468908183_);" d="M52.7,129.5c11.5,11.5,11.5,30.2,0,41.7    c-11.5,11.5-30.2,11.5-41.7,0L52.7,129.5z"></path>
		
			<linearGradient id="SVGID_00000065776077707313355530000016139023231810166401_" gradientUnits="userSpaceOnUse" x1="-16208.0088" y1="-8288.6504" x2="-16168.6934" y2="-8288.6504" gradientTransform="matrix(-0.7071 0.7071 -0.7071 -0.7071 -17276.0195 5736.3003)">
			<stop offset="0" style="stop-color:#FFFFFF"></stop>
			<stop offset="0.25" style="stop-color:#FFFFFF"></stop>
			<stop offset="1" style="stop-color:#FFFFFF;stop-opacity:0"></stop>
		</linearGradient>
		<circle style="fill:url(#SVGID_00000065776077707313355530000016139023231810166401_);" cx="31.8" cy="150.4" r="19.7"></circle>
	</g>
</g>
</svg>
