<?xml version="1.0" encoding="utf-8"?>
<!-- Generator: Adobe Illustrator 27.5.0, SVG Export Plug-In . SVG Version: 6.00 Build 0)  -->
<svg version="1.1" id="Layer_1" xmlns="http://www.w3.org/2000/svg" xmlns:xlink="http://www.w3.org/1999/xlink" x="0px" y="0px"
	 viewBox="0 0 1128.5 1638.9" style="enable-background:new 0 0 1128.5 1638.9;" xml:space="preserve">
<style type="text/css">
	.st0{fill:#CCFE01;}
</style>
<g id="Layer_2_00000183945292405161961200000015894198167012580998_">
</g>
<g id="Layer_1_00000169539229282198627340000009213699943753617307_">
</g>
<g id="AP_V1">
</g>
<g id="AP_V2">
</g>
<g id="AP_V3_00000121272146355222391710000004069155178238869176_">
</g>
<g id="AP_V4_00000107555982606502413970000009784918875296077459_">
</g>
<g>
	<path class="st0" d="M220.2,207.7c-3.8,2.3-7.9,4-12.1,5.2c-27,7.7-55.1-8-62.9-35c-10.1-35.3-27.3-73.4-55.6-83.4
		c-18.5-6.9-50-6.8-89.7,20.3V15.5C23.1,5.6,47.5,0,73.8,0c13.2,0,26.9,1.4,41.2,4.4c84.5,23.8,116.6,100.3,128.6,147.3
		C249,173.4,239.5,196.2,220.2,207.7z"/>
	<path class="st0" d="M463.3,0L416,62c-3.7,5.3-8.1,7.4-13,3.1c-1.9-1.6-3.2-3.9-3.7-6.4c-0.5-2.8,0.1-5.7,1.8-8.1
		c0,0,16.7-22.6,37.3-50.6H463.3z"/>
	<path class="st0" d="M473.1,0h79.4C538.2,11.3,523,26.1,507,45.2c-27.8,35.8-28.2,37.3-34.9,47.4c-8.1,13.6-16.4,7.3-16.4,7.3
		c-5-4.4-6-11.8-2.3-17.3L471,56.5l22-27.6c1.9-3.4,3.9-7.8,1.9-9.4c-1.9-1.5-4.4-3.4-8.5-0.1c-4.1,3.2-13.5,16.2-25.5,33.2
		c-5.6,8-8.8,12.6-12.2,17.5c-10.7,15.3-16.3,12.6-19.6,10.7c-3.9-2.3-3.2-8.8,4-19.1c2-3.8,3.7-5.9,15.1-21.9
		c0,0,15.7-23.2,22-31.5C472.4,5.5,474.3,2.4,473.1,0z"/>
	<path class="st0" d="M784.5,84.2c-3.8,2.3-7.9,4-12.1,5.2c-27,7.7-55.1-8-62.9-35c-5.4-18.9-12.9-38.7-23-54.4H799
		c3.7,10,6.6,19.6,8.8,28.2C813.2,49.9,803.8,72.7,784.5,84.2z"/>
	<path class="st0" d="M722.4,146.9c-5.7-3.5-11.6-6.8-18-9.8C684.9,121.3,672.2,91,664,62.6c-7.7-27-35.8-42.7-62.9-35
		c-4.2,1.2-8.3,3-12.1,5.2c-19.3,11.5-28.7,34.3-23.3,56c3.3,13,8.1,28.2,15.2,43.9c-16.9,5.5-33.1,13.4-48.8,23.2
		c-32.7,20.2-59.9,45.2-74.6,65.2l-56.4,76.5c-1.6,2.4-2.2,5.3-1.7,8.1c0.4,2.5,1.7,4.7,3.7,6.4c4.9,4.2,9.3,2.2,13-3.1l47.5-62.2
		c0.9-1.2,2.2-2.1,3.8-2.4c1.5-0.2,3.1,0.1,4.4,0.9c3.5,2.6,1.2,6.4-1.4,9.9c-6.4,8.2-22,31.5-22,31.5c-11.4,16-13.1,18.1-15.1,21.9
		c-7.2,10.3-7.9,16.8-4,19.1c3.3,2,8.9,4.7,19.6-10.7c3.4-4.9,6.6-9.5,12.2-17.5c12-17,21.4-30,25.5-33.2c4.1-3.2,6.6-1.4,8.5,0.2
		c1.9,1.5,0,5.9-2,9.4l-22,27.6l-17.7,26.1c-3.7,5.5-2.7,12.9,2.3,17.3c0,0,8.3,6.2,16.5-7.3c6.7-10.1,7.1-11.6,34.9-47.4
		c64.2-77,116.6-83.8,144.2-75.2c5.6,3.5,11.6,6.8,18,9.7c19.5,15.9,32.2,46.2,40.4,74.6c7.7,27,35.8,42.7,62.9,35
		c4.2-1.2,8.3-3,12.1-5.2c19.3-11.5,28.7-34.3,23.3-56c-3.3-13-8.1-28.2-15.2-43.9c16.9-5.5,33.1-13.4,48.8-23.2
		c32.7-20.2,59.9-45.2,74.6-65.2l56.4-76.5c1.6-2.4,2.2-5.3,1.7-8.1c-0.4-2.5-1.7-4.7-3.7-6.4c-4.9-4.2-9.3-2.2-13,3.1l-47.5,62.2
		c-0.9,1.2-2.2,2.1-3.8,2.4c-1.5,0.2-3.1-0.1-4.4-0.9c-3.5-2.6-1.2-6.4,1.4-9.9c6.4-8.2,22-31.5,22-31.5
		c11.4-16,13.1-18.1,15.1-21.9c7.2-10.3,7.9-16.8,4-19.1c-3.3-2-8.9-4.7-19.6,10.7c-3.4,4.9-6.6,9.5-12.2,17.5
		c-12,17-21.4,30-25.5,33.2c-4.1,3.2-6.6,1.4-8.5-0.2c-1.9-1.5,0-5.9,2-9.4l22-27.6l17.7-26.1c3.7-5.5,2.7-12.9-2.3-17.3
		c0,0-8.3-6.2-16.5,7.3c-6.7,10.1-7.1,11.6-34.9,47.4C802.3,148.8,749.9,155.5,722.4,146.9z"/>
	<path class="st0" d="M1128.5,15.5v99.3c-17.6,12.1-36.8,29.4-57.2,53.9c-27.8,35.8-28.2,37.3-34.9,47.4
		c-8.1,13.6-16.4,7.3-16.4,7.3c-5-4.4-6-11.8-2.3-17.3l17.7-26.1l22-27.6c1.9-3.4,3.9-7.8,1.9-9.4c-1.9-1.5-4.4-3.4-8.5-0.2
		c-4.1,3.2-13.6,16.2-25.6,33.2c-5.6,8-8.8,12.6-12.2,17.5c-10.7,15.3-16.3,12.6-19.6,10.7c-3.9-2.3-3.2-8.8,4-19.1
		c2-3.8,3.7-5.9,15.1-21.9c0,0,15.7-23.2,22-31.5c2.7-3.5,5-7.3,1.4-9.9c-1.3-0.9-2.9-1.2-4.4-0.9c-1.5,0.3-2.9,1.1-3.8,2.4
		l-47.5,62.2c-3.7,5.3-8.1,7.4-13,3.1c-1.9-1.6-3.2-3.9-3.7-6.3c-0.5-2.8,0.1-5.8,1.8-8.1l56.4-76.5c14.8-20,41.9-45,74.6-65.2
		C1106.9,25.9,1117.6,20.2,1128.5,15.5z"/>
	<path class="st0" d="M408.2,189.9c0,0-28.1,38-56.4,76.5c-14.8,20-41.9,45-74.6,65.2c-15.8,9.8-32,17.6-48.8,23.2
		c7,15.7,11.9,30.9,15.2,43.9c6.7,26.6-9,53.8-35.4,61.3c-27,7.7-55.1-8-62.8-35c-8.1-28.4-20.9-58.7-40.4-74.6
		c-6.4-2.9-12.4-6.2-18-9.8C68.1,334.7,37.8,336,0,361.8v-99.3c5.5-2.4,11.1-4.5,16.7-6.3c-7.1-15.7-11.9-30.9-15.2-43.9
		c-1-4.1-1.5-8.3-1.5-12.4c0-17.6,9.2-34.3,24.8-43.6c3.8-2.3,7.9-4,12.1-5.2c27-7.7,55.1,8,62.8,35c8.2,28.4,20.9,58.7,40.4,74.6
		c6.4,3,12.4,6.2,18,9.8c27.5,8.6,79.9,1.8,144.1-75.2c27.8-35.8,28.2-37.3,34.9-47.4c8.1-13.6,16.4-7.3,16.4-7.3
		c5,4.4,6,11.8,2.3,17.3L338.3,184l-22,27.6c-1.9,3.4-3.9,7.8-1.9,9.4c1.9,1.5,4.4,3.4,8.6,0.2c4.1-3.2,13.5-16.2,25.5-33.2
		c5.6-8,8.8-12.6,12.2-17.5c10.7-15.3,16.3-12.6,19.6-10.7c3.9,2.3,3.2,8.8-4,19.1c-2,3.8-3.7,5.9-15.1,21.9c0,0-15.7,23.2-22,31.5
		c-2.7,3.5-5,7.3-1.4,9.9c1.3,0.8,2.9,1.2,4.4,0.9c1.5-0.3,2.9-1.1,3.8-2.4l47.5-62.2c3.7-5.3,8.1-7.4,13-3.1
		c1.9,1.6,3.2,3.9,3.7,6.3C410.5,184.6,409.8,187.5,408.2,189.9z"/>
	<path class="st0" d="M1128.5,262.5v99.3c-17.6,12.1-36.8,29.4-57.2,53.9c-27.8,35.8-28.2,37.3-34.9,47.4
		c-8.1,13.6-16.4,7.3-16.4,7.3c-5-4.4-6-11.8-2.3-17.3l17.7-26.1l22-27.6c1.9-3.4,3.9-7.8,1.9-9.4c-1.9-1.5-4.4-3.4-8.5-0.2
		c-4.1,3.2-13.6,16.2-25.6,33.2c-5.6,8-8.8,12.6-12.2,17.5c-10.7,15.3-16.3,12.6-19.6,10.7c-3.9-2.3-3.2-8.8,4-19.1
		c2-3.8,3.7-5.9,15.1-21.9c0,0,15.7-23.2,22-31.5c2.7-3.5,5-7.3,1.4-9.9c-1.3-0.9-2.9-1.2-4.4-0.9c-1.5,0.3-2.9,1.1-3.8,2.4
		l-47.5,62.2c-3.7,5.3-8.1,7.4-13,3.1c-1.9-1.6-3.2-3.9-3.7-6.4c-0.5-2.8,0.1-5.7,1.8-8.1c0,0,28.1-38.1,56.4-76.5
		c14.8-20,41.9-45,74.6-65.2C1106.9,272.9,1117.6,267.2,1128.5,262.5z"/>
	<path class="st0" d="M408.2,683.9c0,0-28.1,38.1-56.4,76.5c-14.8,20-41.9,45-74.6,65.2c-15.8,9.8-32,17.6-48.8,23.2
		c7,15.7,11.9,30.9,15.2,43.9c6.7,26.6-9,53.8-35.4,61.3c-27,7.7-55.1-8-62.8-35c-8.1-28.4-20.9-58.7-40.4-74.6
		c-6.4-2.9-12.4-6.2-18-9.8C68.1,828.7,37.8,830,0,855.9v-99.3c5.5-2.4,11.1-4.5,16.7-6.3c-7-15.7-11.9-30.9-15.2-43.9
		c-1-4.2-1.5-8.3-1.5-12.4c0-22.2,14.6-42.5,37-48.9c27-7.7,55.1,8,62.8,35c8.2,28.4,20.9,58.7,40.4,74.6c6.4,2.9,12.4,6.2,18,9.8
		c27.5,8.6,79.9,1.8,144.1-75.2c27.8-35.8,28.2-37.3,34.9-47.4c8.1-13.6,16.4-7.3,16.4-7.3c5,4.4,6,11.8,2.3,17.3L338.3,678
		l-22,27.6c-1.9,3.4-3.9,7.8-1.9,9.4c1.9,1.5,4.4,3.4,8.6,0.2c4.1-3.2,13.5-16.2,25.5-33.2c5.6-8,8.8-12.6,12.2-17.5
		c10.7-15.3,16.3-12.6,19.6-10.7c3.9,2.3,3.2,8.8-4,19.2c-2,3.8-3.7,5.9-15.1,21.9c0,0-15.7,23.2-22,31.5c-2.7,3.5-5,7.3-1.4,9.9
		c1.3,0.9,2.9,1.2,4.4,0.9c1.5-0.3,2.9-1.1,3.8-2.4l47.5-62.2c3.7-5.3,8.1-7.4,13-3.1c1.9,1.6,3.2,3.9,3.7,6.3
		C410.5,678.6,409.8,681.5,408.2,683.9z"/>
	<path class="st0" d="M408.2,436.9l-56.4,76.5c-14.8,20-41.9,45-74.6,65.2c-15.8,9.8-32,17.6-48.8,23.2c7,15.7,11.9,30.9,15.2,43.9
		c6.7,26.6-9,53.8-35.4,61.3c-27,7.7-55.1-8-62.8-35c-8.1-28.4-20.9-58.7-40.4-74.6c-6.4-2.9-12.4-6.2-18-9.8
		C68.1,581.7,37.8,583,0,608.9v-99.3c5.5-2.4,11.1-4.5,16.7-6.3c-7.1-15.7-11.9-30.9-15.2-43.9c-6.7-26.6,9-53.8,35.4-61.3
		c27-7.7,55.1,8,62.8,35c8.2,28.4,20.9,58.7,40.4,74.6c6.4,2.9,12.4,6.2,18,9.8c27.5,8.6,79.9,1.8,144.1-75.2
		c27.8-35.8,28.2-37.3,34.9-47.4c8.1-13.6,16.4-7.3,16.4-7.3c5,4.4,6,11.8,2.3,17.3L338.3,431l-22,27.6c-1.9,3.4-3.9,7.8-1.9,9.4
		c1.9,1.5,4.4,3.4,8.6,0.1c4.1-3.2,13.5-16.2,25.5-33.2c5.6-8,8.8-12.6,12.2-17.5c10.7-15.3,16.3-12.6,19.6-10.7
		c3.9,2.3,3.2,8.8-4,19.1c-2,3.8-3.7,5.9-15.1,21.9c0,0-15.7,23.2-22,31.5c-2.7,3.5-5,7.3-1.4,9.9c1.3,0.9,2.9,1.2,4.4,0.9
		c1.5-0.3,2.9-1.2,3.8-2.4l47.5-62.2c3.7-5.3,8.1-7.4,13-3.1c1.9,1.6,3.2,3.9,3.7,6.3C410.5,431.6,409.8,434.5,408.2,436.9z"/>
	<path class="st0" d="M457.5,468.1l-56.4,76.5c-1.6,2.4-2.2,5.3-1.7,8.1c0.4,2.5,1.7,4.7,3.7,6.4c4.9,4.2,9.3,2.2,13-3.1l47.5-62.2
		c0.9-1.2,2.2-2.1,3.8-2.4c1.5-0.2,3.1,0.1,4.4,0.9c3.5,2.6,1.2,6.4-1.4,9.9c-6.4,8.2-22,31.5-22,31.5c-11.4,16-13.1,18.1-15.1,21.9
		c-7.2,10.3-7.9,16.8-4,19.1c3.3,2,8.9,4.7,19.6-10.7c3.4-4.9,6.6-9.5,12.2-17.5c12-17,21.4-30,25.5-33.2s6.6-1.4,8.5,0.2
		s0,5.9-2,9.4l-22,27.6l-17.7,26.1c-3.7,5.5-2.7,12.9,2.3,17.3c0,0,8.3,6.2,16.5-7.3c6.7-10.1,7.1-11.6,34.9-47.4
		c64.2-77,116.6-83.8,144.1-75.2c5.7,3.5,11.6,6.8,18,9.7c19.5,15.9,32.2,46.2,40.4,74.6c7.7,27,35.8,42.7,62.8,35
		c26.4-7.5,42.1-34.6,35.4-61.3c-3.3-13-8.1-28.2-15.2-43.9c16.9-5.5,33.1-13.4,48.8-23.2c32.7-20.2,59.9-45.2,74.6-65.2
		c28.4-38.4,56.4-76.5,56.4-76.5c1.6-2.4,2.2-5.3,1.7-8.1c-0.4-2.5-1.7-4.7-3.7-6.4c-4.9-4.2-9.3-2.2-13,3.1l-47.5,62.2
		c-0.9,1.2-2.2,2.1-3.8,2.4c-1.5,0.2-3.1-0.1-4.4-0.9c-3.5-2.6-1.2-6.4,1.4-9.9c6.4-8.2,22-31.5,22-31.5
		c11.4-16,13.1-18.1,15.1-21.9c7.2-10.3,7.9-16.8,4-19.1c-3.3-2-8.9-4.7-19.6,10.7c-3.4,4.9-6.6,9.5-12.2,17.5
		c-12,17-21.4,30-25.5,33.2c-4.1,3.2-6.6,1.4-8.5-0.2c-1.9-1.5,0-5.9,2-9.4l22-27.6l17.7-26.1c3.7-5.5,2.7-12.9-2.3-17.3
		c0,0-8.3-6.2-16.5,7.3c-6.7,10.1-7.1,11.6-34.9,47.4c-64.2,77-116.6,83.8-144.1,75.2c-5.7-3.5-11.6-6.8-18-9.7
		c-19.5-15.9-32.2-46.2-40.4-74.6c-7.7-27-35.8-42.7-62.9-35c-4.2,1.2-8.3,3-12.1,5.2c-19.3,11.5-28.7,34.3-23.3,56
		c3.3,13,8.1,28.2,15.2,43.9c-16.9,5.5-33.1,13.4-48.8,23.2C499.4,423.1,472.2,448.1,457.5,468.1z"/>
	<path class="st0" d="M1128.5,509.6v99.3c-17.6,12.1-36.8,29.4-57.2,53.9c-27.8,35.8-28.2,37.3-34.9,47.4
		c-8.1,13.6-16.4,7.3-16.4,7.3c-5-4.4-6-11.8-2.3-17.3l17.7-26.1l22-27.6c1.9-3.4,3.9-7.8,1.9-9.4c-1.9-1.5-4.4-3.4-8.5-0.2
		c-4.1,3.2-13.6,16.2-25.6,33.2c-5.6,8-8.8,12.6-12.2,17.5c-10.7,15.3-16.3,12.6-19.6,10.7c-3.9-2.3-3.2-8.8,4-19.1
		c2-3.8,3.7-5.9,15.1-21.9c0,0,15.7-23.2,22-31.5c2.7-3.5,5-7.3,1.4-9.9c-1.3-0.9-2.9-1.2-4.4-0.9c-1.5,0.3-2.9,1.1-3.8,2.4
		l-47.5,62.2c-3.7,5.3-8.1,7.3-13,3.1c-1.9-1.6-3.2-3.9-3.7-6.4c-0.5-2.8,0.1-5.8,1.8-8.1l56.4-76.5c14.8-20,41.9-45,74.6-65.2
		C1106.9,519.9,1117.6,514.2,1128.5,509.6z"/>
	<path class="st0" d="M916.1,883.9c28.4-38.4,56.4-76.5,56.4-76.5c1.6-2.4,2.2-5.3,1.7-8.1c-0.4-2.5-1.7-4.7-3.7-6.4
		c-4.9-4.2-9.3-2.2-13,3.1l-47.5,62.2c-0.9,1.2-2.2,2.1-3.8,2.4c-1.5,0.2-3.1-0.1-4.4-0.9c-3.5-2.6-1.2-6.4,1.4-9.9
		c6.4-8.2,22-31.5,22-31.5c11.4-16,13.1-18.1,15.1-21.9c7.2-10.3,7.9-16.8,4-19.1c-3.3-2-8.9-4.7-19.6,10.7
		c-3.4,4.9-6.6,9.5-12.2,17.5c-12,17-21.4,30-25.5,33.2c-4.1,3.2-6.6,1.4-8.5-0.2c-1.9-1.5,0-5.9,2-9.4l22-27.6l17.7-26.1
		c3.7-5.5,2.7-12.9-2.3-17.3c0,0-8.3-6.2-16.5,7.3c-6.7,10.1-7.1,11.6-34.9,47.4c-64.2,77-116.6,83.8-144.1,75.2
		c-5.7-3.5-11.7-6.8-18-9.8c-19.4-15.9-32.2-46.2-40.4-74.6c-7.7-27-35.8-42.7-62.8-35c-26.4,7.5-42.1,34.6-35.4,61.3
		c3.3,13,8.1,28.2,15.2,43.9c-16.9,5.5-33.1,13.4-48.8,23.2c-32.7,20.2-59.9,45.2-74.6,65.2l-56.4,76.5c-1.6,2.4-2.2,5.3-1.7,8.1
		c0.4,2.5,1.7,4.7,3.7,6.4c4.9,4.2,9.3,2.2,13-3.1l47.5-62.2c0.9-1.2,2.2-2.1,3.8-2.4c1.5-0.2,3.1,0.1,4.4,0.9
		c3.5,2.6,1.2,6.4-1.4,9.9c-6.4,8.2-22,31.5-22,31.5c-11.4,16-13.1,18.1-15.1,21.9c-7.2,10.3-7.9,16.8-4,19.1
		c3.3,2,8.9,4.7,19.6-10.7c3.4-4.9,6.6-9.5,12.2-17.5c12-17,21.4-30,25.5-33.2s6.6-1.4,8.5,0.2s0,5.9-2,9.4l-22,27.6l-17.7,26.1
		c-3.7,5.5-2.7,12.9,2.3,17.3c0,0,8.3,6.2,16.5-7.3c6.7-10.1,7.1-11.6,34.9-47.4c64.2-77,116.6-83.8,144.1-75.2
		c5.7,3.5,11.6,6.8,18,9.8c19.5,15.9,32.2,46.2,40.4,74.6c7.7,27,35.8,42.7,62.8,35c26.4-7.5,42.1-34.6,35.4-61.3
		c-3.3-13-8.1-28.2-15.2-43.9c16.9-5.5,33.1-13.4,48.8-23.2C874.1,928.9,901.3,903.9,916.1,883.9z"/>
	<path class="st0" d="M403,806.1c4.9,4.2,9.3,2.2,13-3.1l47.5-62.2c0.9-1.2,2.2-2.1,3.8-2.4c1.5-0.2,3.1,0.1,4.4,0.9
		c3.5,2.6,1.2,6.4-1.4,9.9c-6.4,8.2-22,31.5-22,31.5c-11.4,16-13.1,18.1-15.1,21.9c-7.2,10.3-7.9,16.8-4,19.1
		c3.3,2,8.9,4.7,19.6-10.7c3.4-4.9,6.6-9.5,12.2-17.5c12-17,21.4-30,25.5-33.2c4.1-3.2,6.6-1.4,8.5,0.2s0,5.9-2,9.4l-22,27.6
		l-17.7,26.1c-3.7,5.5-2.7,12.9,2.3,17.3c0,0,8.3,6.2,16.5-7.3c6.7-10.1,7.1-11.6,34.9-47.4c64.2-77,116.6-83.8,144.1-75.2
		c5.7,3.5,11.7,6.8,18,9.8c19.4,15.9,32.2,46.2,40.4,74.6c7.7,27,35.8,42.7,62.8,35c26.4-7.5,42.1-34.6,35.4-61.3
		c-3.3-13-8.1-28.2-15.2-43.9c16.9-5.5,33.1-13.4,48.8-23.2c32.7-20.2,59.9-45.2,74.6-65.2l56.4-76.5c1.6-2.4,2.2-5.3,1.7-8.1
		c-0.4-2.5-1.7-4.7-3.7-6.4c-4.9-4.2-9.3-2.2-13,3.1l-47.5,62.2c-0.9,1.2-2.2,2.1-3.8,2.4c-1.5,0.2-3.1-0.1-4.4-0.9
		c-3.5-2.6-1.2-6.4,1.4-9.9c6.4-8.2,22-31.5,22-31.5c11.4-16,13.1-18.1,15.1-21.9c7.2-10.3,7.9-16.8,4-19.1
		c-3.3-2-8.9-4.7-19.6,10.7c-3.4,4.9-6.6,9.5-12.2,17.5c-12,17-21.4,30-25.5,33.2c-4.1,3.2-6.6,1.4-8.5-0.2c-1.9-1.5,0-5.9,2-9.4
		l22-27.6l17.7-26.1c3.7-5.5,2.7-12.9-2.3-17.3c0,0-8.3-6.2-16.5,7.3c-6.7,10.1-7.1,11.6-34.9,47.4c-64.2,77-116.6,83.8-144.1,75.2
		c-5.7-3.5-11.7-6.8-18-9.8c-19.4-15.9-32.2-46.2-40.4-74.6c-7.7-27-35.8-42.7-62.8-35c-26.4,7.5-42.1,34.6-35.4,61.3
		c3.3,13,8.1,28.2,15.2,43.9c-16.9,5.5-33.1,13.4-48.8,23.2c-32.7,20.2-59.9,45.2-74.6,65.2l-56.4,76.5c-1.6,2.4-2.2,5.3-1.7,8.1
		C399.7,802.2,401,804.5,403,806.1z"/>
	<path class="st0" d="M1128.5,756.6v99.3c-17.6,12-36.8,29.4-57.2,53.9c-27.8,35.8-28.2,37.3-34.9,47.4c-8.1,13.6-16.4,7.3-16.4,7.3
		c-5-4.4-6-11.8-2.3-17.3l17.7-26.1l22-27.6c1.9-3.4,3.9-7.8,1.9-9.4c-1.9-1.5-4.4-3.4-8.5-0.1c-4.1,3.2-13.6,16.2-25.6,33.2
		c-5.6,8-8.8,12.6-12.2,17.5c-10.7,15.3-16.3,12.6-19.6,10.7c-3.9-2.3-3.2-8.8,4-19.1c2-3.8,3.7-5.9,15.1-21.9
		c0,0,15.7-23.2,22-31.5c2.7-3.5,5-7.3,1.4-9.9c-1.3-0.9-2.9-1.2-4.4-0.9c-1.5,0.3-2.9,1.1-3.8,2.4l-47.5,62.2
		c-3.7,5.3-8.1,7.4-13,3.1c-1.9-1.6-3.2-3.9-3.7-6.4c-0.5-2.8,0.1-5.7,1.8-8.1c0,0,28.1-38.1,56.4-76.5c14.8-20,41.9-45,74.6-65.2
		C1106.9,766.9,1117.6,761.2,1128.5,756.6z"/>
	<path class="st0" d="M408.2,930.9l-56.4,76.5c-14.8,20-41.9,45-74.6,65.2c-15.8,9.8-32,17.6-48.8,23.2c7,15.7,11.9,30.9,15.2,43.9
		c6.7,26.6-9,53.8-35.4,61.3c-27,7.7-55.1-8-62.8-35c-8.1-28.4-20.9-58.7-40.4-74.6c-6.4-2.9-12.4-6.2-18-9.8
		c-18.8-5.8-49.1-4.6-86.9,21.3v-99.3c5.5-2.4,11.1-4.5,16.7-6.3c-7.1-15.7-11.9-30.9-15.2-43.9c-6.7-26.6,9-53.8,35.4-61.3
		c27-7.7,55.1,8,62.8,35c8.2,28.4,20.9,58.7,40.4,74.6c6.4,2.9,12.4,6.2,18,9.8c27.5,8.6,79.9,1.8,144.1-75.2
		c27.8-35.8,28.2-37.3,34.9-47.4c8.1-13.6,16.4-7.3,16.4-7.3c5,4.4,6,11.8,2.3,17.3L338.3,925l-22,27.6c-1.9,3.4-3.9,7.8-1.9,9.4
		c1.9,1.5,4.4,3.4,8.6,0.2c4.1-3.2,13.5-16.2,25.5-33.2c5.6-8,8.8-12.6,12.2-17.5c10.7-15.3,16.3-12.6,19.6-10.7
		c3.9,2.3,3.2,8.8-4,19.1c-2,3.8-3.7,5.9-15.1,21.9c0,0-15.7,23.2-22,31.5c-2.7,3.5-5,7.3-1.4,9.9c1.3,0.8,2.9,1.2,4.4,0.9
		c1.5-0.3,2.9-1.1,3.8-2.4l47.5-62.2c3.7-5.3,8.1-7.4,13-3.1c1.9,1.6,3.2,3.9,3.7,6.4C410.5,925.6,409.8,928.5,408.2,930.9z"/>
	<path class="st0" d="M1128.5,1003.6v99.3c-17.6,12.1-36.8,29.4-57.2,53.9c-27.8,35.8-28.2,37.3-34.9,47.4
		c-8.1,13.6-16.4,7.3-16.4,7.3c-5-4.4-6-11.8-2.3-17.3l17.7-26.1l22-27.6c1.9-3.4,3.9-7.8,1.9-9.4c-1.9-1.5-4.4-3.4-8.5-0.2
		c-4.1,3.2-13.6,16.2-25.6,33.2c-5.6,8-8.8,12.6-12.2,17.5c-10.7,15.3-16.3,12.6-19.6,10.7c-3.9-2.3-3.2-8.8,4-19.1
		c2-3.8,3.7-5.9,15.1-21.9c0,0,15.7-23.2,22-31.5c2.7-3.5,5-7.3,1.4-9.9c-1.3-0.9-2.9-1.2-4.4-0.9c-1.5,0.3-2.9,1.1-3.8,2.4
		l-47.5,62.2c-3.7,5.3-8.1,7.4-13,3.1c-1.9-1.6-3.2-3.9-3.7-6.4c-0.5-2.8,0.1-5.7,1.8-8.1l56.4-76.5c14.8-20,41.9-45,74.6-65.2
		C1106.9,1013.9,1117.6,1008.2,1128.5,1003.6z"/>
	<path class="st0" d="M408.2,1177.9c0,0-28.1,38-56.4,76.5c-14.8,20-41.9,45-74.6,65.2c-15.8,9.8-32,17.6-48.8,23.2
		c7,15.7,11.9,30.9,15.2,43.9c6.7,26.6-9,53.8-35.4,61.3c-27,7.7-55.1-8-62.8-35c-8.2-28.4-20.9-58.7-40.4-74.6
		c-6.4-2.9-12.4-6.2-18-9.8c-18.8-5.8-49.1-4.6-86.9,21.3v-99.3c5.5-2.4,11.1-4.5,16.7-6.3c-7-15.7-11.9-30.9-15.2-43.9
		c-6.7-26.6,9-53.8,35.4-61.3c27-7.7,55.1,8,62.8,35c8.2,28.4,20.9,58.7,40.4,74.6c6.4,2.9,12.4,6.2,18,9.8
		c27.5,8.6,79.9,1.8,144.1-75.2c27.8-35.8,28.2-37.3,34.9-47.4c8.1-13.6,16.4-7.3,16.4-7.3c5,4.4,6,11.8,2.3,17.3l-17.7,26.1
		l-22,27.6c-1.9,3.4-3.9,7.8-1.9,9.4c1.9,1.5,4.4,3.4,8.6,0.2c4.1-3.2,13.5-16.2,25.5-33.2c5.6-8,8.8-12.6,12.2-17.5
		c10.7-15.3,16.3-12.6,19.6-10.7c3.9,2.3,3.2,8.8-4,19.1c-2,3.8-3.7,5.9-15.1,21.9c0,0-15.7,23.2-22,31.5c-2.7,3.5-5,7.3-1.4,9.9
		c1.3,0.9,2.9,1.2,4.4,0.9c1.5-0.3,2.9-1.2,3.8-2.4l47.5-62.2c3.7-5.3,8.1-7.3,13-3.1c1.9,1.6,3.2,3.9,3.7,6.3
		C410.5,1172.6,409.8,1175.5,408.2,1177.9z"/>
	<path class="st0" d="M406.3,1410.4c-4.9-4.2-9.3-2.2-13,3.1l-47.5,62.2c-0.9,1.2-2.2,2.1-3.8,2.4c-1.5,0.2-3.1-0.1-4.4-0.9
		c-3.5-2.6-1.2-6.4,1.4-9.9c6.4-8.2,22-31.5,22-31.5c11.4-16,13.1-18.1,15.1-21.9c7.2-10.3,7.9-16.8,4-19.1
		c-3.3-2-8.9-4.7-19.6,10.7c-3.4,4.9-6.6,9.5-12.2,17.5c-12,17-21.4,30-25.5,33.2s-6.6,1.4-8.5-0.2c-1.9-1.5,0-5.9,2-9.4l22-27.6
		l17.7-26.1c3.7-5.5,2.7-12.9-2.3-17.3c0,0-8.3-6.2-16.5,7.3c-6.7,10.1-7.1,11.6-34.9,47.4c-66.4,79.7-120.3,84.2-146.9,74.2
		c-28.3-10.1-45.5-48.1-55.6-83.4c-7.7-27-35.8-42.7-62.8-35c-26.4,7.5-42.1,34.6-35.4,61.3c11.9,46.9,44.1,123.5,128.6,147.3h0
		c56.2,11.8,103.2-0.9,147.1-28c32.7-20.2,59.9-45.2,74.6-65.2c28.4-38.4,56.4-76.5,56.4-76.5c1.6-2.4,2.2-5.3,1.7-8.1
		C409.5,1414.3,408.2,1412.1,406.3,1410.4z"/>
	<path class="st0" d="M974.2,1293.3c-0.4-2.5-1.7-4.7-3.7-6.4c-4.9-4.2-9.3-2.2-13,3.1l-47.5,62.2c-0.9,1.2-2.2,2.1-3.8,2.4
		c-1.5,0.2-3.1-0.1-4.4-0.9c-3.5-2.6-1.2-6.4,1.4-9.9c6.4-8.2,22-31.5,22-31.5c11.4-16,13.1-18.1,15.1-21.9
		c7.2-10.3,7.9-16.8,4-19.1c-3.3-2-8.9-4.7-19.6,10.7c-3.4,4.9-6.6,9.5-12.2,17.5c-12,17-21.4,30-25.5,33.2
		c-4.1,3.2-6.6,1.4-8.5-0.2c-1.9-1.5,0-5.9,2-9.4l22-27.6l17.7-26.1c3.7-5.5,2.7-12.9-2.3-17.3c0,0-8.3-6.2-16.5,7.3
		c-6.7,10.1-7.1,11.6-34.9,47.4c-66.4,79.7-120.3,84.2-146.9,74.2c-28.3-10.1-45.5-48.1-55.6-83.4c-7.7-27-35.8-42.7-62.8-35
		c-26.4,7.5-42.1,34.6-35.4,61.3c11.9,46.9,44.1,123.5,128.6,147.3h0c56.2,11.8,103.2-0.9,147.1-28c32.7-20.2,59.9-45.2,74.6-65.2
		c28.4-38.4,56.4-76.5,56.4-76.5C974.1,1299,974.7,1296.1,974.2,1293.3z"/>
	<path class="st0" d="M651.1,1205.1c5.7,3.5,11.7,6.8,18,9.8c19.4,15.9,32.2,46.2,40.4,74.6c7.7,27,35.8,42.7,62.8,35
		c26.4-7.5,42.1-34.6,35.4-61.3c-3.3-13-8.1-28.2-15.2-43.9c16.9-5.5,33.1-13.4,48.8-23.2c32.7-20.2,59.9-45.2,74.6-65.2l56.4-76.5
		c1.6-2.4,2.2-5.3,1.7-8.1c-0.4-2.5-1.7-4.7-3.7-6.4c-4.9-4.2-9.3-2.2-13,3.1l-47.5,62.2c-0.9,1.2-2.2,2.1-3.8,2.4
		c-1.5,0.2-3.1-0.1-4.4-0.9c-3.5-2.6-1.2-6.4,1.4-9.9c6.4-8.2,22-31.5,22-31.5c11.4-16,13.1-18.1,15.1-21.9
		c7.2-10.3,7.9-16.8,4-19.1c-3.3-2-8.9-4.7-19.6,10.7c-3.4,4.9-6.6,9.5-12.2,17.5c-12,17-21.4,30-25.5,33.2
		c-4.1,3.2-6.6,1.4-8.5-0.2c-1.9-1.5,0-5.9,2-9.4l22-27.6l17.7-26.1c3.7-5.5,2.7-12.9-2.3-17.3c0,0-8.3-6.2-16.5,7.3
		c-6.7,10.1-7.1,11.6-34.9,47.4c-64.2,77-116.6,83.8-144.1,75.2c-5.7-3.5-11.7-6.8-18-9.8c-19.4-15.9-32.2-46.2-40.4-74.6
		c-7.7-27-35.8-42.7-62.8-35c-26.4,7.5-42.1,34.6-35.4,61.3c3.3,13,8.1,28.2,15.2,43.9c-16.9,5.5-33.1,13.4-48.8,23.2
		c-32.7,20.2-59.9,45.2-74.6,65.2l-56.4,76.5c-1.6,2.4-2.2,5.3-1.7,8.1c0.4,2.5,1.7,4.7,3.7,6.4c4.9,4.2,9.3,2.2,13-3.1l47.5-62.2
		c0.9-1.2,2.2-2.1,3.8-2.4c1.5-0.2,3.1,0.1,4.4,0.9c3.5,2.6,1.2,6.4-1.4,9.9c-6.4,8.2-22,31.5-22,31.5c-11.4,16-13.1,18.1-15.1,21.9
		c-7.2,10.3-7.9,16.8-4,19.1c3.3,2,8.9,4.7,19.6-10.7c3.4-4.9,6.6-9.5,12.2-17.5c12-17,21.4-30,25.5-33.2c4.1-3.2,6.6-1.4,8.5,0.2
		s0,5.9-2,9.4l-22,27.6l-17.7,26.1c-3.7,5.5-2.7,12.9,2.3,17.3c0,0,8.3,6.2,16.5-7.3c6.7-10.1,7.1-11.6,34.9-47.4
		C571.2,1203.3,623.6,1196.5,651.1,1205.1z"/>
	<path class="st0" d="M1128.5,1250.6v99.3c-17.6,12.1-36.8,29.4-57.2,53.9c-27.8,35.8-28.2,37.3-34.9,47.4
		c-8.1,13.6-16.4,7.3-16.4,7.3c-5-4.4-6-11.8-2.3-17.3l17.7-26.1l22-27.6c1.9-3.4,3.9-7.8,1.9-9.4c-1.9-1.5-4.4-3.4-8.5-0.2
		c-4.1,3.2-13.6,16.2-25.6,33.2c-5.6,8-8.8,12.6-12.2,17.5c-10.7,15.3-16.3,12.6-19.6,10.7c-3.9-2.3-3.2-8.8,4-19.1
		c2-3.8,3.7-5.9,15.1-21.9c0,0,15.7-23.2,22-31.5c2.7-3.5,5-7.3,1.4-9.9c-1.3-0.9-2.9-1.2-4.4-0.9c-1.5,0.3-2.9,1.1-3.8,2.4
		l-47.5,62.2c-3.7,5.3-8.1,7.3-13,3.1c-1.9-1.6-3.2-3.9-3.7-6.4c-0.5-2.8,0.1-5.8,1.8-8.1c0,0,28.1-38,56.4-76.5
		c14.8-20,41.9-45,74.6-65.2C1106.9,1260.9,1117.6,1255.3,1128.5,1250.6z"/>
</g>
</svg>
