<?xml version="1.0" encoding="UTF-8"?>
<!-- Generator: Adobe Illustrator 27.0.0, SVG Export Plug-In . SVG Version: 6.00 Build 0)  -->
<svg xmlns="http://www.w3.org/2000/svg" xmlns:xlink="http://www.w3.org/1999/xlink" version="1.1" id="Layer_1" x="0px" y="0px" viewBox="0 0 300 300" style="enable-background:new 0 0 300 300;" xml:space="preserve">
<style type="text/css">
	.st0{fill-rule:evenodd;clip-rule:evenodd;fill:#FFFFFF;}
	.st1{fill:#FFFFFF;}
	.st2{display:none;}
	.st3{display:inline;fill:#41413F;}
	.st4{display:inline;}
	.st5{fill:#41413F;}
</style>
<g id="Group_597" transform="translate(10421.984 -3420.558)">
	<path id="Path_1" class="st0" d="M-10368.6,3597.8L-10368.6,3597.8z M-10330.6,3559.9c0,19.3-14.5,35.5-33.6,37.7v-32.3h21.7v-9.8   h-54.2v9.8h22.8v32.2c-18.7-2.7-32.5-18.7-32.5-37.6c0-21,17-38,38-38l0,0C-10347.6,3521.9-10330.6,3538.9-10330.6,3559.9   L-10330.6,3559.9z"></path>
	<path id="Path_2" class="st1" d="M-10291,3596.8c-5,0-8.9-1.2-11.8-3.6c-2.9-2.4-4.4-6.8-4.4-13v-25h-8.7v-9.1h8.7l1.3-12.9h9.5   v12.9h14.3v9.1h-14.3v25c0,2.8,0.6,4.7,1.7,5.8c1.2,1,3.3,1.5,6.2,1.5h5.8v9.2L-10291,3596.8z"></path>
	<path id="Path_3" class="st1" d="M-10257.3,3589.2c2.6,0.1,5.2-0.6,7.3-2c2-1.4,3.7-3.4,4.7-5.6c1.2-2.4,1.9-5,2.1-7.7h-12   c-4.3,0-7.3,0.7-9.2,2.2c-1.7,1.4-2.7,3.4-2.7,5.6c-0.1,2.1,0.9,4.2,2.6,5.5C-10262.7,3588.6-10260.3,3589.2-10257.3,3589.2z    M-10259.5,3598c-4.3,0-7.8-0.7-10.6-2.1c-2.6-1.2-4.7-3.2-6.2-5.6c-1.4-2.4-2.1-5-2-7.8c-0.2-4.6,2-9,5.7-11.6   c3.8-2.9,9.2-4.3,16.3-4.3h13.3v-0.9c0-3.9-1.1-6.9-3.3-8.9c-2.3-2-5.2-3.1-8.3-3c-2.8-0.1-5.5,0.7-7.9,2.2c-2.2,1.5-3.7,3.8-4,6.4   h-10.8c0.2-3.4,1.5-6.7,3.7-9.4s5-4.7,8.2-6c3.5-1.5,7.2-2.2,10.9-2.1c7.1,0,12.6,1.9,16.4,5.6c3.9,3.7,5.8,8.7,5.8,15.1v31.1h-9.4   l-0.9-8.7c-1.5,2.8-3.6,5.2-6.2,7C-10251.5,3597-10255.1,3598-10259.5,3598L-10259.5,3598z"></path>
	<rect id="Rectangle_1" x="-10225.2" y="3523.3" class="st1" width="10.8" height="73.5"></rect>
	<rect id="Rectangle_2" x="-10206.3" y="3523.3" class="st1" width="10.8" height="73.5"></rect>
	<path id="Path_4" class="st1" d="M-10181.5,3619.2l12.1-26.6h-3l-20-46.4h11.7l15.5,37.5l16.2-37.5h11.4l-32.7,73.1h-11.2V3619.2z"></path>
</g>
<g class="st2">
	<path class="st3" d="M45.8,125c0,0.2-0.1,0.4-0.3,0.5l-8.5,7.2c-0.2,0.1-0.4,0.2-0.6,0.1c-0.2,0-0.4-0.2-0.5-0.4   c-0.6-1.4-1.2-2.6-1.9-3.7c-0.5-0.9-1.1-1.6-1.8-2.4c-0.7-0.7-1.5-1.3-2.5-1.8s-1.9-0.6-2.8-0.4c-1.6,0.3-2.8,1.8-3.6,4.3   c-0.9,2.6-1.1,5.5-0.6,8.7c0.6,3.6,1.9,6.7,4.1,9.2c2.1,2.5,5,4,8.5,4.5c0.8,0.1,1.6,0.1,2.4,0.1c3,0,5.6-0.7,8-2   c0.4-0.2,0.7-0.1,1,0.2s0.3,0.6,0,0.9c-3.7,4.4-9.2,6.6-16.5,6.6c-6,0-10.9-1.7-14.8-5s-5.9-7.9-5.9-13.8s2-10.4,5.9-13.8   c3.9-3.3,8.9-5,14.8-5c6.6,0,11.8,1.8,15.4,5.4C45.7,124.6,45.8,124.7,45.8,125z"></path>
	<path class="st3" d="M71.7,126.9c-2-2.2-3.9-3.2-5.7-2.7c-1.8,0.4-3.1,2.1-3.9,4.9c-0.8,3.1-0.7,6.5,0.2,10.4s2.4,7,4.4,9.4   c2,2.2,3.9,3.2,5.7,2.7c1.8-0.4,3.1-2.1,3.9-5c0.8-3.1,0.7-6.5-0.2-10.4C75.3,132.3,73.8,129.2,71.7,126.9z M69.2,156.6   c-3.9,0-7.4-0.7-10.5-2.1c-3.1-1.4-5.6-3.6-7.4-6.5c-1.9-2.9-2.8-6.3-2.8-10.1c0-5.8,2-10.4,5.9-13.8c3.9-3.3,8.9-5,14.8-5   c3.9,0,7.4,0.7,10.5,2.1s5.6,3.6,7.5,6.4c1.9,2.9,2.8,6.3,2.8,10.2c0,5.8-2,10.4-5.9,13.8C80.2,154.9,75.2,156.6,69.2,156.6z"></path>
	<path class="st3" d="M95.2,146.3V115l-2.4-4.1c-0.1-0.2-0.1-0.4,0-0.6s0.2-0.3,0.5-0.4l2.5-0.9h0.1l12.2-3.3c0.2,0,0.5,0,0.6,0.1   c0.2,0.1,0.3,0.3,0.3,0.6v13.5h9.2c0.2,0,0.4,0.1,0.5,0.2s0.2,0.3,0.2,0.5v9c0,0.3-0.1,0.5-0.3,0.6c-0.2,0.1-0.4,0.1-0.7,0l-9-3.8   v17.4c0,1.9,0.5,3.3,1.4,4.1s2.1,1.1,3.4,0.8s2.6-1,4-2.2c0.2-0.2,0.5-0.2,0.8-0.1c0.3,0.1,0.4,0.3,0.4,0.7v5.3   c0,0.2-0.1,0.4-0.3,0.6c-1.2,1-2.5,1.8-3.9,2.3c-1.3,0.5-2.7,0.9-4,1.2c-1.4,0.2-2.9,0.4-4.8,0.4c-1.7,0-3.2-0.2-4.5-0.7   s-2.4-1.1-3.3-2s-1.6-1.9-2.1-3.3C95.4,149.6,95.2,148.1,95.2,146.3z"></path>
	<path class="st3" d="M127.4,148v-31.4l-2.4-4.1c-0.1-0.2-0.1-0.4,0-0.6s0.2-0.3,0.5-0.4l2.5-0.9h0.1l12.2-3.3c0.2,0,0.5,0,0.6,0.1   c0.2,0.1,0.3,0.3,0.3,0.6v13.5h9.2c0.2,0,0.4,0.1,0.5,0.2s0.2,0.3,0.2,0.5v9c0,0.3-0.1,0.5-0.3,0.6s-0.4,0.1-0.7,0l-9-3.8v17.4   c0,1.9,0.5,3.3,1.4,4.1s2.1,1.1,3.4,0.8c1.3-0.3,2.6-1,4-2.2c0.2-0.2,0.5-0.2,0.8-0.1c0.3,0.1,0.4,0.3,0.4,0.7v5.3   c0,0.2-0.1,0.4-0.3,0.6c-1.2,1-2.5,1.8-3.9,2.3c-1.3,0.5-2.7,0.9-4,1.2c-1.4,0.2-2.9,0.4-4.8,0.4c-1.7,0-3.2-0.2-4.5-0.7   s-2.4-1.1-3.3-2c-0.9-0.9-1.6-1.9-2.1-3.3C127.7,151.2,127.4,149.7,127.4,148z"></path>
	<path class="st3" d="M220.6,154.7l2-5v-18.8c0-1.4-0.3-2.3-1-2.7c-0.9-0.5-2.5-0.1-4.7,1.1c-1.2,0.7-2.3,1.4-3.4,2.3v18.1l2,5   c0.1,0.2,0.1,0.5-0.1,0.7c-0.1,0.2-0.3,0.3-0.6,0.3h-16.3c-0.3,0-0.5-0.1-0.6-0.3s-0.2-0.4-0.1-0.7l1.9-4.7v-21.1l-2.3-3.8   c-0.1-0.2-0.1-0.4,0-0.6s0.2-0.4,0.4-0.4l14.8-4.1c0.2-0.1,0.5-0.1,0.6,0.1c0.2,0.1,0.3,0.3,0.3,0.6v3.8c2.2-1.7,3.9-2.9,5.2-3.7   c2.1-1.1,4.6-1.7,7.4-1.7c3.1,0,5.6,1,7.3,2.8c1.8,1.8,2.7,4.3,2.7,7.4v20.4l2,5c0.1,0.2,0.1,0.5-0.1,0.7c-0.1,0.2-0.3,0.3-0.6,0.3   h-16.3c-0.3,0-0.5-0.1-0.6-0.3C220.5,155.2,220.5,155,220.6,154.7z"></path>
	<path class="st3" d="M45.8,167.8c0,0.2-0.1,0.4-0.3,0.5l-8.5,7.2c-0.2,0.1-0.4,0.2-0.6,0.1c-0.2,0-0.4-0.2-0.5-0.4   c-0.6-1.4-1.2-2.6-1.9-3.7c-0.5-0.9-1.1-1.6-1.8-2.4c-0.7-0.7-1.5-1.3-2.5-1.8s-1.9-0.6-2.8-0.4c-1.6,0.3-2.8,1.8-3.6,4.3   c-0.9,2.6-1.1,5.5-0.6,8.7c0.6,3.6,1.9,6.7,4.1,9.2c2.1,2.5,5,4,8.5,4.5c0.8,0.1,1.6,0.1,2.4,0.1c3,0,5.6-0.7,8-2   c0.4-0.2,0.7-0.1,1,0.2s0.3,0.6,0,0.9c-3.7,4.4-9.2,6.6-16.5,6.6c-6,0-10.9-1.7-14.8-5s-5.9-7.9-5.9-13.7s2-10.4,5.9-13.8   c3.9-3.3,8.9-5,14.8-5c6.6,0,11.8,1.8,15.4,5.4C45.7,167.4,45.8,167.6,45.8,167.8z"></path>
	<path class="st3" d="M71.7,169.7c-2-2.2-3.9-3.2-5.7-2.7c-1.8,0.4-3.1,2.1-3.9,4.9c-0.8,3.1-0.7,6.5,0.2,10.4s2.4,7,4.4,9.4   c2,2.2,3.9,3.2,5.7,2.7c1.8-0.4,3.1-2.1,3.9-5c0.8-3.1,0.7-6.5-0.2-10.4C75.3,175.2,73.8,172.1,71.7,169.7z M69.2,199.4   c-3.9,0-7.4-0.7-10.5-2.1c-3.1-1.4-5.6-3.6-7.4-6.5c-1.9-2.9-2.8-6.3-2.8-10.1c0-5.8,2-10.4,5.9-13.8c3.9-3.3,8.9-5,14.8-5   c3.9,0,7.4,0.7,10.5,2.1c3.1,1.4,5.6,3.6,7.5,6.4c1.9,2.9,2.8,6.3,2.8,10.2c0,5.8-2,10.4-5.9,13.7   C80.2,197.8,75.2,199.4,69.2,199.4z"></path>
	<path class="st3" d="M115.1,197.6l2-5v-18.8c0-1.6-0.3-2.6-1-2.9c-0.8-0.4-2.2,0-4.1,1.3c-1,0.6-2,1.3-3.1,2.3c0,2,0,5,0,9   s0,7.1,0,9.1l2,5c0.1,0.2,0.1,0.5-0.1,0.7c-0.1,0.2-0.3,0.3-0.6,0.3H94.1c-0.3,0-0.5-0.1-0.6-0.3s-0.2-0.4-0.1-0.7l2-5v-21.2   l-2.5-3.3c-0.1-0.2-0.2-0.4-0.1-0.6c0.1-0.2,0.2-0.4,0.5-0.5l2.5-0.8h0.1l12.2-3.3c0.2-0.1,0.5-0.1,0.6,0.1   c0.2,0.1,0.3,0.3,0.3,0.6v3.8c1.9-1.6,3.2-2.6,3.9-3.1c2.2-1.6,4.9-2.3,8.1-2.3c1.4,0,2.7,0.3,3.9,0.7c1.2,0.4,2.2,1.1,3.2,2   c0.9,0.9,1.6,2,2.1,3.3c2.5-2.1,4-3.3,4.7-3.7c2.3-1.6,5-2.3,8.2-2.3c2.2,0,4.2,0.6,5.8,1.7c2.7,1.8,4,4.7,4,8.5v21.1l1.7,4.3   c0.1,0.2,0.1,0.5-0.1,0.7c-0.1,0.2-0.3,0.3-0.6,0.3h-16c-0.3,0-0.5-0.1-0.6-0.3s-0.2-0.4-0.1-0.7l2.1-5v-18.8   c0-1.6-0.4-2.6-1.1-2.9c-0.8-0.4-2.2,0-4.1,1.3c-1,0.6-2,1.4-3.2,2.4v18.8l1.7,4.3c0.1,0.2,0.1,0.5-0.1,0.7   c-0.1,0.2-0.4,0.3-0.6,0.3h-16c-0.2,0-0.4-0.1-0.6-0.3C115,198,115,197.8,115.1,197.6z"></path>
	<path class="st3" d="M170.1,157.6c0.8,1.5,2.2,3.2,4.2,5.2h9.7c0.2,0,0.4,0.1,0.5,0.2c0.1,0.1,0.2,0.3,0.2,0.5v9   c0,0.3-0.1,0.5-0.3,0.6s-0.4,0.1-0.7,0l-8.9-3.8v23.3l2,5c0.1,0.2,0.1,0.5-0.1,0.7c-0.1,0.2-0.4,0.3-0.6,0.3h-16.3   c-0.2,0-0.4-0.1-0.6-0.3c-0.1-0.2-0.2-0.4-0.1-0.7l2-5V159c0-3.7,1.3-6.5,3.9-8.3c2.6-1.8,5.9-2.7,9.7-2.5c4.1,0.1,7.3,1.1,9.6,2.9   c0.2,0.1,0.3,0.3,0.3,0.6v8.7c0,0.3-0.1,0.6-0.4,0.7c-0.3,0.1-0.5,0.1-0.7-0.1c-3.3-2.9-6.4-4.8-9.2-5.7c-2.4-0.9-3.9-0.9-4.5-0.1   C169.4,155.6,169.5,156.5,170.1,157.6z"></path>
	<path class="st3" d="M210.6,169.7c-2-2.2-3.9-3.2-5.7-2.7c-1.8,0.4-3.1,2.1-3.9,4.9c-0.8,3.1-0.7,6.5,0.2,10.4s2.4,7,4.4,9.4   c2,2.2,3.9,3.2,5.7,2.7s3.1-2.1,3.9-5c0.8-3.1,0.7-6.5-0.2-10.4C214.1,175.2,212.7,172.1,210.6,169.7z M208.1,199.4   c-3.9,0-7.4-0.7-10.5-2.1c-3.1-1.4-5.6-3.6-7.4-6.5c-1.9-2.9-2.8-6.3-2.8-10.1c0-5.8,2-10.4,5.9-13.8c3.9-3.3,8.9-5,14.8-5   c3.9,0,7.4,0.7,10.5,2.1c3.1,1.4,5.6,3.6,7.5,6.4c1.9,2.9,2.8,6.3,2.8,10.2c0,5.8-2,10.4-5.9,13.7   C219,197.8,214.1,199.4,208.1,199.4z"></path>
	<path class="st3" d="M233,197.6l2-5V172l-2.4-4c-0.1-0.2-0.1-0.4,0-0.6c0.1-0.2,0.2-0.4,0.5-0.5l2.5-0.8h0.1l12.2-3.3   c0.2-0.1,0.5-0.1,0.6,0.1c0.2,0.1,0.3,0.3,0.3,0.6v2.6c1.7-1.5,3.6-2.7,5.7-3.4c2.4-0.9,4.7-1,6.7-0.4c0.3,0.1,0.5,0.3,0.5,0.7   v10.8c0,0.3-0.1,0.6-0.4,0.7c-0.3,0.1-0.5,0.1-0.8-0.2c-1.9-2-4.2-2.7-7-2.1c-1.1,0.2-2,0.6-2.9,1.1c-0.9,0.6-1.5,1.3-1.6,2.1   c0,0.2-0.1,0.4-0.1,0.6v16.5l2,5c0.1,0.2,0.1,0.5-0.1,0.7c-0.1,0.2-0.3,0.3-0.6,0.3h-16.3c-0.3,0-0.5-0.1-0.6-0.3   C232.9,198,232.9,197.8,233,197.6z"></path>
	<path class="st3" d="M266.7,189.2v-31.4l-2.4-4.1c-0.1-0.2-0.1-0.4,0-0.6c0.1-0.2,0.2-0.3,0.5-0.4l2.5-0.9h0.1l12.2-3.3   c0.2,0,0.5,0,0.6,0.1c0.2,0.1,0.3,0.3,0.3,0.6v13.5h9.2c0.2,0,0.4,0.1,0.5,0.2c0.1,0.1,0.2,0.3,0.2,0.5v9c0,0.3-0.1,0.5-0.3,0.6   c-0.2,0.1-0.4,0.1-0.7,0l-9-3.8v17.4c0,1.9,0.5,3.3,1.4,4.1s2.1,1.1,3.4,0.8s2.6-1,4-2.2c0.2-0.2,0.5-0.2,0.8-0.1   c0.3,0.1,0.4,0.3,0.4,0.7v5.3c0,0.2-0.1,0.4-0.3,0.6c-1.2,1-2.5,1.8-3.9,2.3c-1.3,0.5-2.7,0.9-4,1.2c-1.4,0.2-2.9,0.4-4.8,0.4   c-1.7,0-3.2-0.2-4.5-0.7s-2.4-1.1-3.3-2s-1.6-1.9-2.1-3.3C267,192.4,266.7,190.9,266.7,189.2z"></path>
	<path class="st3" d="M186.5,113.1c-0.3,2.4-1.3,4.5-3,6.1l0,0c-0.9,0.9-3,3-7.6,3.5c1-3.3,0.3-4.9-2.3-9.4   c-2.6,4.5-3.2,6.1-2.3,9.4c-4.5-0.6-6.6-2.6-7.5-3.5l0,0c-1.7-1.7-2.7-3.8-3-6.1c-0.3-2.4,0-4.5,0.8-6.2c0.8-1.5,2-2.6,3.5-3   c1.5-0.5,3-0.3,4.6,0.5s3,2.2,4,4.2c1.1-1.9,2.4-3.3,4-4.2c1.5-0.8,3.1-0.9,4.6-0.5c1.5,0.5,2.7,1.5,3.5,3   C186.5,108.5,186.8,110.6,186.5,113.1z M189.2,121.8c1.1-1.2,2-2.6,2.6-4.1s0.9-3.1,0.9-4.7s-0.3-3.1-0.9-4.7   c-0.6-1.5-1.5-2.9-2.6-4.1s-2.6-2.1-4.4-2.9c-1.8-0.7-3.9-1.1-6.1-1.1c-3.2,0-4.8,2-4.9,2l-0.3,0.4l-0.3-0.4c0,0-1.7-2-4.9-2   c-2.2,0-4.3,0.4-6.1,1.1s-3.3,1.7-4.4,2.9c-1.1,1.2-2,2.6-2.6,4.1s-0.9,3.1-0.9,4.7s0.3,3.1,0.9,4.7c0.6,1.5,1.5,2.9,2.6,4.1   c0.9,1,2,1.8,3.4,2.4c-2,0-3.8,0.2-4.5,0.3c3.9,4.3,6.9,4.5,11.1,4.5c0.8,0,1.5,0.5,1.8,1.2c0.3,0.8,0.8,1.4,1.5,1.9   c0.6,0.4,0.9,1.2,0.7,2c-0.8,2.7-2.7,6.2-7.5,7.6c-0.6,0.2-1,0.8-0.9,1.4c0.1,0.5,0.6,0.9,1.1,0.9c0.1,0,0.2,0,0.3,0   c4.5-1.3,7.6-4.4,9-8.9c0.2-0.5,0.3-1,0.4-1.5c0.1-0.5,0.4-0.9,0.9-1.2c0.9-0.5,1.6-1.2,1.9-2.1c0.3-0.8,1-1.3,1.8-1.3h0.1   c4.3,0,7.2-0.2,11.2-4.5c-0.7-0.1-2.5-0.3-4.5-0.3C187.2,123.6,188.4,122.8,189.2,121.8z"></path>
</g>
<g class="st2">
	<path class="st3" d="M79.8,170.6c-0.2-0.2-0.3-0.3-0.5-0.3c-0.3,0-0.4,0.1-0.6,0.4c-0.4,0.6-0.9,1.1-1.2,1.7   c-0.7,0.9-1.5,1.3-2.6,1.3c-1.6,0-2.3-1-2.3-2.5s0.1-2.5,0.1-4.2v-9.7v-17.1c0-1-0.6-1.5-1.4-1.5h-1.4c-1.3,0-2-0.8-2-1.9   c0-1.1,0.8-1.8,2.2-2.2c2.9-0.9,5-1.4,6.6-1.8c1.1-0.3,1.7-0.4,2.3-0.4c1,0,1.8,0.7,1.8,2v9.1v4.9c0,0.4,0.1,0.6,0.5,0.6   c0.2,0,0.3-0.1,0.4-0.3c1.4-2,4.1-4.1,8.2-4.1c7.2,0,11.1,5.9,11.1,14c0,9.6-4.9,15.5-12.4,15.5C84.3,174.2,81.5,172.7,79.8,170.6    M92.6,160.8c0-7.2-2.8-10.2-6.6-10.2c-3.3,0-5.6,2.3-5.6,6.2v6.4c0,4.2,2.6,6,5.7,6C90.3,169.1,92.6,166.1,92.6,160.8"></path>
	<path class="st3" d="M104,159.5c0-9.4,7.9-14.7,15.6-14.7c8.6,0,14.4,5.7,14.4,14.9c0,9.4-7.7,14.6-15.4,14.6   C109.9,174.2,104,168.6,104,159.5 M126.1,161.1c0-6.2-3.4-11-7.8-11c-3.7,0-6.2,2.8-6.2,7.7c0,6.2,3.4,10.8,7.9,10.8   C123.5,168.6,126.1,165.9,126.1,161.1"></path>
	<path class="st3" d="M155.6,153.8c-1.9,0-3.8-1-5.1-1.2c-0.6-0.1-0.8,0-1.1,0.2c-0.5,0.4-0.7,1-0.7,2.1v5.6v7.6   c0,0.9,0.5,1.1,1.2,1.1h2.9c1.1,0,2,0.8,2,2.2s-0.8,2.3-2.2,2.3h-7.7h-6.8c-1.2,0-2.1-1-2.1-2.4c0-1.3,0.9-2.1,2-2.1h1.5   c0.7,0,1.2-0.3,1.2-1.2v-8.1v-7c0-1-0.6-1.5-1.4-1.5h-1.4c-1.2,0-2-0.9-2-2s0.8-1.8,2.2-2.2c2.9-0.9,4.5-1.4,6.1-1.9   c1-0.3,1.7-0.5,2.3-0.5c1,0,1.8,0.7,1.8,1.9c0,1,0.1,1.6,0.1,2c0,0.6,0.6,0.8,0.9,0.2c0.9-1.6,1.8-2.7,3-3.5   c0.9-0.6,1.9-0.9,3.1-0.9c2.6,0,4.4,1.8,4.4,4.4C159.7,151.9,157.9,153.8,155.6,153.8"></path>
	<path class="st3" d="M160.6,159.5c0-9.4,7.9-14.7,15.6-14.7c8.6,0,14.4,5.7,14.4,14.9c0,9.4-7.7,14.6-15.4,14.6   C166.5,174.2,160.6,168.6,160.6,159.5 M182.7,161.1c0-6.2-3.4-11-7.8-11c-3.7,0-6.2,2.8-6.2,7.7c0,6.2,3.4,10.8,7.9,10.8   C180.1,168.6,182.7,165.9,182.7,161.1"></path>
	<path class="st3" d="M192.5,171.3c0-1.3,0.9-2.1,2-2.1h1.5c0.7,0,1.2-0.3,1.2-1.2v-7.6v-8.9c0-0.9-0.4-1.2-1.2-1.2h-1.4   c-1.6,0-2.4-0.8-2.4-2.4c0-1.6,1-2.5,2.7-2.5h1.6c0.5,0,0.8-0.2,0.8-0.8c0-1-0.6-1.7-0.6-3.6c0-4.2,3-8.1,9.1-8.1   c5.2,0,7.9,2.4,7.9,5.3c0,1.9-1.4,3.2-3.3,3.2c-1.3,0-2.1-0.5-2.6-1c-0.7-0.7-1.2-1.5-2.6-1.5c-1.6,0-2.6,1.1-2.6,2.8   c0,2.6,1.7,3.6,3.8,3.6h3.8c1.8,0,2.5,0.9,2.5,2.5c-0.1,1.6-1,2.5-2.6,2.5h-3.6c-0.8,0-1.2,0.2-1.2,1.1v8.8v7.8   c0,0.9,0.5,1.1,1.2,1.1h3.5c1.1,0,2,0.8,2,2.2c0,1.3-0.8,2.3-2.1,2.3h-8.2h-6.9C193.3,173.7,192.5,172.7,192.5,171.3"></path>
	<path class="st3" d="M233.7,153.8c-1.9,0-3.8-1-5.1-1.2c-0.6-0.1-0.8,0-1.1,0.2c-0.5,0.4-0.7,1-0.7,2.1v5.6v7.6   c0,0.9,0.5,1.1,1.2,1.1h2.9c1.1,0,2,0.8,2,2.2s-0.8,2.3-2.2,2.3H223h-6.8c-1.2,0-2.1-1-2.1-2.4c0-1.3,0.9-2.1,2-2.1h1.5   c0.7,0,1.2-0.3,1.2-1.2v-8.1v-7c0-1-0.6-1.5-1.4-1.5H216c-1.2,0-2-0.9-2-2s0.8-1.8,2.2-2.2c2.9-0.9,4.5-1.4,6.1-1.9   c1-0.3,1.7-0.5,2.3-0.5c1,0,1.8,0.7,1.8,1.9c0,1,0.1,1.6,0.1,2c0,0.6,0.6,0.8,0.9,0.2c0.9-1.6,1.8-2.7,3-3.5   c0.9-0.6,1.9-0.9,3.1-0.9c2.6,0,4.4,1.8,4.4,4.4C237.7,151.9,236,153.8,233.7,153.8"></path>
	<path class="st3" d="M238.7,159.9c0-9.5,7-15.2,15.2-15.2c7.9,0,12.4,4.9,12.4,12.4c0,2.4-1,3.4-3.6,3.4h-8.2h-6.7   c-0.9,0-1.1,0.4-1,1.3c0.6,4.4,3.9,6.4,8.1,6.4c3.6,0,5.5-1,7.7-3.7c0.3-0.4,0.8-0.6,1.3-0.6c1,0,1.9,0.7,1.9,1.7   c0,0.2-0.1,0.5-0.1,0.7c-1.3,4.4-5.4,8-12.3,8C244,174.2,238.7,168.8,238.7,159.9 M252,156.2h5c1,0,1.4-0.3,1.4-1.4   c0-2.4-1.9-4.8-5.5-4.8s-5.8,2.4-6.3,5c-0.2,1,0.2,1.3,1.1,1.3h4.3V156.2z"></path>
	<path class="st3" d="M269.7,159.9c0-9.5,7-15.2,15.2-15.2c7.9,0,12.4,4.9,12.4,12.4c0,2.4-1,3.4-3.6,3.4h-8.2h-6.7   c-0.9,0-1.1,0.4-1,1.3c0.6,4.4,3.9,6.4,8.1,6.4c3.6,0,5.5-1,7.7-3.7c0.3-0.4,0.8-0.6,1.3-0.6c1,0,1.9,0.7,1.9,1.7   c0,0.2-0.1,0.5-0.1,0.7c-1.3,4.4-5.4,8-12.3,8C275,174.2,269.7,168.8,269.7,159.9 M283,156.2h5c1,0,1.4-0.3,1.4-1.4   c0-2.4-1.9-4.8-5.5-4.8s-5.8,2.4-6.3,5c-0.2,1,0.2,1.3,1.1,1.3h4.3V156.2z"></path>
	<path class="st3" d="M20.4,127.9c0,5.1-4.2,9.3-9.3,9.3s-9.3-4.2-9.3-9.3c0-5.1,4.2-9.3,9.3-9.3C16.2,118.6,20.4,122.8,20.4,127.9"></path>
	<path class="st3" d="M46.8,159.3c0-12.2-9.9-22.1-22.1-22.1H5c-1.3,0-2.4,1.1-2.4,2.4v18.6l0,0c0,0.4,0,0.7,0,1.1   c0,12.2,9.9,22.1,22.1,22.1C36.9,181.4,46.8,171.5,46.8,159.3 M34,159.3c0,5.1-4.2,9.3-9.3,9.3s-9.3-4.2-9.3-9.3s4.2-9.3,9.3-9.3   C29.9,150,34,154.2,34,159.3"></path>
</g>
<g class="st2">
	<g class="st4">
		<path class="st5" d="M132.3,102.6c-1.5,0-3-0.1-4.4-0.2c-7.8-0.9-13.1-4.2-15-9.4c-1.9-5.1,0.1-11.1,5.5-16.8    c4.8-5.1,12-9.6,20.3-12.6c8.2-3,16.6-4.2,23.6-3.4c7.8,0.9,13.1,4.2,15,9.4l0,0c1.9,5.1-0.1,11.1-5.5,16.8    c-4.8,5.1-12,9.6-20.3,12.6C145,101.3,138.3,102.6,132.3,102.6z M158,66.6c-4.9,0-10.7,1-17,3.3c-7.3,2.7-13.6,6.5-17.7,10.9    c-3.5,3.7-5,7.4-4.1,10s4.4,4.4,9.5,5c6,0.7,13.3-0.4,20.6-3c15.3-5.6,23.8-15.5,21.8-20.9C169.9,68.6,165,66.6,158,66.6z"></path>
	</g>
	<g class="st4">
		<g>
			<g>
				<path class="st5" d="M99.5,99.5l7.8,0.1v19.2c0.9-1.9,5-4.7,9.6-4.7c10.6,0,12.4,8.4,12.4,13.7v19.5h-7.8V129      c0-6.3-2.9-8.4-6.6-8.4s-7.7,2.8-7.7,8.4v18.4h-7.7L99.5,99.5z"></path>
				<path class="st5" d="M133.3,131.1c0-11.4,7.9-17.1,16.6-17.1c8.7,0,16.8,5.7,15.8,18.8l-24.9,0.3c0,2.6,2.1,8.5,8.6,8.8      c4.9,0.2,7.7-2.2,9.1-5l6.8,2c-1.6,4-6.8,9.2-15.3,9.2C139.5,148,133.3,140.4,133.3,131.1z M141.2,127.2l16.8-0.1      c0-3.1-3.2-7.3-9.4-6.8C144.8,120.6,141.6,123.5,141.2,127.2z"></path>
				<path class="st5" d="M178,147.5h-7.7V99.6h7.7V147.5z"></path>
				<path class="st5" d="M182.9,114.9l6.8,0.1l0.3,3.4c1.9-2.8,5.2-4.5,10-4.5c7.1,0,15.9,6.6,15,18.9c-0.8,10.5-7.9,14.7-13.8,15.4      c-3.3,0.4-7.9-0.3-11.2-3.6l0.1,15.5l-7.2,0.1L182.9,114.9z M198.9,141.5c5,0.1,9.1-4.4,9.1-10.4c0-5.6-3.9-10.5-9.4-10.2      c-7,0.3-8.8,6.1-8.8,10.3C189.8,136.9,193,141.4,198.9,141.5z"></path>
			</g>
		</g>
		<path class="st5" d="M106.2,154.2v4.6c0.6-0.9,3.7-5,8.4-5.6c6.6-0.9,9.8,3.1,10.9,5.8c1.4-2.8,4.5-5.2,9.3-5.8    c9-1.2,12.4,6.4,12.4,11.9v21.3H140v-18.7c0-4.1-0.9-7.9-5.1-7.9c-5.2,0-7.9,3.9-7.9,9.6v17.1h-7.2v-16.9c0-5.2-0.7-9.8-5.6-9.8    c-5.2,0-7.7,3.8-7.7,11.1v15.5h-7.2v-32.3L106.2,154.2L106.2,154.2z"></path>
		<path class="st5" d="M79.3,179.1L96.9,226h-8.2l-4.1-11.8H65.4L61.2,226H53l17.8-47L79.3,179.1z M74.8,187.2l-7.3,20.1h14.7    L74.8,187.2z"></path>
		<path class="st5" d="M106.6,193.6v4.6c0.6-0.9,3.3-4.9,8.3-5.5c7-0.9,11,2.5,12.6,5.8c0.9,2,1.4,4.7,1.4,10.4V226h-7.5v-17.4    c0-5.6-0.9-9.4-7.9-9.1c-2.9,0.1-6.6,3.3-6.6,10.4v16.2h-7.3v-32.3h7V193.6z"></path>
		<path class="st5" d="M170.3,209.6c0-11.4,7.9-17.1,16.6-17.1c8.7,0,16.8,5.7,15.8,18.8l-24.9,0.3c0,2.6,2.1,8.5,8.6,8.8    c4.9,0.2,7.7-2.2,9.1-5l6.8,2c-1.6,4-6.8,9.2-15.3,9.2C176.5,226.6,170.3,219,170.3,209.6z M178.2,205.7l16.8-0.1    c0-3.1-3.2-7.3-9.4-6.8C181.8,199.2,178.5,202,178.2,205.7z"></path>
		<path class="st5" d="M214.1,226.1h-7.7v-47.9h7.7V226.1z"></path>
		<path class="st5" d="M217.9,217.7c-0.5-6.4,3.4-10,10.4-11.2c3.2-0.5,7-0.9,10.6-0.3c0.7-2.1,0.5-5.8-4.1-7    c-4.1-1-8.1,0.1-9.6,4.3l-6.4-2.4c0.7-2,2.2-4.7,6-6.8c3.3-2,9.3-2.6,13.8-0.9c5.5,2,8.2,6.7,8.2,11l0.2,21.5h-7.2l-0.3-4.1    c-1.4,2-4.6,4.6-8.9,5C223.9,227.4,218.5,223.6,217.9,217.7z M239.7,212.2c-6.5-0.5-14.4-1.4-14.4,4.3c0,3.1,3.5,5.2,7.8,4.3    C237.9,219.6,240.1,215.5,239.7,212.2z"></path>
		<path class="st5" d="M191.3,174.4c-5.2-2.2-9.3-1.3-13,1.3c-0.2,0.1-1.5,1.2-2.8,2.4c-2.3,2.3-4.3,3.1-8.1,2.9    c-5.4-0.3-7.8-4.4-8.4-7.3c-0.1-0.6-0.2-1.1-0.2-1.5l24.9-0.3c1-13.1-7.1-18.8-15.8-18.8s-16.6,5.6-16.6,17.1c0,1,0.1,1.9,0.2,2.9    c0,0.1,0,0.2,0,0.3s0,0.2,0.1,0.3c1.5,8.8,8.5,13.8,16.2,13.8c2.5,0,4.6-0.5,6.4-1.4c2-0.9,3.7-2.2,5.3-3.7c0.8-0.6,1.4-1.1,2-1.5    c1.7-1.3,2.6-1.7,4.5-1.8c1.7-0.1,3.7,1.1,3.4,2.9c-0.3,1.4-1.3,2.4-3.1,2.8c-1.7,0.4-7.2,1.4-12.2,3.1l0,0    c-1.7,0.5-3.1,1.1-4.4,1.8c-0.1,0-0.1,0.1-0.2,0.1c-0.2,0.1-0.3,0.2-0.5,0.3c-6.2,3.4-7.6,7.9-8.2,9.1v0.1c0,0-3.4-6.8-12.6-6.7    c-1,0-2,0.1-2.9,0.3c0,0,0,0-0.1,0l0,0c-6.2,1.4-11.6,6.7-12.2,14.4c-0.7,8.2,3.1,14.6,8.5,17.3c4.8,2.4,12.1,2.8,17-2.9    c0,9.2-3.6,12.6-9.4,12.6c-3.7,0-6.3-2-8.1-5.3l-7.2,2c3.7,8.9,11.2,10.6,16.6,10.2c10.5-0.8,15.4-8.3,15.4-17.6    c0-3.7-0.1-9.1-0.1-15c0-1.8,0.2-3.5,0.8-5.2c0.2-0.6,0.4-1.2,0.7-1.7c3.2-6.6,10.5-10.1,19-11c7.1-0.8,9.6-4.8,9.8-7.9    C196.3,178.4,193.9,175.5,191.3,174.4z M166.6,159.5c6.2-0.5,9.4,3.7,9.4,6.8l-16.8,0.1C159.6,162.7,162.8,159.8,166.6,159.5z     M149,219.4c-4.7,0-8.6-4.4-8.6-10c0-5.3,3-8.9,7-9.9l0,0c0.7-0.2,1.4-0.2,2.1-0.2c0.8,0,1.6,0.1,2.4,0.3c1.1,0.3,2.1,0.9,3.1,1.6    c1.9,1.6,3.3,4,3.5,7.4c0,0.2,0,0.5,0,0.7C158.6,216.7,153.5,219.4,149,219.4z"></path>
	</g>
</g>
<g class="st2">
	<path class="st3" d="M210,141.6h-3.6c0-1.8,0-4,0-7.1c0-0.4-0.3-0.8-0.8-0.8h-6.5c-0.4,0-0.8,0.3-0.8,0.8v7.1h-3.6   c-0.4,0-0.8,0.3-0.8,0.8v6.5c0,0.4,0.3,0.8,0.8,0.8c1.4,0,2.6,0,3.6,0V164c0,0.4,0.3,0.8,0.8,0.8h6.5c0.4,0,0.8-0.4,0.8-0.8   c0-7.9,0-11.6,0-14.3c0.9,0,2,0,3.6,0c0.4,0,0.8-0.3,0.8-0.8v-6.5C210.8,142,210.5,141.6,210,141.6z"></path>
	<path class="st3" d="M130,141.7c-2.6,0-4.6,1.9-6.3,4.9c-0.6-3.2-2.3-4.9-6.3-4.9c-3.1,0-4.1,1.3-4.7,2.4c-0.1,0.2-0.4,0.2-0.4-0.1   c0-0.5,0-1.1,0-1.6c0-0.4-0.3-0.8-0.8-0.8H105c-0.4,0-0.8,0.3-0.8,0.8v21.5c0,0.4,0.3,0.8,0.8,0.8h6.5c0.4,0,0.8-0.3,0.8-0.8   c0.1-2.6,0.6-10.7,3.8-10.7c3.2,0,3.7,8.2,3.8,10.7c0,0.4,0.4,0.8,0.8,0.8c0.2,0,0.4,0,0.6,0l0,0h4.1c0.4,0,0.8-0.3,0.8-0.8   c0.1-2.6,0.6-10.7,3.9-10.7s3.5,8.1,3.4,10.7c0,0.4,0.3,0.8,0.8,0.8c1.1,0,3.2,0,5.1,0c0.4,0,0.8-0.3,0.8-0.8   C140.1,150.6,139.9,141.7,130,141.7z"></path>
	<path class="st3" d="M89.1,143.6c-2-0.5-5.2-1.4-7.1-1.8c-0.4-0.1-0.8,0.2-0.8,0.6l-1.8,7.7c-0.2,0.7-1.2,0.8-1.4,0.1l-2.8-7   c-0.1-0.3-0.4-0.5-0.7-0.5c-1.2,0,0.3,0-1.6,0s-0.4,0-1.6,0c-0.3,0-0.6,0.2-0.7,0.5l-2.8,7c-0.3,0.7-1.3,0.6-1.4-0.1l-1.8-7.7   c-0.1-0.4-0.5-0.6-0.8-0.6c-1.9,0.4-5.1,1.4-7.1,1.8c-0.4,0.1-0.7,0.5-0.6,0.9l4.5,19.6c0.1,0.3,0.4,0.6,0.7,0.6h7.1   c0.3,0,0.6-0.2,0.7-0.5l3.2-9c0.2-0.7,1.2-0.7,1.4,0l3.2,9c0.1,0.3,0.4,0.5,0.7,0.5h7.1c0.4,0,0.7-0.2,0.7-0.6l4.5-19.6   C89.8,144.1,89.5,143.7,89.1,143.6z"></path>
	<path class="st3" d="M47.9,143.2c-1.7-1-3.7-1.6-5.7-1.6c-2.1,0-4,0.5-5.8,1.6c-1.8,1-3.2,2.4-4.2,4.2c-1,1.7-1.5,3.7-1.5,5.7   c0,2.1,0.5,4,1.5,5.8s2.4,3.2,4.2,4.2s3.7,1.5,5.8,1.5s4-0.5,5.7-1.5c1.8-1,3.2-2.4,4.2-4.2s1.6-3.7,1.6-5.8s-0.5-4-1.6-5.7   C51,145.6,49.6,144.2,47.9,143.2z M44.6,155.6c-0.7,0.7-1.5,1-2.5,1s-1.8-0.3-2.5-1s-1-1.5-1-2.5s0.3-1.8,1-2.5s1.5-1,2.5-1   s1.8,0.3,2.5,1s1,1.5,1,2.5S45.3,154.9,44.6,155.6z"></path>
	<path class="st3" d="M236.9,141.6h-6.4c-0.4,0-0.8,0.3-0.8,0.8v0.3l0,0c0,0.1-0.1,0.3-0.3,0.2c-1.3-0.9-3.1-1.3-4.8-1.3   c-2.1,0-4,0.5-5.8,1.6c-1.8,1-3.2,2.4-4.2,4.2c-1,1.7-1.5,3.7-1.5,5.7c0,2.1,0.5,4,1.5,5.8s2.4,3.2,4.2,4.2s3.7,1.5,5.8,1.5   c1.8,0,3.5-0.4,5.1-1.2v0.4c0,0.4,0.3,0.8,0.8,0.8h6.4c0.4,0,0.8-0.4,0.8-0.8c0-13.7,0-10.1,0-21.5   C237.6,142,237.3,141.6,236.9,141.6z M227.1,155.6c-0.7,0.7-1.5,1-2.5,1s-1.8-0.3-2.5-1s-1-1.5-1-2.5s0.3-1.8,1-2.5s1.5-1,2.5-1   s1.8,0.3,2.5,1s1,1.5,1,2.5S227.7,154.9,227.1,155.6z"></path>
	<path class="st3" d="M247.6,130.1h-6.5c-0.4,0-0.8,0.3-0.8,0.8v33c0,0.4,0.3,0.8,0.8,0.8h6.5c0.4,0,0.8-0.4,0.8-0.8   c0-21.8,0-14.9,0-33C248.4,130.5,248,130.1,247.6,130.1z"></path>
	<path class="st3" d="M164.3,144.9c-0.7-1.1-1.8-1.7-2-1.8h-0.1c-0.2-0.1-1.3-0.7-2.8-1c-3.5-0.6-6.4-0.4-7.8,0   c-1.7,0.4-3.1,0.9-4.2,1.6c-1.1,0.7-2,1.6-2.7,2.6c-0.7,0.9-1.2,2-1.5,3.1s-0.4,2.1-0.5,3.1c0,0.6-0.1,2.2,0,2.7   c1.5,7.6,6,9.6,12,9.6c8.7,0,10.4-2.9,10.8-5.6c0.1-0.9-0.7-1.6-1.6-1.6c-3.9,0.1-10.4,0-11.8-3c-0.3-0.7,0.3-1.3,1-1.3h5.8h5h0.1   c0.6,0,1.5,0,1.5-1c0-0.1,0-0.3,0-0.4c0-0.8,0-1.5-0.2-3.1C165.4,147.4,164.9,145.9,164.3,144.9z M156.3,149.7h-1.6H153   c-0.4,0-0.8-0.3-0.7-0.8c0.1-1.3,0.4-2.9,2.4-2.9s2.3,1.7,2.4,2.9C157.1,149.4,156.7,149.7,156.3,149.7z"></path>
	<path class="st3" d="M270.7,142.2c1.3,0,2.5-0.5,3.4-1.4c1-1,1.4-2.1,1.4-3.4s-0.5-2.5-1.4-3.4c-0.9-1-2-1.4-3.4-1.4   c-1.3,0-2.5,0.5-3.4,1.4s-1.4,2-1.4,3.4s0.5,2.5,1.4,3.4C268.2,141.8,269.3,142.2,270.7,142.2z"></path>
	<path class="st3" d="M294,140.4c-0.6-1.9-1.2-3.7-2.1-5.2s-1.7-2.9-2.5-4s-1.6-2-2.2-2.7c-0.4-0.4-0.9-0.6-1.4-0.6   c-0.6-0.1-1.1,0.1-1.5,0.4l-1.6,1.3c-0.5,0.4-0.8,0.8-0.9,1.5s0.1,1.2,0.5,1.7c0.6,0.7,1.1,1.5,1.7,2.5s1.1,2,1.5,3.3   c0.5,1.2,0.8,2.5,1.1,4c0.3,1.4,0.4,2.9,0.4,4.4c0,2.3-0.4,4.7-1.2,7.1c-0.8,2.4-2.2,4.8-4.3,7.1c-0.4,0.4-0.6,0.9-0.6,1.4   s0.1,1,0.5,1.4l1.8,2.2c0.4,0.5,1,0.8,1.6,0.8c0.7,0,1.2-0.2,1.7-0.7c2.9-3.2,5-6.5,6.4-9.8s2.1-6.5,2-9.6   C294.9,144.5,294.6,142.4,294,140.4z"></path>
	<path class="st3" d="M270.7,150.2c-1.3,0-2.5,0.5-3.5,1.4c-0.9,0.9-1.4,2.1-1.4,3.4c0,1.3,0.5,2.5,1.4,3.4c1,0.9,2.1,1.4,3.5,1.4   c0.4,0,0.8,0.3,0.8,0.7v5.1c0,0.7,0.6,1.3,1.3,1.3h1.5c0.7,0,1.3-0.6,1.3-1.3v-10.8c-0.1-1.4-0.5-2.5-1.4-3.4   C273.1,150.6,272,150.2,270.7,150.2z"></path>
	<path class="st3" d="M182.4,141.6c-3.4,0-4.8,1.5-5.4,2.4c-0.3,0.4-0.5,0.3-0.5-0.2s0-1,0-1.5c0-0.4-0.3-0.8-0.8-0.8h-6.5   c-0.4,0-0.8,0.3-0.8,0.8v21.5c0,0.4,0.3,0.8,0.8,0.8h6.5c0.4,0,0.8-0.3,0.8-0.7c0.1-2.5,0.9-10.7,4.1-10.7c3.2,0,3.7,8.2,3.8,10.7   c0,0.4,0.4,0.8,0.8,0.8c1.1,0,3.4,0,5.5,0c0.4,0,0.8-0.3,0.8-0.8C191.5,154.8,192.5,141.6,182.4,141.6z"></path>
	<path class="st3" d="M18.9,141.6c-3.4,0-4.8,1.5-5.5,2.4c-0.3,0.4-0.5,0.3-0.5-0.2c0-2.6,0-10.5,0-13c0-0.4-0.3-0.8-0.8-0.8H5.7   c-0.4,0-0.8,0.3-0.8,0.8v33c0,0.4,0.3,0.8,0.8,0.8h6.5c0.4,0,0.8-0.3,0.8-0.7c0.2-2.5,0.9-10.5,4.1-10.5s3.7,8,3.8,10.5   c0,0.4,0.4,0.8,0.8,0.8c1.1,0,3.4,0,5.5,0c0.4,0,0.8-0.3,0.8-0.8C27.9,154.7,29,141.6,18.9,141.6z"></path>
</g>
<g class="st2">
	<g class="st4">
		<path class="st5" d="M77.1,189c-8.3,0-15-2.6-20-7.7c-5-5.2-7.5-12-7.5-20.3s2.6-15.1,7.5-20.2c5-5.2,11.7-7.8,20-7.8    s15,2.6,20,7.8c5,5.1,7.5,11.9,7.5,20.2s-2.6,15.1-7.5,20.3C92.1,186.4,85.4,189,77.1,189z M86,161.2c0-6.2-3.6-10.3-8.9-10.3    c-5.4,0-9,4.1-8.9,10.3c-0.1,6.1,3.4,10.1,8.9,10.1C82.4,171.2,86,167.3,86,161.2z M207.7,129.9c6.2,0,10.4-3.8,10.4-9.2    c0-5.8-4.2-9.7-10.4-9.7c-6.5,0-10.9,3.9-10.9,9.7C196.8,126.1,201.1,129.9,207.7,129.9z"></path>
	</g>
	<path class="st3" d="M23.5,187.1v-71.8l19.4-2.2v74H23.5z M150.4,184.6c-4.9,3-10.1,4.4-15.6,4.4c-13.2,0-20.7-8.3-20.7-23.1V151   h-6.7v-14.5l6.7-1.6l2.2-13.4l17.2-2.2V135h12.2l-1.1,16.1h-11.1v14.3c0,5.1,1.7,7.7,5,7.7c1.8,0,3.8-0.6,5.9-1.6L150.4,184.6z    M193.2,184.6c-4.9,3-10.1,4.4-15.6,4.4c-13.2,0-20.7-8.3-20.7-23.1V151h-6.7v-14.5l6.7-1.6l2.2-13.4l17.2-2.2V135h12.2l-1.1,16.1   h-11.1v14.3c0,5.1,1.7,7.7,5,7.7c1.8,0,3.8-0.6,5.9-1.6L193.2,184.6z M197.8,187.1V135h19.4v52.1H197.8z M271.1,142.7   c4.7,6.3,6.3,14.6,5,25h-34.8c2.2,4.5,6.3,6.9,12.4,6.9c5,0,10.1-1.6,15.3-4.7l5.8,12.2c-7.5,4.5-15.3,6.9-23.2,6.9   c-8.2,0-15.1-2.6-20.6-7.5c-5.4-5-8.2-11.9-8.2-20.5c0-8.3,2.6-15.1,7.5-20.2c5-5.1,11.7-7.7,19.9-7.7   C259.5,133.1,266.5,136.3,271.1,142.7z M258.4,155.5c0-4-3.4-6.7-8.7-6.7c-4.3,0-7.3,2.2-9,6.5L258.4,155.5z"></path>
</g>
<g class="st2">
	<path id="Path_115" class="st3" d="M75,129.2c-2.6,0.1-4.8-1.8-5-4.4c0-2.6,2.1-4.7,4.7-4.7l0,0c0.1,0,0.2,0,0.2,0l0,0   c2.6-0.1,4.8,2,4.9,4.6C79.8,127.2,77.6,129.3,75,129.2L75,129.2"></path>
	<path id="Path_116" class="st3" d="M59.8,182c-2.6,0.1-4.8-2-4.8-4.6l0,0v-18.8c0-7.9-6.8-14.3-15.1-14.3s-15.1,6.4-15.1,14.3v18.8   c-0.1,2.6-2.4,4.6-5,4.5c-2.5,0-4.6-2-4.7-4.5v-18.8c0-13,11.1-23.5,24.8-23.5s24.8,10.5,24.8,23.5v18.8   C64.5,180,62.4,182,59.8,182L59.8,182"></path>
	<path id="Path_117" class="st3" d="M141.8,135.1c-6.8,0.1-13.1,3.3-17.1,8.8c-4-5.5-10.3-8.7-17.1-8.8c-12.1,0-21.9,10.5-21.9,23.5   v18.8c0.1,2.7,2.3,4.8,5,4.7c2.5-0.1,4.5-2,4.7-4.5c0-0.1,0-0.2,0-0.2v-18.8c0-7.9,5.5-14.3,12.2-14.3s12.2,6.4,12.2,14.3v18.8   c0.1,2.7,2.4,4.8,5.1,4.6c2.5-0.1,4.5-2.1,4.6-4.6v-18.8c0-7.9,5.5-14.3,12.2-14.3s12.2,6.4,12.2,14.3v18.8c0.1,2.7,2.3,4.8,5,4.7   c2.5-0.1,4.5-2,4.7-4.5c0-0.1,0-0.2,0-0.2v-18.8C163.8,145.6,153.9,135.1,141.8,135.1"></path>
	<path id="Path_118" class="st3" d="M245.9,154h28.6c-2.7-7.5-11.3-11.5-19.2-9C251,146.4,247.5,149.7,245.9,154 M260.2,182.1   c-13.7,0-24.8-10.5-24.8-23.5s11.1-23.5,24.8-23.5c13.7,0,24.8,10.5,24.8,23.5l0,0c-0.1,2.6-2.2,4.7-4.8,4.6l0,0h-34.3   c2.3,5.9,8,9.8,14.3,9.7c2.3,0,4.5-0.5,6.5-1.4c2.4-1.1,5.2-0.2,6.5,2.2c1.1,2.2,0.2,4.9-2,6c-0.1,0-0.2,0.1-0.2,0.1l0,0   C267.6,181.3,263.9,182.1,260.2,182.1"></path>
	<path id="Path_119" class="st3" d="M74.9,182c-2.6,0.1-4.8-2-4.8-4.6v-38.9c0.2-2.7,2.5-4.7,5.2-4.5c2.4,0.2,4.3,2.1,4.5,4.5v19.6   c0,0.2,0,0.3,0,0.5s0,0.3,0,0.5v18.3C79.7,180,77.5,182,74.9,182"></path>
	<path id="Path_121" class="st3" d="M226.3,182c-2.6,0.1-4.8-2-4.8-4.6l0,0v-57.2c0.1-2.7,2.4-4.7,5.1-4.6c2.5,0.1,4.5,2.1,4.6,4.6   v37.9c0,0.3,0,0.6,0,0.9v18.3C231.1,180,228.9,182,226.3,182L226.3,182"></path>
	<path id="Path_220" class="st3" d="M192.9,135.1c-5.4,0-10.7,1.7-15.1,4.9v-0.1v-19.6c-0.1-2.7-2.4-4.7-5.1-4.6   c-2.5,0.1-4.5,2.1-4.6,4.6v38.2c0,0.1,0,0.1,0,0.2s0,0.1,0,0.2v0.3c0,0.1,0,0.2,0,0.4c0.5,12.6,11.4,22.6,24.8,22.6   c13.7,0,24.8-10.5,24.8-23.5l0,0C217.7,145.6,206.6,135.1,192.9,135.1z M193,172.9c-8.3,0-15.1-6.4-15.1-14.3s6.8-14.3,15.1-14.3   c2.5,0,4.9,0.6,7.2,1.7c4.8,2.4,7.9,7.2,7.9,12.6C208,166.4,201.3,172.9,193,172.9L193,172.9z"></path>
</g>
</svg>
