<svg xmlns="http://www.w3.org/2000/svg" width="13270.578" height="1213.224" viewBox="0 0 13270.578 1213.224">
  <path id="Path_1454" data-name="Path 1454" d="M4034.327,2092.595l11.4-1388.2a162.68,162.68,0,0,1,50.776-110.263,156.821,156.821,0,0,1,98.534-42.1c94.575-6.161,127.629,56.454,124.55,150.714l9.653,1142.37a88.791,88.791,0,0,0,23,60.889,91.971,91.971,0,0,0,60.14,27.9c63.814,1.18,70.59-64.224,69.922-128.06-2.427-151.794,18.416-560.7,18.416-560.7,6.667-287.5,5.7-326.905,15.5-388.781,6.046-183.76,55.859-265.724,121.227-258.633,56.252,6.114,144.693,23.228,135.714,296.538-2.847,86.868-6.408,169.211-11.087,311.528-9.074,304.076-12.412,538.273,7.381,611.781,19.809,73.508,65.066,73.879,101.2,73.06s51.909-69.442,59.353-126.576l-15.477-515.337,22.521-459.968A193.3,193.3,0,0,1,5116,606.829s152,.1,128,229.778c-10.389,176.34-11.4,201.293,0,863.706V13821.19H4034.327Z" transform="translate(13821.69 -4033.827) rotate(90)" fill="#2727d5" stroke="rgba(0,0,0,0)" stroke-miterlimit="10" stroke-width="1"/>
</svg>
