<?xml version="1.0" encoding="UTF-8"?>
<!-- Generator: Adobe Illustrator 27.7.0, SVG Export Plug-In . SVG Version: 6.00 Build 0)  -->
<svg xmlns="http://www.w3.org/2000/svg" xmlns:xlink="http://www.w3.org/1999/xlink" version="1.1" id="Layer_1" x="0px" y="0px" viewBox="0 0 300 300" style="enable-background:new 0 0 300 300;" xml:space="preserve">
<style type="text/css">
	.st0{fill:#FFFFFF;}
</style>
<g>
	<g id="Group_3071_00000128459437507025155720000007984947860049581998_">
		<path id="Path_9111_00000006672850090129045440000002484259411910508479_" class="st0" d="M114.4,198.3c-0.2-0.8-0.5-1.5-0.8-2.3    H90.1l0,0.1c0.9,2.6,1.6,5.2,2.2,7.7h22.3C115.1,202,114.9,200.1,114.4,198.3 M109.1,106.9c0.8-1.8,1.5-3.6,2.3-5.4h-8.1    c-1,1.8-1.9,3.6-2.9,5.4c-0.5,0.8-0.9,1.7-1.4,2.5h9C108.4,108.5,108.8,107.7,109.1,106.9"></path>
		<path id="Path_9112_00000138545655332760197930000016306178545776175536_" class="st0" d="M143.7,121v63.5    c0,10.7-8.7,19.4-19.4,19.4l0,0h-3.8c0.3-2.5,0.1-5-0.7-7.4c-0.1-0.2-0.1-0.3-0.2-0.5h4.7c6.4,0,11.6-5.2,11.6-11.6V121    c0-6.4-5.2-11.6-11.6-11.6h-10l0.1-0.2c0.8-2,1.6-3.7,2.3-5.4l0.1-0.2c0.3-0.7,0.6-1.3,0.8-2h6.6C135,101.5,143.7,110.2,143.7,121    L143.7,121"></path>
		<path id="Path_9113_00000023977639015049413210000001259295845337047218_" class="st0" d="M103.3,101.5c-1,1.8-1.9,3.6-2.9,5.4    c-0.5,0.8-0.9,1.7-1.4,2.5H33.4c-4.1,0-7.9,2.2-9.9,5.7c-0.1,0.1-0.2,0.2-0.2,0.4c-0.9,1.7-1.4,3.6-1.4,5.5v52.9    c0,0.7,0,1.7,0,2.8c0,1.7,0,3.7,0,5.2v0c0,0.6,0,1.2,0,1.6v1c0,1.2,0.2,2.3,0.5,3.4l0.1,0.3c0.3,0.8,0.7,1.7,1.2,2.4    c2.1,3.4,5.8,5.4,9.8,5.4h24.7h32l0,0.1c0.9,2.6,1.6,5.2,2.2,7.7h-59c-10.7,0-19.4-8.7-19.4-19.4v0V121c0-10.7,8.7-19.4,19.4-19.4    l0,0H103.3z"></path>
		<path id="Path_9114_00000168087244653229078550000010343791044577248683_" class="st0" d="M183.3,109.4h11l17.1,38.4h-12l-2.6-6.9    h-16.3l-2.6,6.9h-11.7L183.3,109.4z M193.7,132.5l-4.9-13h-0.3l-4.9,13H193.7z"></path>
		<path id="Path_9115_00000068640270089343309820000012462624862450759865_" class="st0" d="M225,127.2v8.9c-0.1,1,0.3,2,1,2.8    c0.9,0.7,2.1,1.1,3.3,0.9c0.9,0,1.8-0.1,2.6-0.2c0.5-0.1,0.9-0.2,1.4-0.3v7.7c-0.9,0.2-1.9,0.4-2.9,0.5c-1.5,0.2-2.9,0.3-4.4,0.3    c-2.3,0.1-4.7-0.3-6.8-1.3c-1.6-0.8-2.9-2.1-3.6-3.7c-0.8-1.9-1.2-3.9-1.1-6v-9.6h-4.6v-8.1h4.5v-7.3H225v7.3h8.3v8.1H225z"></path>
		<path id="Path_9116_00000154384243355804768300000016768958488417876616_" class="st0" d="M277.7,175.4v8.9c-0.1,1,0.3,2,1,2.8    c0.9,0.7,2.1,1.1,3.3,0.9c0.9,0,1.8-0.1,2.6-0.2c0.5-0.1,0.9-0.2,1.4-0.3v7.7c-0.9,0.2-1.9,0.4-2.9,0.5c-1.5,0.2-2.9,0.3-4.4,0.3    c-2.3,0.1-4.7-0.3-6.8-1.3c-1.6-0.8-2.9-2.1-3.6-3.7c-0.8-1.9-1.2-3.9-1.1-6v-9.6h-4.6v-8.1h4.5v-7.3h10.6v7.3h8.3v8.1H277.7z"></path>
		<path id="Path_9117_00000176042844478239515780000000229982995209358240_" class="st0" d="M166.1,156.9h11.2v29.5H196v9.6h-29.9    L166.1,156.9L166.1,156.9z"></path>
		<path id="Path_9118_00000049212740492053199550000001638478724165558428_" class="st0" d="M201.9,193.7c-2-1.5-3.1-3.8-3-6.3    c0-1.6,0.4-3.1,1.2-4.4c0.8-1.3,2-2.3,3.3-3c1.9-1,4-1.6,6.2-1.8c2.8-0.3,5.7-0.5,8.6-0.5v-0.4c0-0.7-0.2-1.4-0.6-1.9    c-0.5-0.5-1.2-0.8-1.9-0.9c-1.2-0.2-2.5-0.3-3.7-0.2c-3.2,0.1-6.3,0.5-9.4,1.2v-8.1c3.9-0.9,7.8-1.3,11.7-1.2    c3.6-0.2,7.2,0.8,10.3,2.7c2.5,1.8,3.8,5,3.8,9.6v6.5c-0.1,0.6,0.2,1.2,0.6,1.5c0.5,0.4,1.2,0.5,1.8,0.5c0.8,0,1.7-0.2,2.5-0.5    v8.2c-1.8,0.9-3.7,1.4-5.7,1.5c-2.7,0.1-5.3-1-7.1-3c-2.6,2.1-5.9,3.2-9.3,3C207.9,196.3,204.6,195.5,201.9,193.7 M216.2,188.5    c0.8-0.2,1.5-0.6,2.1-1.1v-3.6c-2.3,0-4.2,0.1-5.5,0.2c-1,0-2.1,0.3-3,0.7c-0.7,0.4-1.1,1.1-1.1,1.8c-0.1,0.8,0.4,1.6,1.1,1.9    c1.1,0.5,2.2,0.7,3.4,0.6C214.2,189,215.2,188.9,216.2,188.5"></path>
		<path id="Path_9119_00000145755023674646743260000001847376085626734484_" class="st0" d="M241.5,195.7c-1.9-0.2-3.8-0.6-5.6-1.1    v-8.2c1.8,0.8,3.6,1.4,5.5,1.7c1.8,0.4,3.6,0.5,5.4,0.6c1.2,0,2.4-0.1,3.6-0.3c0.9-0.2,1.4-0.6,1.4-1.2c0-0.6-0.4-1-1.1-1.3    c-1.1-0.3-2.3-0.6-3.5-0.7c-1.9-0.3-3.8-0.7-5.6-1.3c-1.5-0.5-2.9-1.5-4-2.7c-1.2-1.5-1.8-3.5-1.7-5.5c-0.1-2,0.6-4,1.8-5.5    c1.3-1.5,3-2.7,4.9-3.3c2.2-0.7,4.4-1.1,6.7-1.1c1.8,0,3.6,0.1,5.3,0.3c1.6,0.2,3.3,0.6,4.9,1v8.1c-1.6-0.7-3.3-1.2-5.1-1.6    c-1.7-0.4-3.4-0.6-5.2-0.6c-0.8,0-1.5,0-2.3,0.2c-0.4,0.1-0.8,0.2-1.1,0.5c-0.2,0.3-0.3,0.6-0.3,0.9c0,0.5,0.2,0.9,0.6,1.2    c0.5,0.3,1.1,0.5,1.6,0.6c0.7,0.1,1.6,0.3,2.9,0.5c1.9,0.3,3.8,0.7,5.6,1.2c1.5,0.5,2.9,1.3,3.9,2.5c1.2,1.5,1.8,3.4,1.7,5.3    c0.1,2.2-0.7,4.3-2.2,5.9c-1.5,1.5-3.4,2.6-5.5,3.1c-2.2,0.6-4.5,0.9-6.9,0.9C245.5,196,243.5,195.9,241.5,195.7"></path>
		<path id="Path_9120_00000161625410417188165380000012746050034096304786_" class="st0" d="M117.5,90.4c0.8-2,0.1-4.4-1.9-5.2    c-1.8-0.7-4.2-0.2-4.9,1.5c-0.4,1-0.9,2-1.4,3c-2.1,4.4-3.5,7.4-5.8,11.6l-0.1,0.2c-1,1.8-1.9,3.6-2.9,5.4    c-0.5,0.8-0.9,1.7-1.4,2.5c-2,3.4-4,6.8-6,10.2c-4,6.5-8.2,12.8-12.6,19c-3.4,4.9-7.2,9.3-10.9,13.9c-2.2,2.8-4.5,5.2-6.9,7.9    c-6.5,7.1-11.9,13.3-18.7,20c-9.6,8.6-21.9,11-22,1.5c0,0.6,0,1.2,0,1.6v1c0,1.2,0.2,2.3,0.5,3.4l0.1,0.3c1.6,4.7,6,7.9,10.9,7.9    h24.9c0.3-0.3,0.2-0.3,0.9-0.9c0.5-0.5,1-1.1,1.5-1.7c2.9-4.3,9.1-11.5,17.7-24.9c1.6-2.4,3.9-5.5,5.4-7.9c2-3.3,3.8-6,5.7-9.4    c7.4-12.8,13-25.7,19.2-39.4L117.5,90.4z"></path>
		<path id="Path_9121_00000077311019790558492040000000532844909863686327_" class="st0" d="M114.8,203.9c-1.1,6.2-7,10.2-13.2,9.1    c-4.1-0.8-7.5-3.7-8.7-7.6c-0.1-0.5-0.3-1-0.4-1.5c-0.7-2.5-1.3-5.1-2.2-7.7l0-0.1c-0.9-2.8-1.9-5.5-3.1-8.3    c-2.9-7.3-6.2-14.5-9.9-21.5c-2.4-4.5-4.9-9-7.5-13.4c-2.8-4.7-5.8-9.2-8.9-13.6c-5.3-7.4-14.6-20.9-22.8-23c-3.9-1.2-8.2,0-11,3    c-3.2,4.3-5,9.5-5.2,14.9V121c0-1.9,0.5-3.8,1.4-5.5c0.1-0.1,0.2-0.2,0.2-0.4c2.1-3.5,5.9-5.7,9.9-5.7H54    c11.2,6.7,17.7,17.9,26.4,29.2c2.7,3.5,5.2,7,7.5,10.3c3.3,4.8,6.1,9.2,8.4,12.8c5.3,8.6,10.1,17.4,14.2,26.6    c1.1,2.5,2.2,5.1,3.1,7.8c0.3,0.8,0.5,1.5,0.8,2.3C115,200.1,115.1,202,114.8,203.9"></path>
	</g>
</g>
</svg>
