<?xml version="1.0" encoding="UTF-8"?>
<!-- Generator: Adobe Illustrator 27.8.1, SVG Export Plug-In . SVG Version: 6.00 Build 0)  -->
<svg xmlns="http://www.w3.org/2000/svg" xmlns:xlink="http://www.w3.org/1999/xlink" version="1.1" id="Layer_1" x="0px" y="0px" viewBox="0 0 500 500" style="enable-background:new 0 0 500 500;" xml:space="preserve">
<style type="text/css">
	.st0{fill:#FFFFFF;}
	.st1{display:none;}
	.st2{display:inline;}
	.st3{fill:#72A5AD;}
	.st4{display:inline;fill:#72A5AD;}
	.st5{fill:#070A12;}
	.st6{fill:url(#SVGID_1_);}
	.st7{fill:url(#SVGID_00000170963237670146850660000017765768637529856912_);}
	.st8{fill:url(#SVGID_00000103958937525218802670000001075205040858453166_);}
	.st9{fill:url(#SVGID_00000127735982684554165690000002299801341621551766_);}
	.st10{fill:#E51F59;}
	.st11{display:inline;fill:#E51F59;}
	.st12{fill:#46B38A;}
	.st13{display:inline;fill:#FBBB04;}
	.st14{clip-path:url(#SVGID_00000011739382778504277110000003406449553870051978_);}
	.st15{fill:#FBBB04;}
	.st16{display:inline;fill:#1D1E1C;}
</style>
<g id="Group_815_00000109735050154032897520000011562325018906115762_">
	<path id="Path_10151_00000148638990225767470130000002745718320370113426_" class="st0" d="M288.3,199.2c1.8-0.8,3.4-2,4.6-3.6   c0.5-0.7,0.9-1.5,1.1-2.3c0.4-1.2-0.2-2.5-1.3-3c-1.5-0.7-3.4-1.4-5.7-1.1c-1.7,0.2-10.3,0.5-21.8,2.3c-12.6,2-28,5.6-28.1,5.6   c-3.1,0.6-4.8,2.5-4.8,5.3c0,3.3,1.8,5.8,5.1,7.2c1.6,0.7,3.2,0.6,4.6,0.6c3.9-0.5,10.1-2.4,12-2.5c0.5,0.2,1.1,0.5,1.5,0.9   c0.5,0.5,0.7,1.3,0.6,2v0.1c0,0.4,0,0.8,0.1,1.2c0.3,1.9,0.4,3.8,0.3,5.7v0.5c3.9,42-9.8,78.7-10.3,81.1c-0.1,0.4-0.2,1-0.3,1.5   c-0.1,0.4-0.1,0.8-0.2,1.2c-0.4,1.9-0.1,3.3,0.8,4c0.6,0.4,1.2,0.6,1.9,0.6c1.2-0.1,2.3-0.3,3.4-0.8c0.1,0,0.2-0.1,0.3-0.1   c0.2-0.1,17.9-8.2,16.7-96.2c0-0.9,0-1.6,0-2.4c0-0.7,0.2-1.4,0.7-2c0.8-0.9,1.8-1.6,3-2"></path>
	<path id="Path_10152_00000158027007653821438060000018057170430120484241_" class="st0" d="M178.7,234.2v-0.4   c-0.3-5.7-1.1-7.9-4.5-11.6c-4.7-5.1-11.7-6.3-17.9-7.3h-0.1c-1.9-0.3-3.9-0.5-5.8-0.6c-0.8-0.1-1.6-0.1-2.2-0.2   c-1.2-0.1-2.4-0.1-3.7-0.1c-0.4,0-0.7,0-1,0c-0.7,0-1.4,0-2,0.2c-0.1,0-0.2,0.1-0.4,0.1c-0.3,0-0.5,0.1-0.7,0.1   c-0.1,0-0.2-0.1-0.3-0.2c-0.1-0.1-0.3-0.2-0.5-0.2c0,0-0.1-0.1-0.2-0.2c-0.2-0.2-0.4-0.3-0.6-0.5l-0.2-0.2c-1-0.7-2.1-1.5-3.9-1.5   h-0.1c-1.3-0.1-2.5,0.2-3.5,1c-1.9,1.3-3.1,3.6-3.4,6.9v0.3c-0.1,1.2-0.2,2.2-0.3,3.1c-0.1,1.9-0.4,3.8-0.7,5.6   c-0.2,0.9-0.3,1.8-0.5,2.7c-1.3,6.9-2.7,14-2.7,21.2c0,8.3,0.4,15.1,1,20.6c0.7,5.9,3.1,13.6,5.1,18.1c1.6,3.6,2.5,4.7,5.2,4.7l0,0   c0.7,0,1.4,0.1,2.1,0.2c0.1,0,0.3,0.1,0.5,0.1c0.4,0,0.9-0.1,1.2-0.4c1.2-0.5,2.5-1.5,2.7-3.1c0.1-0.8,0.1-1.6-0.1-2.4L141,290   c-0.1-0.7-0.3-1.3-0.5-1.9l-0.2-0.5c-0.2-0.8-0.4-1.4-0.7-2.1c-0.3-0.8-0.5-1.5-0.8-2.5l-0.1-0.4c-0.1-0.3-0.2-0.8-0.5-1.8   c-0.6-2.8-1.1-5.5-1.4-8.3c-0.1-1.6-0.1-3.3,0-4.9v-0.3c0-0.1,0-0.2,0-0.2h0.1h0.1c0.2-0.1,0.3-0.1,0.8-0.2c0.5,0,1-0.1,1.5-0.2   c1-0.2,3-0.6,4.2-0.7c9.5-1.3,20.1-8.9,23.1-11.2c4.4-3.4,8-7.8,10.4-12.8C178.9,238.2,178.8,235.9,178.7,234.2 M137.7,254.6   L137.7,254.6c-0.1-0.1-0.1-0.1-0.1-0.1c0-0.1,0-0.3,0-0.5s0-0.4-0.1-0.7c-0.1-1.1-0.1-2.2,0-3.3v-0.9c0.2-3.7,0.9-8.1,1.6-12.5   c0.3-1.6,0.5-3.1,0.7-4.5c0.3-2.2,1.9-4.4,3.6-4.8c1.8-0.4,3.6-0.6,5.4-0.6c0.3,0,0.6,0,0.9,0c1.9,0,3.7,0.2,5.5,0.7   c0.3,0.1,0.6,0.1,0.8,0.2c3,0.6,5.9,1.6,8.6,3.1c0.2,0.3,0.4,0.6,0.6,0.8c0.5,0.7,0.6,0.9,0.6,1.5c-0.2,1.6-0.5,2.6-1.8,4.2   c-3,3.8-6.5,7.1-10.4,10c-4,2.8-8.3,5.1-12.9,6.9C139.3,254.4,138.8,254.5,137.7,254.6"></path>
	<path id="Path_10153_00000031170355609677622790000009272521016634086056_" class="st0" d="M215.6,291c-0.3-0.1-0.6-0.2-0.9-0.3   c-1-0.4-2-0.7-3-0.8c-3.3-0.3-7,0-11.6,1.2c-2.6,0.7-11,2.3-12.8,2.5l-0.4,0.1c-1-0.3-1.1-1-1.1-2.7c0-0.4,0-0.7,0-1.1   c-0.1-1.7,0.2-5.7,0.4-7.4c0.1-1,0.4-2.4,0.5-3.5c0.1-0.5,0.1-0.9,0.2-1.1c0.3-2.1,1.1-5.7,1.4-6.8c2.9-10.8,6.7-26.9,8.3-36.5   c1.2-6.9,1.2-9.6,0.8-13.7c-0.5-5.4-2.5-6.3-5.5-7.5c-0.3-0.1-0.6-0.2-0.9-0.4c-2.1-0.9-3.6,0.2-4.8,1.1L186,214   c-1.4,1-1.9,2.7-2.3,4.3c-0.1,0.4-0.1,0.7-0.1,1.1v0.2c-0.4,7.3-0.8,14-2,20.9c-1.1,6.4-2.6,14.7-4.2,22.1c-1.1,5.1-1.9,9.6-2.5,13   c-0.7,4.4-1.3,9.3-1.4,12.9c-0.4,6.9,1.1,11.1,5.1,14.7c2.5,2.2,3.9,2.4,6.7,2.8h0.1c0.4,0.1,0.8,0.1,1.2,0.1   c2.3,0,4.4-0.8,6.6-1.7c0.6-0.2,1.1-0.4,1.7-0.7c0.4-0.1,0.8-0.3,1.2-0.5c1.4-0.5,3.2-1.2,5-1.8c2-0.6,5.5-1.8,7.7-2.6   c2.2-0.8,5.4-2.2,7.4-4c0.4-0.4,0.6-0.9,0.7-1.4C216.9,292.8,217,291.5,215.6,291"></path>
	<path id="Path_10154_00000010989522087185886380000015539793246166281112_" class="st0" d="M247,259.2c0.5-0.6,0.7-1.3,0.7-2   s-0.2-1.3-0.6-1.8c-0.1-0.1-0.2-0.3-0.4-0.4c0-0.1-0.1-0.1-0.1-0.2c-0.6-0.6-1.2-1.1-1.9-1.5c-0.5-0.3-0.9-0.6-1.2-1   s-0.5-0.8-0.5-1.3c-1.1-6-2.3-12.1-3.7-17.9c-0.2-1.3-0.5-2.5-0.8-3.7c-0.7-3.1-1.3-6.2-1.9-9.4v-0.1l-0.2-0.6   c-0.3-1.5-1.2-2.9-2.5-3.8c-1.2-1-2.7-1.6-4.2-1.7c-1.3,0-2.5,0.4-3.6,1c-2.1,1.2-3.7,3.1-4.5,5.3c-0.5,1.1-0.9,2.2-1.1,3.4   c-2.5,9.5-5.7,18.9-9.7,27.9c0,0,0,0,0,0.1l-0.7,1.8c-0.2,0.5-0.7,0.9-1.3,0.9c-0.5,0-1,0-1.6-0.1s-1.3-0.1-1.9-0.1h-0.1   c-1.2,0.2-2.4,0.8-3.1,1.8c-1.1,1.2-1.6,2.9-1.6,5c0,2.1,0.9,4.2,2.5,5.6c0,0,0.1,0,0.1,0.1c0.7,0.5,1.1,1.4,1.1,2.3   c0,0.6-0.1,1.1-0.3,1.7c-1.1,2.4-1.6,5.1-1.7,7.7c-0.1,2.6,1.1,5,3.1,6.7c0,0,0,0,0.1,0c0.8,0.6,1.7,0.9,2.7,0.9   c1.3,0,3.2-0.5,4.5-3c1-1.9,2.1-5.5,3.2-10.9c0.5-2.2,1.6-3.4,3.1-3.7c4.5-0.6,8.9-1.4,13.3-2.5l0,0c0,0,0.1,0,0.3,0.2   s0.3,0.5,0.3,0.8l0.4,2.5c0.4,4,1.1,8,2.1,11.9c0.6,2,1.8,3.4,3.7,4c0,0,0,0,0.1,0c0.5,0.1,1,0.2,1.5,0.2c1.3,0,3.4-0.6,3.9-4.3   v-0.1v-0.1c0.1-1.1,0.2-2.2,0.2-3.2l-0.4-8.2l-0.4-4.9c0-1.1,0.4-2.2,1.2-3l0.1-0.1l0.7-0.8C246.2,260.2,246.6,259.7,247,259.2    M223.9,253.7c-0.1-0.1-0.1-0.2-0.1-0.3v-0.1c1.3-4.2,2.8-8.3,4.7-12.3c1.3,3.7,2.1,7.5,2.4,11.4c-0.5,0.5-2,1.5-4.9,1.5   C225.3,253.9,224.6,253.8,223.9,253.7"></path>
	<path id="Path_10155_00000138570532338680445520000016628583687665210044_" class="st0" d="M319.1,262.8c0.4-1-0.1-2.1-1.1-2.4   c-0.3-0.1-0.5-0.1-0.8-0.1c-0.1,0-0.2,0-0.2,0c-6.2,1.4-18,9.1-23.7,7.7c-2.4-0.6-1.5-0.7-2-1.9c-0.3-0.6,0-1,0-1.4   c-0.2-1.6,0.2-3,0.6-4.4c0.2-0.7,0.4-1.5,0.5-2.3c0.1-1.1,0.2-1.3,0.8-2.1c0.1-0.1,0.2-0.3,0.4-0.4c0.4-0.4,0.9-0.8,1.4-1   c0.6-0.2,1.1-0.5,1.6-0.8c0.4-0.3,0.8-0.5,1.3-0.7c2.2-1.1,4.4-1.6,6.6-2.8c1.8-0.9,2.9-2.8,2.9-4.8c0-1.7-1.1-2.9-2.8-3.2   s-3.2,0.1-4.8,0c-0.5,0-1,0-1.6,0c-0.3,0-0.7,0-1,0.1c-0.1,0-0.3,0.1-0.3,0.1c-0.6,0-1.1,0.1-1.7,0.3c-0.5,0.2-1.1,0.4-1.5,0.3   c-0.4-0.1-0.4-0.2-0.8-0.3c0-0.2,0-0.5,0.1-0.8c0.4-3.7,1.6-11.8,2.4-14.3s0-0.1,0.5-1.3c0.2-0.4,0.2-0.1,0.5-0.2   c3.3-1.5,6.8-2,10.5-2.4c0.5-0.1,1.4-0.1,2.1-0.2c2-0.2,4.4-0.3,6.4-0.7c2.5-0.4,4.8-1.5,6.8-3.1c0,0,0.1,0,0.1-0.1   c0.7-0.5,0.9-1.2,0.6-2l-0.1-0.1c-1.6-2.1-3.4-2.6-6-3.1c-0.1,0-0.2,0-0.4-0.1c-3.8-0.7-7.6-1.1-11.4-1.3c-5.2-0.2-13,1.4-16.9,3.5   c-8.4,4.5-6,14.4-7,20.8c-0.3,2.1-0.2,1.4-0.3,2.2c-0.1,1-0.3,2.1-0.6,3.1c-0.3,1.2-0.4,1.2-1.1,2c-0.2,0.3-0.4,0.3-1,0.4   c-0.5,0.1-1.3,0.9-2,1.2c-1.3,0.5-2.3,1.2-3,2.4c-0.5,0.8-0.8,1.8-0.7,2.8c0.2,2.6,4.5,5.6,5.9,6.7c0.6,0.6,0.6,1.9,0.6,2   c0,3.5-0.4,6.7,0.5,10.2c1,3.7,3.2,6.2,6.4,8.4c0.2,0.1,0.3,0.2,0.5,0.3l0,0C290.8,280.6,312.4,281.3,319.1,262.8"></path>
	<path id="Path_10156_00000069370527893647948800000012842997266016936350_" class="st0" d="M376.6,245.3   c-3.2-14.3-20.1-23.3-33.7-23c-6.7,0.5-17.4,1.1-18.2,9.4c0.3,4.3,4,6.1,4,10.9c0.7,4-1,17,3.1,29.8c4.1,12.8,8.5-1.7,8.3-15.7   c0-2.7-2.2-23.6,5.7-22.9c38.6,3.2,11.2,44.4-12.1,50.6c-6.1,1.9-18.9,3.1-26.4,2.7c-2.6,0-7.3-0.9-9.5-1.2   c-9.8-1.3-12.6,4.6-3.5,9.4C328.5,306.6,379.5,286.7,376.6,245.3"></path>
	<path id="Path_10157_00000162335056621385425180000015120431539211449270_" class="st0" d="M134.1,199.1c0.6,1.1,2.5,1.7,3.1,1.8   c0.6,0,0.1,0,0.2,0h0.1c1.7-0.1,3.1-0.9,3.8-2.5c5.2-12,12.1-23.1,20.6-33c0.2-0.2,0.3-0.4,0.4-0.6c0.6-0.9,1.3-1.8,2.2-2.5   c23.4-17.1,50.5-29.2,79.5-31.3c3.1-0.2,6.2-0.3,9.3-0.2c28.3,0.7,54.3,11.4,75.8,29.7c0.4,0.3,0.9,0.6,1.4,0.8   c1.6,0.6,3,1.6,4.1,2.9c11.3,14.9,20.6,30.9,26.9,48.4c0.6,1.7,2,2.6,3.8,2.8c0.5,0,1.1,0.1,1.6,0c1.3,0,2.5-0.6,3.4-1.6   c0.8-1,1.1-2.4,0.7-3.6c-6.1-20.5-16.6-39.1-33.2-52.7c-0.9-0.7-1.6-1.5-2.2-2.4c-0.2-0.4-0.6-0.8-0.9-1.1   c-0.6-0.5-1.1-0.9-1.6-1.4c-0.1-0.1-0.1-0.2-0.2-0.2c-14.5-12.3-30.3-20.3-49.1-25c-18-4.5-39.5-5.4-57.6-2.8   c-26.3,3.8-49.7,13.6-67.9,32.6c-0.5,0.6-1.2,1.2-1.9,1.6c-0.4,0.2-0.8,0.5-1.1,0.9c-0.5,0.6-0.9,1.1-1.4,1.6   c-0.1,0.1-0.2,0.2-0.2,0.3c-8.8,10.1-15.3,21.3-20.1,33.8C133.3,196.6,133.6,198,134.1,199.1"></path>
	<path id="Path_10158_00000103987804141463042810000011219726103337134237_" class="st0" d="M368.2,298   c-2.2,25.5-31.3,53.9-54.4,63.8c-14.7,10.7-33.3,12.3-51,14.2c-39.2,4.4-81.3-10.3-108-40.4c-5.2-5.9-25.4-30.5-6.1-26   c5.4,6.9,9.1,15.3,14.7,22.3c29.9,33.5,77.4,43.4,120.1,33.2c20.6-4.9,37.9-18.1,54.8-30.1c5.4-5.8,11-11.4,13.9-19   C356.8,311.8,360.3,290.2,368.2,298"></path>
</g>
<g id="Group_106_00000096028870585562216540000010098745139503104413_" transform="translate(1.496 0.4)" class="st1">
	<path id="Path_1_00000080902517409223079760000010993170010941296805_" class="st2" d="M314.5,170.6v102.8h12.2v-35.8l37.5,35.8   h15.6l-39.1-38.7l36.4-34.4h-15.6l-34.8,31.6v-61.3L314.5,170.6L314.5,170.6z M117.2,170.6v102.8h12.2v-35.8l37.5,35.8h15.6   l-39.1-38.7l36.4-34.4h-15.6l-34.8,31.6v-61.3L117.2,170.6L117.2,170.6z M193.7,273.4h12.2V170.6h-12.2V273.4z M227.7,316.8   c-5.5,0-10-4.5-10-10s4.5-10,10-10h17.9C241.1,306.8,235.4,316.8,227.7,316.8L227.7,316.8z M300.7,200.3L300.7,200.3l-12.8-0.1   l-25.1,57.2l-29.7-57.2h-13.3l36.9,71.1l-6,13.7h-23c-12,0-21.8,9.8-21.8,21.8s9.8,21.8,21.8,21.8c16.9,0,24.9-18.3,30.7-31.8h42.3   V285h-37.1L300.7,200.3z"></path>
</g>
<g id="Group_403_00000067226401408070728810000009762426564670429597_" class="st1">
	<g id="Group_401_00000007424571795415693750000005485934721253360292_" class="st2">
		<path id="Path_763_00000046333185397437320150000013308283125495786640_" class="st3" d="M126.6,220.3c0,0.2-0.1,0.5-0.3,0.6    l-10,8.6c-0.2,0.2-0.5,0.2-0.8,0.2s-0.5-0.2-0.6-0.5c-0.6-1.5-1.4-3-2.3-4.4c-0.6-1-1.3-1.9-2.1-2.8c-0.8-0.9-1.8-1.6-2.9-2.1    c-1-0.6-2.2-0.7-3.4-0.5c-1.9,0.4-3.3,2.1-4.2,5.1c-1,3.3-1.3,6.8-0.7,10.3c0.5,4,2.2,7.8,4.8,10.9c2.6,3,6.1,4.9,10,5.3    c1,0.1,1.9,0.2,2.9,0.2c3.3,0,6.6-0.8,9.5-2.4c0.4-0.2,0.9-0.1,1.1,0.2c0.3,0.3,0.3,0.7,0,1c0,0,0,0-0.1,0.1    c-4.4,5.2-10.9,7.8-19.6,7.8c-7.1,0-12.9-2-17.6-5.9c-4.6-4-7-9.4-7-16.3c0-6.9,2.3-12.3,7-16.3s10.5-5.9,17.5-5.9    c7.9,0,13.9,2.1,18.2,6.4C126.6,219.8,126.7,220.1,126.6,220.3z"></path>
		<path id="Path_764_00000155129149553214399840000008746240982501499265_" class="st3" d="M154.4,257.8c-4.3,0.1-8.5-0.8-12.4-2.5    c-3.6-1.7-6.7-4.3-8.8-7.7c-2.3-3.6-3.4-7.8-3.3-12c0-6.9,2.3-12.3,7-16.3s10.5-5.9,17.5-5.9c4.3-0.1,8.5,0.8,12.4,2.5    c3.6,1.6,6.7,4.3,8.9,7.6c2.3,3.6,3.5,7.8,3.4,12.1c0,6.9-2.3,12.3-7,16.3C167.4,255.8,161.5,257.8,154.4,257.8z M157.4,222.6    c-2.3-2.7-4.6-3.7-6.7-3.2s-3.7,2.5-4.6,5.9c-0.9,3.6-0.8,7.7,0.2,12.3s2.8,8.3,5.3,11.1c2.3,2.7,4.6,3.7,6.7,3.2    c2.2-0.5,3.7-2.5,4.6-5.9c0.9-3.6,0.8-7.7-0.2-12.3C161.6,229.1,159.8,225.4,157.4,222.6L157.4,222.6z"></path>
		<path id="Path_765_00000173856315918242919880000013240930724032997556_" class="st3" d="M185.1,245.7v-37.2l-2.9-4.8    c-0.1-0.2-0.1-0.5,0-0.7s0.3-0.4,0.6-0.5l3-1h0.1l14.4-3.9c0.3-0.1,0.5,0,0.8,0.2c0.2,0.2,0.3,0.4,0.3,0.7v16h10.9    c0.5,0,0.8,0.4,0.8,0.8v10.6c0,0.3-0.1,0.6-0.4,0.8c-0.2,0.2-0.6,0.2-0.8,0l-10.6-4.5v20.6c0,2.3,0.6,3.9,1.7,4.8    c1.1,1,2.6,1.3,4,0.9c1.7-0.5,3.4-1.4,4.7-2.6c0.3-0.2,0.6-0.3,0.9-0.1c0.3,0.1,0.5,0.5,0.5,0.8v6.3c0,0.3-0.1,0.5-0.3,0.7    c-1.4,1.1-2.9,2.1-4.6,2.8c-1.5,0.6-3.2,1.1-4.8,1.4c-1.9,0.3-3.8,0.4-5.6,0.4s-3.6-0.2-5.4-0.8c-1.5-0.5-2.8-1.3-4-2.3    c-1.1-1.1-2-2.4-2.5-3.9C185.4,249.3,185.1,247.5,185.1,245.7z"></path>
		<path id="Path_766_00000124136292279124830530000015407734986304721032_" class="st3" d="M223.4,247.6v-37.2l-2.9-4.8    c-0.1-0.2-0.1-0.5,0-0.7s0.3-0.4,0.5-0.5l3-1h0.1l14.4-3.9c0.3-0.1,0.5,0,0.8,0.2c0.2,0.2,0.3,0.4,0.3,0.7v15.9h10.9    c0.5,0,0.8,0.4,0.8,0.9v10.6c0,0.3-0.1,0.6-0.4,0.8c-0.2,0.2-0.6,0.2-0.8,0l-10.6-4.5v20.6c0,2.3,0.6,3.9,1.7,4.8    c1.1,1,2.6,1.3,4,0.9c1.8-0.5,3.4-1.4,4.7-2.6c0.3-0.2,0.6-0.3,0.9-0.1c0.3,0.1,0.5,0.5,0.5,0.8v6.3c0,0.3-0.1,0.5-0.3,0.7    c-1.4,1.1-2.9,2.1-4.6,2.8c-1.5,0.6-3.2,1.1-4.8,1.4c-1.9,0.3-3.8,0.4-5.6,0.4s-3.6-0.2-5.4-0.8c-1.5-0.5-2.8-1.3-4-2.3    c-1.1-1.1-2-2.4-2.5-3.9C223.6,251.3,223.3,249.5,223.4,247.6z"></path>
		<path id="Path_767_00000176757087470006149530000014622149858696420238_" class="st3" d="M333.7,255.6l2.4-5.9v-22.3    c0-1.7-0.4-2.8-1.2-3.2c-1.1-0.6-2.9-0.1-5.5,1.4c-1.4,0.8-2.7,1.7-4,2.7v21.5l2.4,5.9c0.1,0.3,0.1,0.6-0.1,0.8    c-0.1,0.2-0.4,0.4-0.7,0.4h-19.3c-0.3,0-0.6-0.1-0.8-0.4c-0.2-0.2-0.2-0.5-0.1-0.8l2.2-5.5v-25l-2.7-4.5c-0.1-0.2-0.1-0.5,0-0.8    c0.1-0.2,0.3-0.4,0.5-0.5l17.5-4.8c0.3-0.1,0.5-0.1,0.8,0.1c0.2,0.2,0.3,0.4,0.3,0.7v4.5c2-1.6,4-3,6.2-4.3c2.7-1.4,5.8-2.1,8.8-2    c3.7,0.1,6.6,1.2,8.7,3.4s3.2,5.1,3.2,8.8V250l2.4,5.9c0.1,0.3,0.1,0.6-0.1,0.8c-0.1,0.2-0.4,0.4-0.7,0.4h-19.3    c-0.3,0-0.6-0.1-0.8-0.4C333.6,256.2,333.6,255.9,333.7,255.6z"></path>
	</g>
	<g id="Group_402_00000036972885826416013920000000513254186539765152_" class="st2">
		<path id="Path_768_00000150799783658872215050000009828829619711383684_" class="st3" d="M126.6,271.1c0,0.2-0.1,0.5-0.3,0.6    l-10,8.6c-0.2,0.2-0.5,0.2-0.8,0.2s-0.5-0.2-0.6-0.5c-0.6-1.5-1.4-3-2.3-4.4c-0.6-1-1.3-1.9-2.1-2.8c-0.8-0.9-1.8-1.6-2.9-2.2    c-1-0.6-2.2-0.7-3.4-0.5c-1.9,0.4-3.3,2.1-4.2,5.1c-1,3.3-1.3,6.8-0.7,10.3c0.5,4,2.2,7.8,4.8,10.9c2.6,3,6.1,4.9,10,5.3    c1,0.1,1.9,0.2,2.9,0.2c3.3,0,6.6-0.8,9.5-2.4c0.4-0.2,0.9-0.2,1.1,0.2c0.3,0.3,0.3,0.7,0,1c0,0,0,0-0.1,0.1    c-4.4,5.2-10.9,7.8-19.6,7.8c-7.1,0-12.9-2-17.6-5.9c-4.6-4-6.9-9.4-6.9-16.3s2.3-12.3,7-16.3s10.5-5.9,17.5-5.9    c7.9,0,13.9,2.1,18.2,6.4C126.6,270.6,126.7,270.9,126.6,271.1z"></path>
		<path id="Path_769_00000120519083992642815700000003469366292082153612_" class="st3" d="M154.4,308.6c-4.3,0.1-8.5-0.8-12.4-2.5    c-3.6-1.7-6.7-4.3-8.8-7.7c-2.3-3.6-3.4-7.8-3.3-12c0-6.9,2.3-12.3,7-16.3s10.5-5.9,17.5-5.9c4.3-0.1,8.5,0.8,12.4,2.5    c3.6,1.6,6.7,4.3,8.9,7.6c2.3,3.6,3.5,7.8,3.4,12.1c0,6.9-2.3,12.3-7,16.3C167.4,306.6,161.5,308.6,154.4,308.6z M157.4,273.4    c-2.3-2.7-4.6-3.7-6.7-3.2s-3.7,2.5-4.6,5.9c-0.9,3.6-0.8,7.7,0.2,12.3c1.1,4.6,2.8,8.3,5.3,11.1c2.3,2.7,4.6,3.7,6.7,3.2    c2.2-0.5,3.7-2.5,4.6-5.9c0.9-3.6,0.8-7.7-0.2-12.3C161.6,279.8,159.8,276.1,157.4,273.4L157.4,273.4z"></path>
		<path id="Path_770_00000075129111969614634760000018357113105071950209_" class="st3" d="M208.7,306.4l2.4-5.9v-22.3    c0-1.9-0.4-3-1.2-3.4c-1-0.5-2.6,0.1-4.8,1.5c-1.3,0.8-2.5,1.7-3.6,2.7c0,2.3,0,5.9,0,10.7c0,4.8,0,8.4,0,10.8l2.4,5.9    c0.1,0.3,0.1,0.6-0.1,0.8c-0.1,0.2-0.4,0.4-0.7,0.4H184c-0.3,0-0.6-0.1-0.8-0.4c-0.2-0.2-0.2-0.5-0.1-0.8l2.4-5.9v-25.1l-3-3.9    c-0.2-0.2-0.2-0.5-0.1-0.8c0.1-0.3,0.3-0.5,0.6-0.6l3-0.9h0.1l14.4-3.9c0.3-0.1,0.5-0.1,0.8,0.1c0.2,0.2,0.3,0.4,0.3,0.7v4.5    c2.3-1.9,3.8-3.1,4.6-3.6c2.8-1.9,6.2-2.9,9.6-2.7c1.6,0,3.2,0.3,4.7,0.8c1.4,0.5,2.7,1.3,3.7,2.4c1.1,1.1,1.9,2.4,2.5,3.9    c2.9-2.4,4.8-3.9,5.5-4.4c2.9-1.9,6.2-2.9,9.7-2.7c2.4,0,4.8,0.7,6.9,2c3.2,2.2,4.8,5.5,4.7,10.1v25l2,5.1    c0.1,0.3,0.1,0.6-0.1,0.8c-0.1,0.2-0.4,0.4-0.7,0.4h-19c-0.3,0-0.6-0.1-0.8-0.4c-0.2-0.2-0.2-0.5-0.1-0.8l2.5-5.9v-22.3    c0-1.9-0.4-3.1-1.3-3.4c-1-0.5-2.6,0.1-4.8,1.5c-1.3,0.9-2.5,1.8-3.7,2.8v22.2l2,5.1c0.1,0.3,0.1,0.6-0.1,0.8    c-0.2,0.3-0.5,0.4-0.8,0.4h-19c-0.3,0-0.5-0.1-0.7-0.4C208.6,306.9,208.6,306.6,208.7,306.4z"></path>
		<path id="Path_771_00000165214522643861291920000009360934297985434554_" class="st3" d="M273.9,259c1.3,2.3,3,4.4,5,6.1h11.5    c0.5,0,0.8,0.4,0.8,0.8v10.6c0,0.3-0.1,0.6-0.4,0.8c-0.2,0.2-0.6,0.2-0.8,0l-10.5-4.5v27.6l2.4,5.9c0.1,0.3,0.1,0.6-0.1,0.8    c-0.2,0.3-0.5,0.4-0.8,0.4h-19.3c-0.3,0-0.5-0.1-0.7-0.4c-0.2-0.2-0.2-0.5-0.1-0.8l2.4-5.9v-39.8c0-4.4,1.6-7.7,4.7-9.9    s7-3.2,11.5-3c4.8,0.2,8.6,1.3,11.4,3.5c0.2,0.2,0.3,0.4,0.3,0.7v10.3c0,0.4-0.2,0.7-0.5,0.8c-0.3,0.2-0.6,0.1-0.8-0.1    c-3.9-3.4-7.5-5.7-10.9-6.8c-2.9-1-4.7-1-5.3-0.1C273.1,256.7,273.2,257.7,273.9,259z"></path>
		<path id="Path_772_00000160877966426555201830000014449888637461782667_" class="st3" d="M318.9,308.6c-4.3,0.1-8.5-0.8-12.4-2.5    c-3.6-1.7-6.7-4.3-8.8-7.7c-2.3-3.6-3.4-7.8-3.3-12c0-6.9,2.3-12.3,7-16.3s10.5-5.9,17.5-5.9c4.3-0.1,8.5,0.8,12.4,2.5    c3.6,1.6,6.7,4.3,8.9,7.6c2.3,3.6,3.5,7.8,3.4,12.1c0,6.9-2.3,12.3-7,16.3C331.9,306.6,326,308.6,318.9,308.6z M321.9,273.4    c-2.3-2.7-4.6-3.7-6.7-3.2c-2.2,0.5-3.7,2.5-4.6,5.9c-0.9,3.6-0.8,7.7,0.2,12.3c1.1,4.6,2.8,8.3,5.3,11.1c2.3,2.7,4.6,3.7,6.7,3.2    c2.2-0.5,3.7-2.5,4.6-5.9c0.9-3.6,0.8-7.7-0.2-12.3C326.1,279.8,324.3,276.1,321.9,273.4L321.9,273.4z"></path>
		<path id="Path_773_00000159448982267396573630000010984036580666510242_" class="st3" d="M348.5,306.4l2.4-5.9v-24.4l-2.9-4.7    c-0.1-0.2-0.1-0.5,0-0.7c0.1-0.3,0.3-0.5,0.6-0.6l3-0.9h0.1l14.4-3.9c0.3-0.1,0.5-0.1,0.8,0.1c0.2,0.2,0.3,0.4,0.3,0.7v3.1    c2-1.8,4.3-3.2,6.8-4.1c2.5-1,5.3-1.1,7.9-0.4c0.4,0.1,0.6,0.5,0.6,0.9v12.8c0,0.5-0.3,0.8-0.8,0.9c-0.2,0-0.5-0.1-0.6-0.3    c-2.1-2.3-5.3-3.3-8.3-2.5c-1.2,0.2-2.4,0.7-3.5,1.4c-1,0.5-1.7,1.5-2,2.5c-0.1,0.2-0.1,0.5-0.1,0.7v19.6l2.4,5.9    c0.1,0.3,0.1,0.6-0.1,0.8c-0.1,0.2-0.4,0.4-0.7,0.4h-19.3c-0.3,0-0.6-0.1-0.8-0.4C348.4,306.9,348.3,306.6,348.5,306.4z"></path>
		<path id="Path_774_00000026164716574667714410000001400643693143432370_" class="st3" d="M388.4,296.4v-37.2l-2.9-4.8    c-0.1-0.2-0.1-0.5,0-0.7s0.3-0.4,0.6-0.5l3-1h0.1l14.4-3.9c0.3-0.1,0.5,0,0.8,0.2c0.2,0.2,0.3,0.4,0.3,0.7v15.9h10.9    c0.5,0,0.8,0.4,0.9,0.8v10.6c0,0.3-0.1,0.6-0.4,0.8c-0.2,0.2-0.6,0.2-0.8,0l-10.6-4.5v20.6c0,2.3,0.6,3.9,1.7,4.8    c1.1,1,2.6,1.3,4,0.9c1.7-0.5,3.4-1.4,4.7-2.6c0.3-0.2,0.6-0.3,0.9-0.1c0.3,0.1,0.5,0.5,0.5,0.8v6.3c0,0.3-0.1,0.5-0.3,0.7    c-1.4,1.1-2.9,2.1-4.6,2.8c-1.5,0.6-3.2,1.1-4.8,1.4c-1.9,0.3-3.8,0.4-5.6,0.4c-1.8,0-3.6-0.2-5.4-0.8c-1.5-0.5-2.8-1.3-4-2.3    c-1.1-1.1-2-2.4-2.5-3.9C388.7,300.1,388.4,298.3,388.4,296.4z"></path>
	</g>
	<path id="Path_775_00000011021565459731310420000009121096830803429296_" class="st4" d="M296.6,216.6c2.6-2.8,4.1-6.5,4.1-10.4   c0-1.9-0.3-3.8-1.1-5.5l0,0c-0.7-1.8-1.7-3.4-3-4.8c-1.5-1.5-3.2-2.7-5.2-3.4c-2.3-0.9-4.8-1.3-7.2-1.3c-2.2-0.1-4.3,0.8-5.8,2.4   l-0.4,0.5l-0.4-0.5c-1.5-1.6-3.6-2.4-5.8-2.4c-2.5,0-4.9,0.4-7.2,1.3c-2,0.7-3.7,1.9-5.2,3.4c-1.3,1.4-2.4,3-3.1,4.8   c-0.7,1.8-1.1,3.6-1,5.5c0,3.8,1.5,7.5,4.1,10.4c1.1,1.2,2.5,2.2,4,2.9c-1.8,0-3.6,0.2-5.3,0.4c4.7,5.1,8.2,5.4,13.2,5.4   c0.9,0,1.8,0.6,2.1,1.4c0.3,0.9,1,1.7,1.8,2.2s1.1,1.5,0.8,2.3c-1.1,4.4-4.5,7.8-8.8,9c-0.7,0.2-1.2,1-1,1.7s1,1.2,1.7,1l0,0   c5.1-1.4,9.2-5.4,10.6-10.5c0.2-0.6,0.3-1.2,0.5-1.8c0.1-0.6,0.5-1.1,1.1-1.4c1-0.5,1.9-1.4,2.3-2.5c0.3-0.9,1.2-1.5,2.2-1.5h0.1   c5.1,0,8.5-0.2,13.2-5.4c-1.8-0.3-3.5-0.4-5.3-0.4C294.1,218.8,295.5,217.8,296.6,216.6z M293.3,206.3c-0.3,2.8-1.6,5.3-3.6,7.3   l0,0c-1,1-3.6,3.5-9,4.2c1.2-3.9,0.4-5.8-2.7-11.2c-3,5.4-3.8,7.3-2.7,11.2c-5.3-0.7-7.8-3.1-8.8-4.1l0,0c-2-1.9-3.3-4.5-3.6-7.3   c-0.4-2.5-0.1-5.1,1-7.4c0.8-1.7,2.3-3,4.1-3.6c1.8-0.5,3.7-0.3,5.4,0.5c-0.1,2.6,1.9,4.8,4.5,5c2.6,0.1,4.8-1.9,5-4.5   c0-0.1,0-0.3,0-0.4c1.7-0.9,3.6-1.1,5.4-0.5s3.3,1.9,4.1,3.6C293.4,201.1,293.7,203.7,293.3,206.3z"></path>
</g>
<g class="st1">
	<g class="st2">
		<path class="st5" d="M143.4,253.4c-1.8,0-3.5-0.5-5-1.4s-2.7-2.1-3.6-3.6s-1.4-3.2-1.4-5s0.5-3.5,1.4-5s2.1-2.7,3.6-3.6    c1.5-0.9,3.2-1.4,5-1.4h19.5v6.7h-19.5c-0.9,0-1.7,0.3-2.3,1c-0.6,0.6-1,1.4-1,2.3s0.3,1.7,1,2.4c0.6,0.6,1.4,1,2.3,1H154    c1.8,0,3.5,0.5,5,1.4s2.7,2.1,3.6,3.6s1.4,3.2,1.4,5c0,1.8-0.5,3.5-1.4,5s-2.1,2.7-3.6,3.6s-3.2,1.4-5,1.4h-20v-6.7h20    c0.9,0,1.7-0.3,2.3-1c0.6-0.6,1-1.4,1-2.3s-0.3-1.7-1-2.4c-0.6-0.7-1.4-1-2.3-1H143.4L143.4,253.4z"></path>
		<path class="st5" d="M212.1,266.8h-18.9c-1.8,0-3.5-0.5-5-1.4s-2.7-2.1-3.6-3.6c-0.9-1.5-1.4-3.2-1.4-5v-13.4c0-1.8,0.5-3.5,1.4-5    s2.1-2.7,3.6-3.6c1.5-0.9,3.2-1.4,5-1.4h18.9v6.7h-18.9c-0.9,0-1.7,0.3-2.3,1c-0.6,0.6-1,1.4-1,2.3v3.3h18.9v6.7h-18.9v3.3    c0,0.9,0.3,1.7,1,2.3c0.6,0.6,1.4,1,2.3,1h18.9V266.8L212.1,266.8z"></path>
		<path class="st5" d="M262.7,245.6c0,2.1-0.6,3.9-1.7,5.6s-2.6,2.9-4.5,3.6l5.8,11.9h-7.4l-5.4-11.1h-10.1v11.1h-6.7v-14.5    c0-0.9,0.3-1.7,1-2.4s1.4-1,2.4-1h16.7c0.9,0,1.7-0.3,2.4-1c0.7-0.6,1-1.4,1-2.3v-2.2c0-0.9-0.3-1.7-1-2.3s-1.4-1-2.4-1h-20v-6.7    h20c1.8,0,3.5,0.5,5,1.4s2.7,2.1,3.6,3.6s1.4,3.2,1.4,5L262.7,245.6L262.7,245.6z"></path>
		<path class="st5" d="M297.6,233.4c0.7,0,1.3,0.2,1.8,0.5c0.5,0.4,1,0.8,1.2,1.4l14,31.3h-7.3l-9.7-21.8l-9.7,21.8h-7.3l14-31.3    c0.3-0.6,0.7-1.1,1.2-1.4C296.4,233.6,297,233.4,297.6,233.4z"></path>
		<path class="st5" d="M333.9,240.1v-6.7H355c1.8,0,3.5,0.5,5,1.4s2.7,2.1,3.6,3.6s1.4,3.2,1.4,5v2.2c0,1.8-0.5,3.5-1.4,5    s-2.1,2.7-3.6,3.6c-1.5,0.9-3.2,1.4-5,1.4h-14.4v11.1h-6.7V249H355c0.9,0,1.7-0.3,2.4-1c0.7-0.6,1-1.4,1-2.3v-2.2    c0-0.9-0.3-1.7-1-2.3s-1.4-1-2.4-1L333.9,240.1L333.9,240.1z"></path>
		<path class="st5" d="M390.9,253.4v13.3h-6.7v-33.3h6.7v13.3h15.6v-13.3h6.7v33.3h-6.7v-13.3L390.9,253.4L390.9,253.4z"></path>
		<path class="st5" d="M439.1,233.4v33.3h-6.7v-33.3L439.1,233.4L439.1,233.4z"></path>
		<path class="st5" d="M500,266.8h-6.7v-19l-11.7,17.5c-0.7,1-1.6,1.5-2.8,1.5l0,0c-1.2,0-2.1-0.6-2.8-1.5l-11-17.2v18.7h-6.7v-30    c0-0.7,0.2-1.4,0.7-2c0.4-0.6,1-1,1.7-1.2c1.6-0.4,2.8,0.1,3.8,1.4l14.5,22.4l15-22.4c0.9-1.3,2.2-1.7,3.7-1.4    c0.7,0.2,1.3,0.6,1.7,1.2c0.4,0.6,0.7,1.2,0.7,2L500,266.8L500,266.8z"></path>
	</g>
	<g class="st2">
		<g>
			
				<linearGradient id="SVGID_1_" gradientUnits="userSpaceOnUse" x1="-13830.0859" y1="8183.4819" x2="-13729.958" y2="8183.4819" gradientTransform="matrix(0.7071 -0.7071 0.7071 0.7071 4025.2078 -15262.8877)">
				<stop offset="0" style="stop-color:#78C8D2"></stop>
				<stop offset="0.4" style="stop-color:#4354A0"></stop>
				<stop offset="1" style="stop-color:#1B5D7F;stop-opacity:0"></stop>
			</linearGradient>
			<path class="st6" d="M14.7,285.3c19.5,19.5,51.2,19.5,70.8,0c19.5-19.5,19.5-51.2,0-70.8L14.7,285.3z"></path>
			
				<linearGradient id="SVGID_00000177454943017431596540000000532233391426874021_" gradientUnits="userSpaceOnUse" x1="-1622.8505" y1="4418.0029" x2="-1522.7231" y2="4418.0029" gradientTransform="matrix(0.7071 -0.7071 -0.7071 -0.7071 4268.4873 2244.1521)">
				<stop offset="0" style="stop-color:#F9B74D;stop-opacity:0"></stop>
				<stop offset="0.13" style="stop-color:#F6A542;stop-opacity:0.27"></stop>
				<stop offset="0.39" style="stop-color:#F0852D;stop-opacity:0.79"></stop>
				<stop offset="0.51" style="stop-color:#EE7B29"></stop>
				<stop offset="0.94" style="stop-color:#C74354"></stop>
			</linearGradient>
			<path style="fill:url(#SVGID_00000177454943017431596540000000532233391426874021_);" d="M14.7,285.4     c-19.5-19.5-19.5-51.2,0-70.8c19.5-19.5,51.2-19.5,70.8,0L14.7,285.4z"></path>
		</g>
		<g>
			
				<linearGradient id="SVGID_00000099653703960216964190000012950198267262806660_" gradientUnits="userSpaceOnUse" x1="1798.796" y1="7687.3726" x2="1865.5131" y2="7687.3726" gradientTransform="matrix(0.7071 -0.7071 0.7071 0.7071 -6680.8823 -3890.1873)">
				<stop offset="0" style="stop-color:#15A651;stop-opacity:0"></stop>
				<stop offset="5.000000e-02" style="stop-color:#15A651;stop-opacity:0.14"></stop>
				<stop offset="0.14" style="stop-color:#15A651;stop-opacity:0.37"></stop>
				<stop offset="0.25" style="stop-color:#15A651;stop-opacity:0.57"></stop>
				<stop offset="0.35" style="stop-color:#15A651;stop-opacity:0.72"></stop>
				<stop offset="0.47" style="stop-color:#15A651;stop-opacity:0.85"></stop>
				<stop offset="0.6" style="stop-color:#15A651;stop-opacity:0.93"></stop>
				<stop offset="0.76" style="stop-color:#15A651;stop-opacity:0.98"></stop>
				<stop offset="1" style="stop-color:#15A651"></stop>
			</linearGradient>
			<path style="fill:url(#SVGID_00000099653703960216964190000012950198267262806660_);" d="M50.3,216.6c-18.4,0-33.3,15-33.3,33.4     s14.9,33.4,33.4,33.4s33.4-14.9,33.4-33.4S68.8,216.6,50.3,216.6L50.3,216.6z"></path>
			
				<linearGradient id="SVGID_00000151525059649923360260000014823669782739016591_" gradientUnits="userSpaceOnUse" x1="-8133.0034" y1="-2824.8394" x2="-8066.2788" y2="-2824.8394" gradientTransform="matrix(0.5357 0.8444 -0.8444 0.5357 2003.9612 8602.5674)">
				<stop offset="0" style="stop-color:#F9B74D"></stop>
				<stop offset="8.000000e-02" style="stop-color:#F9B74D;stop-opacity:0.89"></stop>
				<stop offset="9.000000e-02" style="stop-color:#F9B74D;stop-opacity:0.85"></stop>
				<stop offset="0.14" style="stop-color:#F9B74D;stop-opacity:0.67"></stop>
				<stop offset="0.2" style="stop-color:#F9B74D;stop-opacity:0.51"></stop>
				<stop offset="0.26" style="stop-color:#F9B74D;stop-opacity:0.37"></stop>
				<stop offset="0.33" style="stop-color:#F9B74D;stop-opacity:0.26"></stop>
				<stop offset="0.41" style="stop-color:#F9B74D;stop-opacity:0.16"></stop>
				<stop offset="0.49" style="stop-color:#F9B74D;stop-opacity:9.000000e-02"></stop>
				<stop offset="0.59" style="stop-color:#F9B74D;stop-opacity:4.000000e-02"></stop>
				<stop offset="0.72" style="stop-color:#F9B74D;stop-opacity:0"></stop>
				<stop offset="1" style="stop-color:#F9B74D;stop-opacity:0"></stop>
			</linearGradient>
			<circle style="fill:url(#SVGID_00000151525059649923360260000014823669782739016591_);" cx="50.3" cy="250" r="33.4"></circle>
		</g>
	</g>
</g>
<g class="st1">
	<g class="st2">
		<path class="st10" d="M226.1,185.2c-2,0-4-0.1-5.9-0.3c-10.6-1.2-17.8-5.7-20.3-12.6c-2.5-6.9,0.1-15,7.4-22.7    c6.5-6.9,16.3-12.9,27.4-17c11.1-4.1,22.5-5.7,31.9-4.6c10.6,1.2,17.8,5.7,20.3,12.6l0,0c2.5,6.9-0.1,15-7.4,22.7    c-6.5,6.9-16.3,12.9-27.4,17C243.2,183.5,234.2,185.2,226.1,185.2z M260.8,136.6c-6.6,0-14.5,1.3-23,4.4    c-9.8,3.6-18.4,8.8-24,14.7c-4.8,5-6.8,9.9-5.5,13.4s6,6,12.8,6.8c8.1,0.9,18-0.5,27.8-4.1c20.7-7.5,32.1-20.9,29.4-28.2    C276.9,139.4,270.2,136.6,260.8,136.6z"></path>
	</g>
	<g class="st2">
		<g>
			<g>
				<path class="st10" d="M181.8,181l10.5,0.1v26c1.2-2.6,6.7-6.3,13-6.3c14.4,0,16.8,11.3,16.8,18.5v26.4h-10.5v-24.8      c0-8.5-3.9-11.3-8.9-11.3s-10.4,3.8-10.4,11.3v24.8h-10.5L181.8,181z"></path>
			</g>
			<g>
				<path class="st10" d="M227.4,223.7c0-15.4,10.6-23,22.4-23c11.7,0,22.7,7.7,21.4,25.3l-33.7,0.4c0,3.5,2.8,11.4,11.6,11.9      c6.6,0.3,10.4-3,12.3-6.7l9.2,2.7c-2.2,5.4-9.1,12.4-20.6,12.4C235.8,246.6,227.4,236.3,227.4,223.7z M238.1,218.4l22.7-0.1      c0-4.2-4.3-9.9-12.7-9.2C242.9,209.6,238.6,213.5,238.1,218.4z"></path>
			</g>
			<g>
				<path class="st10" d="M287.8,245.9h-10.5v-64.7h10.5V245.9z"></path>
			</g>
			<g>
				<path class="st10" d="M294.4,201.8l9.2,0.1l0.4,4.6c2.6-3.7,7.1-6.1,13.6-6.1c9.6,0,21.5,8.9,20.3,25.5      c-1.1,14.2-10.7,19.9-18.6,20.8c-4.4,0.5-10.6-0.4-15.1-4.9l0.1,20.9l-9.7,0.1L294.4,201.8z M316,237.8      c6.7,0.1,12.3-5.9,12.3-14.1c0-7.6-5.3-14.2-12.7-13.8c-9.4,0.4-11.9,8.2-11.9,13.9C303.8,231.6,308,237.6,316,237.8z"></path>
			</g>
		</g>
	</g>
	<g class="st2">
		<path class="st10" d="M190.8,255v6.2c0.8-1.2,5-6.7,11.4-7.5c8.9-1.2,13.2,4.2,14.7,7.9c1.9-3.7,6.1-7,12.5-7.9    c12.2-1.6,16.8,8.7,16.8,16.1v28.8h-9.7v-25.3c0-5.5-1.3-10.7-6.9-10.7c-7.1,0-10.6,5.2-10.6,13v23h-9.7v-22.8    c0-7.1-1-13.2-7.6-13.2c-7.1,0-10.4,5.1-10.4,15v21h-9.7V255H190.8z"></path>
	</g>
	<g class="st2">
		<path class="st10" d="M154.5,288.6l23.7,63.4h-11.1l-5.6-16h-25.9l-5.7,16h-11.1l24-63.5L154.5,288.6z M148.4,299.6l-9.9,27.1    h19.9L148.4,299.6z"></path>
	</g>
	<g class="st2">
		<path class="st10" d="M191.4,308.2v6.2c0.8-1.2,4.5-6.6,11.3-7.4c9.4-1.2,14.9,3.4,17,7.8c1.2,2.7,2,6.3,2,14.1v23h-10.2v-23.6    c0-7.6-1.2-12.8-10.7-12.3c-3.9,0.1-9,4.5-9,14v21.9h-9.9v-43.7H191.4z"></path>
	</g>
	<g class="st2">
		<path class="st10" d="M277.4,329.8c0-15.4,10.6-23,22.4-23c11.7,0,22.7,7.7,21.4,25.3l-33.7,0.4c0,3.5,2.8,11.4,11.6,11.9    c6.6,0.3,10.4-3,12.3-6.7l9.2,2.7c-2.2,5.4-9.1,12.4-20.6,12.4C285.8,352.7,277.4,342.5,277.4,329.8z M288,324.6l22.7-0.1    c0-4.2-4.3-9.9-12.7-9.2C292.9,315.7,288.6,319.6,288,324.6z"></path>
	</g>
	<g class="st2">
		<path class="st10" d="M336.6,352h-10.5v-64.7h10.5V352z"></path>
	</g>
	<g class="st2">
		<path class="st10" d="M341.7,340.8c-0.6-8.6,4.6-13.6,14-15.2c4.3-0.7,9.4-1.2,14.4-0.4c1-2.8,0.6-7.9-5.5-9.5    c-5.6-1.4-10.9,0.1-12.9,5.8l-8.7-3.2c0.9-2.7,2.9-6.3,8.2-9.2c4.5-2.7,12.6-3.5,18.6-1.2c7.4,2.7,11.1,9,11.1,14.9l0.3,29.1h-9.7    l-0.4-5.6c-2,2.7-6.2,6.2-12.1,6.7C349.8,353.9,342.5,348.7,341.7,340.8z M371.1,333.3c-8.8-0.6-19.5-1.9-19.5,5.8    c0,4.3,4.7,7.1,10.5,5.8C368.7,343.3,371.8,337.8,371.1,333.3z"></path>
	</g>
	<path class="st11" d="M305.8,282.3c-7-3-12.5-1.8-17.6,1.7c-0.2,0.2-2.1,1.6-3.8,3.2c-3.1,3.1-5.8,4.2-10.9,4   c-7.3-0.4-10.5-6-11.4-9.9c-0.2-0.8-0.2-1.4-0.2-2l33.7-0.4c1.3-17.6-9.7-25.3-21.4-25.3c-11.8,0-22.4,7.6-22.4,23   c0,1.3,0.1,2.6,0.3,3.9c0,0.1,0,0.3,0.1,0.4c0,0.2,0,0.3,0.1,0.5c2,11.9,11.4,18.7,21.9,18.7c3.4,0,6.2-0.7,8.7-1.9   c2.7-1.2,5-3,7.2-5c1.1-0.8,1.9-1.5,2.7-2.1c2.3-1.7,3.5-2.3,6.1-2.4c2.2-0.1,5.1,1.4,4.6,3.9c-0.4,1.9-1.8,3.2-4.2,3.8   c-2.3,0.5-9.7,1.9-16.5,4.2l0,0c-2.2,0.7-4.2,1.5-5.9,2.4c-0.1,0-0.2,0.1-0.2,0.1c-0.2,0.1-0.5,0.2-0.7,0.4   c-8.4,4.6-10.3,10.6-11.1,12.3c0,0,0,0.1-0.1,0.1c0,0-4.6-9.1-17-9.1c-1.4,0-2.7,0.1-3.9,0.4c0,0,0,0-0.1,0l0,0   c-8.4,1.9-15.6,9.1-16.5,19.5c-0.9,11.1,4.2,19.8,11.5,23.4c6.5,3.3,16.4,3.8,23-3.9c0,12.4-4.9,17-12.7,17c-5,0-8.5-2.7-10.9-7.2   l-9.7,2.7c5.1,12,15.2,14.3,22.4,13.7c14.2-1.1,20.8-11.2,20.8-23.8c0-5-0.1-12.3-0.1-20.3c0-2.4,0.3-4.8,1-7.1   c0.3-0.8,0.6-1.6,0.9-2.4c4.3-9,14.1-13.6,25.7-14.8c9.6-1,13-6.5,13.2-10.6C312.6,287.7,309.3,283.8,305.8,282.3z M272.5,262.1   c8.3-0.7,12.7,5.1,12.7,9.2l-22.7,0.1C263,266.4,267.3,262.5,272.5,262.1z M248.7,343.1c-6.3,0-11.6-5.9-11.6-13.6   c0-7.1,4-12,9.5-13.4c0,0,0,0,0,0.1c0.9-0.2,1.9-0.3,2.9-0.3c1.1,0,2.2,0.1,3.2,0.4c1.5,0.4,2.9,1.2,4.2,2.2   c2.6,2.1,4.5,5.5,4.8,10.1c0,0.3,0,0.6,0,1C261.6,339.4,254.8,343.1,248.7,343.1z"></path>
</g>
<g class="st1">
	<g class="st2">
		<path class="st12" d="M151.2,222.7c-3.5,0.1-6.5-2.7-6.6-6.2s2.7-6.5,6.2-6.6c0.1,0,0.2,0,0.3,0h0.1c3.5,0,6.4,2.9,6.4,6.4    C157.6,219.9,154.8,222.7,151.2,222.7L151.2,222.7"></path>
		<path class="st12" d="M131.2,296c-3.5,0-6.4-2.9-6.4-6.4v-26.2c0-11-8.9-19.9-19.9-19.9S85,252.4,85,263.4v26.2    c-0.1,3.5-3,6.3-6.5,6.2c-3.4-0.1-6.1-2.8-6.2-6.2v-26.2c0-18,14.6-32.7,32.7-32.7s32.7,14.6,32.7,32.7v26.2    C137.6,293.2,134.7,296,131.2,296L131.2,296"></path>
		<path class="st12" d="M239.3,230.9c-9.1,0-17.2,4.8-22.5,12.2c-5.3-7.4-13.4-12.2-22.5-12.2c-15.9,0-28.9,14.7-28.9,32.7v26.1    c-0.1,3.5,2.7,6.5,6.2,6.5c3.5,0.1,6.5-2.7,6.5-6.2c0-0.1,0-0.2,0-0.3v-26.1c0-11,7.2-19.9,16.1-19.9c8.9,0,16.1,8.9,16.1,19.9    v26.1c0,3.5,2.9,6.4,6.4,6.4s6.4-2.9,6.4-6.4v-26.1c0-11,7.2-19.9,16.1-19.9c8.9,0,16.1,8.9,16.1,19.9v26.1    c-0.1,3.5,2.7,6.4,6.2,6.5s6.5-2.7,6.5-6.2c0-0.1,0-0.2,0-0.3v-26.1C268.1,245.5,255.2,230.9,239.3,230.9"></path>
		<path class="st12" d="M376.2,257.1h37.7c-3.5-10.4-14.8-16-25.2-12.5C382.8,246.7,378.2,251.3,376.2,257.1 M395.1,296.2    c-18,0-32.7-14.6-32.7-32.6s14.6-32.7,32.6-32.7s32.7,14.6,32.7,32.6l0,0c0,3.5-2.9,6.4-6.4,6.4l0,0h-45.1    c2.7,8.1,10.3,13.5,18.9,13.5c3,0,5.9-0.7,8.6-1.9c3.2-1.5,7-0.2,8.5,3s0.2,7-3,8.5C404.8,295.1,400,296.2,395.1,296.2"></path>
		<path class="st12" d="M151.2,296c-3.5,0-6.4-2.8-6.4-6.4l0,0v-54.1c0.1-3.5,3-6.3,6.5-6.2c3.4,0.1,6.2,2.8,6.2,6.2v27.3    c0,0.2,0,0.4,0,0.6s0,0.4,0,0.7v25.5C157.6,293.2,154.7,296,151.2,296"></path>
		<path class="st12" d="M350.4,296c-3.5,0-6.4-2.9-6.4-6.4v-79.5c0-3.5,2.8-6.4,6.3-6.4s6.4,2.8,6.4,6.3v0.1v52.6c0,0.4,0,0.9,0,1.3    v25.5C356.8,293.2,354,296,350.4,296L350.4,296"></path>
		<path class="st12" d="M306.5,230.9c-7.5,0-14.4,2.5-19.9,6.8v-0.1v-27.3c0-3.5-2.9-6.4-6.4-6.4s-6.4,2.9-6.4,6.4v53    c0,0.1,0,0.2,0,0.3c0,0.1,0,0.2,0,0.3v0.5c0,0.2,0,0.3,0,0.5c0.7,17.5,15,31.4,32.6,31.4c18,0,32.6-14.6,32.7-32.7l0,0    C339.2,245.5,324.5,230.9,306.5,230.9 M306.5,283.4c-11,0-19.9-8.9-19.9-19.9s8.9-19.9,19.9-19.9c3.3,0,6.5,0.8,9.4,2.4    c6.4,3.5,10.5,10.2,10.5,17.5C326.4,274.5,317.5,283.4,306.5,283.4"></path>
	</g>
</g>
<g class="st1">
	<path id="Path_23_00000029731757415604085620000014674135306132574617_" class="st13" d="M164.7,202.2l-10.1-6.2l4.7-7.7l10.1,6.2   l5-8.1l-25.9-15.9l-5,8.1l9.3,5.7l-4.7,7.7l-9.3-5.7l-5,8.1l25.9,15.9L164.7,202.2z"></path>
	<path id="Path_24_00000125598530043916383160000015193814026257159590_" class="st13" d="M191.9,170.4l-5.2-5.6l-7.9,7.3l-2.9-3.2   l6.9-6.4l-4.9-5.3l-6.9,6.4l-2.6-2.8l7.9-7.3l-5.1-5.6l-14.9,13.8l20.6,22.3L191.9,170.4z"></path>
	<path id="Path_25_00000111183325413665989190000008432785681665541772_" class="st13" d="M200.6,165l-0.7-4.8l9-4.6l3.4,3.4l9-4.5   l-23.6-22.1l-9.8,5l3.8,32.1L200.6,165z M203.6,150.3l-4.9,2.5l-1.4-8.8L203.6,150.3z"></path>
	<g id="Group_7_00000013171669032195921360000014283557148315643326_" transform="translate(0)" class="st2">
		<g>
			<g>
				<defs>
					<rect id="SVGID_00000182520755344648378260000016077170441839220361_" x="126.5" y="121.5" width="247.1" height="257.1"></rect>
				</defs>
				<clipPath id="SVGID_00000065057240287114495830000016792215517959104155_">
					<use xlink:href="#SVGID_00000182520755344648378260000016077170441839220361_" style="overflow:visible;"></use>
				</clipPath>
				
					<g id="Group_6_00000145031442418675984470000002944017258850253207_" style="clip-path:url(#SVGID_00000065057240287114495830000016792215517959104155_);">
					<path id="Path_26_00000106848794266665443200000015605353457805003707_" class="st15" d="M234.6,152.8c2.9-0.4,5.6-1.5,7.9-3.2       c2.1-1.6,3.7-3.8,4.6-6.2c0.9-2.6,1.2-5.3,0.7-8c-0.4-2.7-1.4-5.3-3.1-7.4c-1.6-2.1-3.8-3.6-6.3-4.5c-2.8-0.9-5.7-1.1-8.5-0.6       l-12.5,1.9l4.6,30L234.6,152.8z M230.4,131.1c2.1-0.3,3.9,0,5.3,1c1.4,1,2.3,2.5,2.6,4.7c0.3,2.1,0,3.9-1.1,5.3       s-2.7,2.2-4.8,2.5l-2.2,0.3l-2.1-13.4L230.4,131.1z"></path>
					<path id="Path_27_00000073693107026071354250000017290416123901311154_" class="st15" d="M264.4,152.7c2.1,0.3,4.2,0.2,6.2-0.4       c1.7-0.5,3.2-1.5,4.3-2.8c1.1-1.3,1.8-2.8,2-4.5c0.3-2,0-3.7-0.8-5.1c-0.7-1.3-1.7-2.5-2.9-3.4c-1.4-1-3-1.9-4.5-2.6       c-1.1-0.5-2.2-1.2-3.2-1.9c-0.7-0.5-1-1.1-0.9-1.7c0-0.4,0.2-0.8,0.5-1s0.7-0.3,1-0.2c1.2,0.2,1.7,1,1.6,2.6L278,133       c0.2-3.2-0.6-5.7-2.5-7.7s-4.7-3.2-8.3-3.6c-2-0.3-4.1-0.2-6,0.3c-1.7,0.4-3.3,1.3-4.5,2.6c-1.2,1.3-2,3-2.2,4.8       c-0.3,2,0,3.8,0.8,5.2c0.7,1.3,1.7,2.5,2.9,3.3c1.4,1,2.9,1.8,4.5,2.5c1.2,0.5,2.3,1.2,3.3,1.9c0.6,0.4,1,1.1,0.9,1.8       c0,0.4-0.2,0.8-0.6,1s-0.8,0.3-1.2,0.2c-1.4-0.2-2-1.1-2-2.9l-10-1.3c-0.2,3.3,0.7,5.9,2.8,7.9       C257.9,151,260.8,152.3,264.4,152.7"></path>
					<path id="Path_28_00000128452468797841831340000000457679367702462399_" class="st15" d="M286.6,158.1l4.8-10.8l8.3,3.7       l-4.8,10.8l8.7,3.9l12.4-27.8l-8.7-3.9l-4.5,10l-8.3-3.7l4.5-10l-8.7-3.9l-12.4,27.8L286.6,158.1z"></path>
					<path id="Path_29_00000169529209079631017340000011986567958789043641_" class="st15" d="M311.7,162.5c-0.6,2.6-0.4,5.4,0.5,8       c1.8,5.3,6.2,9.3,11.6,10.6c2.6,0.6,5.4,0.5,7.9-0.3c2.7-0.9,5.1-2.4,6.9-4.5c1.9-2.1,3.3-4.6,3.9-7.3c0.6-2.6,0.4-5.4-0.4-7.9       c-1.8-5.3-6.2-9.3-11.6-10.6c-2.6-0.6-5.4-0.5-7.9,0.3c-2.7,0.8-5.1,2.4-7,4.5C313.6,157.2,312.3,159.8,311.7,162.5        M322.7,161.7c1.4-1.5,2.9-2.4,4.5-2.6s3.1,0.3,4.5,1.6s2.1,2.7,2,4.3s-0.8,3.2-2.2,4.7c-1.4,1.5-2.9,2.4-4.5,2.6       c-1.6,0.2-3.1-0.3-4.5-1.6s-2.1-2.7-2-4.3C320.6,164.8,321.3,163.2,322.7,161.7"></path>
					<path id="Path_30_00000041975632397668796970000007201913242816551562_" class="st15" d="M332.5,195l4.9,8.2l19.6-11.8l4.2,6.9       l6.5-3.9l-13.2-21.9l-6.5,3.9l4.1,6.8L332.5,195z"></path>
					<path id="Path_31_00000127005705248097530380000002135589214255832715_" class="st15" d="M148.7,301.4c1.8,0.3,3.7,0.1,5.3-0.6       c3-1.1,5-3,6-5.5c1.1-2.5,0.9-5.5-0.4-9l-4.8-12.4l-28.4,10.9l3.4,8.9l9-3.5l1.4,3.5c0.7,2.1,1.9,3.9,3.5,5.4       C145.1,300.3,146.8,301.1,148.7,301.4 M151.1,285.4l1,2.5c0.7,1.8,0.2,3.1-1.5,3.8c-1.7,0.7-3,0.1-3.7-1.8l-1-2.5L151.1,285.4z       "></path>
					<path id="Path_32_00000163068882124911993610000015441739413783091867_" class="st15" d="M175.8,313.3l-8.7,6.7l-5.5-7.2       l8.7-6.7l-5.8-7.5l-24,18.6l5.8,7.5l9.4-7.3l5.5,7.2l-9.4,7.3l5.8,7.5l24-18.6L175.8,313.3z"></path>
					<path id="Path_33_00000143592336370824095300000003684567969623186054_" class="st15" d="M196.1,330.6       c-2.3-1.6-4.9-2.5-7.6-2.8c-2.7-0.2-5.4,0.2-7.8,1.4c-5.1,2.6-8.5,7.6-9,13.3c-0.2,2.7,0.4,5.4,1.6,7.8c2.5,5,7.5,8.3,13,8.8       c2.7,0.2,5.4-0.3,7.8-1.4c5.1-2.6,8.5-7.6,9-13.3c0.2-2.7-0.3-5.4-1.6-7.8C200.3,334.2,198.4,332.1,196.1,330.6 M192.3,346.9       c-1.2,1.7-2.5,2.8-4,3.2c-1.5,0.4-3.1,0.1-4.6-0.9c-1.6-1.1-2.5-2.4-2.6-4s0.3-3.2,1.5-4.9c1.2-1.7,2.5-2.8,4.1-3.2       c1.5-0.4,3.1-0.1,4.7,1c1.6,1.1,2.4,2.4,2.6,4C194,343.5,193.5,345.1,192.3,346.9"></path>
					<path id="Path_34_00000130617965125036936520000009912745247708079796_" class="st15" d="M207.1,346.8l7.6,2.4L208,371l9.1,2.8       l6.8-21.8l7.7,2.4l2.2-7.2l-24.4-7.6L207.1,346.8z"></path>
					<path id="Path_35_00000153693750953586241700000001981736119370271369_" class="st15" d="M257.8,349.4       c-4.9-2.7-10.8-2.8-15.7-0.3c-2.4,1.3-4.4,3.2-5.8,5.5c-2.9,4.9-3,11-0.3,16.1c1.3,2.4,3.3,4.3,5.6,5.7       c4.8,2.8,10.8,2.9,15.7,0.3c2.4-1.3,4.4-3.2,5.8-5.5c2.9-4.9,3-11,0.3-16.1C262.1,352.7,260.1,350.8,257.8,349.4 M254,367.9       c-1.1,1.2-2.5,1.8-4.4,1.8s-3.4-0.7-4.4-1.9s-1.5-2.9-1.5-4.9c0-2.1,0.6-3.7,1.6-4.9c1.1-1.2,2.5-1.8,4.5-1.8       c1.9,0,3.3,0.7,4.3,1.9c1,1.2,1.5,2.9,1.5,5C255.6,365.1,255.1,366.7,254,367.9"></path>
					<path id="Path_36_00000180354630725036732060000000208409938059590023_" class="st15" d="M300.7,355.4c0,1-0.3,2-0.9,2.9       s-1.4,1.5-2.3,1.9c-1.3,0.6-2.9,0.6-4.2-0.2c-1.3-0.7-2.4-2.1-3.2-3.9c-0.8-1.9-1-3.5-0.6-5c0.4-1.4,1.4-2.6,2.8-3.1       c0.9-0.4,2-0.5,3-0.4c1,0.2,2,0.7,2.7,1.4l9.3-3.9c-1.2-1.9-2.9-3.6-4.9-4.8c-1.9-1.2-4.1-1.8-6.3-1.9       c-2.4-0.1-4.9,0.4-7.1,1.4c-2.6,1-4.9,2.7-6.6,4.9c-1.6,2-2.5,4.5-2.7,7.1c-0.3,5.6,2,11.1,6.3,14.8c2,1.7,4.4,2.7,6.9,3       c2.8,0.3,5.6-0.2,8.1-1.3c2.3-0.9,4.3-2.3,5.9-4.1c1.5-1.7,2.5-3.7,3-5.8c0.5-2.3,0.5-4.6-0.1-6.8L300.7,355.4z"></path>
					<path id="Path_37_00000005973373738621359670000001734280568973769385_" class="st15" d="M326.2,344.7l-14.3-18.2l-7.5,5.9       l18.8,23.9l14.7-11.6l-4.5-5.7L326.2,344.7z"></path>
					<path id="Path_38_00000042708265034136363280000001966209540036414887_" class="st15" d="M350.8,308.5l-13.7-10.3l-5.7,7.6       l13.7,10.3c1,0.7,1.7,1.7,2.1,2.8c0.3,1,0,2.1-0.9,3.2c-0.8,1.1-1.8,1.6-2.8,1.6c-1.2-0.1-2.3-0.5-3.2-1.3l-13.6-10.3l-5.7,7.6       l13.7,10.3c2.3,1.8,4.6,2.8,6.9,3.2c2.2,0.4,4.5,0,6.5-0.9c2.1-1.1,4-2.6,5.4-4.5c1.5-1.9,2.5-4.1,3-6.5       c0.4-2.3,0.2-4.6-0.7-6.7C354.7,312.3,353.1,310.3,350.8,308.5"></path>
					<path id="Path_39_00000035505433144443675540000006812271274101879966_" class="st15" d="M373.1,283.4       c-0.7-2.2-2.4-3.7-4.9-4.6c-1.6-0.6-3.3-0.7-4.9-0.2s-3.1,1.6-4,3.1c0.2-1.5-0.2-3-1-4.3c-0.9-1.3-2.2-2.4-3.7-2.9       c-2.4-0.9-4.6-0.7-6.4,0.4c-1.9,1.2-3.4,3.2-4.4,6.1l-5.4,14.5l28.5,10.6l5.6-14.9C373.6,288.2,373.8,285.6,373.1,283.4        M354.2,287.4l-1.3,3.5l-4-1.5l1.3-3.5c0.2-0.7,0.6-1.2,1.2-1.6c0.6-0.3,1.2-0.3,1.8,0c0.6,0.2,1,0.6,1.3,1.1       C354.5,286.1,354.4,286.8,354.2,287.4 M364.6,290.6l-1.5,4.1l-4-1.5l1.5-4.1c0.6-1.6,1.6-2.1,2.9-1.6c0.6,0.2,1.1,0.6,1.3,1.1       C365,289.3,364.9,290,364.6,290.6"></path>
					<path id="Path_40_00000121993411954768970830000005295371287681075332_" class="st15" d="M140.3,242.9c0.1-1.4,0.2-2.9,0.4-4.5       c0.9-8.9,2.9-17.6,5.9-26.1c0.5-1.4-0.2-2.9-1.6-3.4c-0.6-0.2-1.2-0.2-1.8,0c-0.7,0.3-1.3,0.8-1.6,1.6       c-3.2,8.9-5.3,18.2-6.2,27.6c-0.2,1.5-0.3,3.1-0.4,4.6c-0.1,2.1-0.2,4.2-0.2,6.2v0.7c0,1.4,0,2.7,0.1,3.9       c0.2,5.4,0.7,10.7,1.7,16c0.3,1.4,1.6,2.4,3.1,2.1c0.1,0,0.3-0.1,0.4-0.1h0.1c1.2-0.5,1.9-1.7,1.7-2.9       c-0.9-5.3-1.5-10.7-1.6-16c0-1,0-2,0-3c0-0.5,0-1,0-1.5C140.1,246.3,140.1,244.6,140.3,242.9"></path>
					<path id="Path_41_00000008134110906688156410000011206637778639639482_" class="st15" d="M360.2,266.6c-0.2,1.4,0.8,2.8,2.2,3       c0.6,0.1,1.2,0,1.7-0.3c0.7-0.4,1.2-1.1,1.3-1.9c0.8-5.2,1.2-10.5,1.3-15.7c0-0.7,0-1.3,0-2c0-0.9,0-1.8,0-2.6       c0-1.5-0.1-2.9-0.2-4.2c-0.1-1.5-0.2-3.1-0.4-4.7c-0.9-9.4-3-18.7-6.2-27.6c-0.5-1.4-2-2.1-3.4-1.6c-0.2,0.1-0.3,0.1-0.5,0.2       c-1.1,0.7-1.5,2-1.1,3.1c3,8.4,5,17.2,5.9,26.1c0.2,1.6,0.3,3.1,0.4,4.5c0.1,1.2,0.1,2.3,0.2,3.3c0,1.1,0.1,2.3,0.1,3.4       c0,0.4,0,0.8,0,1.2C361.4,256.1,361,261.4,360.2,266.6"></path>
					<path id="Path_42_00000116958353825003624510000001626248190469802685_" class="st15" d="M215.2,269.2       c-5.2-9.4-6.4-20.6-3.4-30.9c1.1-3.8-1.1-7.7-4.8-8.8c-3.8-1.1-7.7,1.1-8.8,4.8l0,0c-8.5,29,8.2,59.4,37.3,67.9       c29,8.5,59.4-8.2,67.9-37.3c1.1-3.8-1.1-7.7-4.8-8.8s-7.7,1.1-8.8,4.8c-6.3,21.5-28.8,33.9-50.3,27.6       C229.1,285.6,220.4,278.7,215.2,269.2"></path>
					<path id="Path_43_00000097474646666810564010000007750240786435831974_" class="st15" d="M220.4,216.4c4.9,1.4,10-1.4,11.4-6.3       c1.4-4.9-1.4-10-6.3-11.4c-4.9-1.4-10,1.4-11.4,6.3C212.7,209.8,215.5,214.9,220.4,216.4L220.4,216.4"></path>
					<path id="Path_44_00000141421549923400375660000005007313946026560426_" class="st15" d="M299.4,220.2       c-4.9-1.4-10,1.4-11.4,6.3c-1.4,4.9,1.4,10,6.3,11.4s10-1.4,11.4-6.3C307.1,226.7,304.3,221.6,299.4,220.2"></path>
				</g>
			</g>
		</g>
	</g>
</g>
<g class="st1">
	<path class="st16" d="M428.2,249.9c0,10.9,0,21.8,0,32.7c0,2.7-1,4.8-3.6,5.9c-3.2,1.4-7-0.4-8-3.8c-0.1-0.3-0.1-0.5-0.2-0.8   c-0.3-1.1-0.6-1.1-1.5-0.5c-2,1.2-4,2.7-6.2,3.6c-9.8,3.9-19,2.8-27.4-3.5c-4.8-3.6-8-8.5-9.6-14.3c-2.2-7.8-1.7-15.5,2.1-22.7   c5.4-10.4,15.4-15.8,26.9-14.8c5.1,0.4,9.8,2.1,13.8,5.4l0,0c0.7,0.6,1.8,0.1,1.9-0.8c0-0.1,0-0.1,0-0.2c0-6.2,0-12.4-0.1-18.5   c0-2,0.2-3.9,1.9-5.3c2-1.6,4.3-1.9,6.6-0.8c2.3,1,3.2,3.1,3.3,5.4C428.2,227.9,428.2,238.9,428.2,249.9L428.2,249.9z M416.4,260.4   c0.1-2.8-1.1-7-2.6-9.7c-4.3-7.6-14.2-10.6-22-6.6c-6.3,3.3-10.1,10.5-9.4,18c0.4,3.8,1.6,7.2,4.1,10.2c2.4,2.9,5.5,4.8,9.2,5.6   c4.9,1.1,9.4,0.2,13.3-2.6C414,271.7,416.2,266.5,416.4,260.4"></path>
	<path class="st16" d="M129.4,260.4c0,7.1,0,14.3,0,21.4c0,2.1-0.2,4.1-1.8,5.6c-2.8,2.7-7.7,1.8-9.4-1.6c-0.2-0.3-0.2-0.8-0.3-1.2   c-0.2-1.7-0.7-1.9-2.2-1c-1.9,1.2-3.9,2.4-5.9,3.3c-4.9,2.3-10.1,2.6-15.4,1.7C85.5,287,79,282,74.9,274.1   c-2.9-5.6-3.8-11.7-2.9-18.1c0.6-4.1,1.8-8,4-11.5c4.5-7.2,10.9-11.6,19.4-12.7c7.5-1,14.4,0.7,20.4,5.4c1,0.8,1.8,0.5,1.9-0.7   c0.5-3.7,4.1-5.8,7.7-4.5c2.4,0.9,3.8,3,3.8,5.9C129.4,245.5,129.4,252.9,129.4,260.4L129.4,260.4z M117.8,261.3   c-0.1-6.6-2.2-11.6-6.9-15.3c-4.5-3.5-9.6-4.5-15-2.8c-6.2,1.9-9.8,6.2-11.6,12.4C82,263.5,86,273.7,94,277c4.3,1.8,8.7,2,12.9,0.2   C114.1,274.1,117.3,268.2,117.8,261.3"></path>
	<path class="st16" d="M363.6,260.4c0,7.1,0,14.3,0,21.4c0,2.1-0.2,4.1-1.8,5.6c-2.8,2.7-7.7,1.8-9.4-1.6c-0.2-0.3-0.2-0.8-0.3-1.2   c-0.2-1.7-0.7-1.9-2.2-1c-1.9,1.2-3.9,2.4-5.9,3.3c-4.9,2.3-10.1,2.6-15.4,1.7c-8.9-1.6-15.4-6.6-19.5-14.5   c-2.9-5.6-3.8-11.7-2.9-18.1c0.6-4.1,1.8-8,4-11.5c4.5-7.2,10.9-11.6,19.4-12.7c7.5-1,14.4,0.7,20.4,5.4c1,0.8,1.8,0.5,1.9-0.7   c0.5-3.7,4.1-5.8,7.7-4.5c2.4,0.9,3.8,3,3.8,5.9C363.6,245.5,363.6,252.9,363.6,260.4L363.6,260.4z M352,261.3   c-0.1-6.6-2.2-11.6-6.9-15.3c-4.5-3.5-9.6-4.5-15-2.8c-6.2,1.9-9.8,6.2-11.6,12.4c-2.3,7.9,1.7,18.1,9.7,21.4   c4.3,1.8,8.7,2,12.9,0.2C348.3,274.1,351.5,268.2,352,261.3"></path>
	<path class="st16" d="M194.6,250.2c0-10.5,0-21,0-31.5c0-1.8-0.2-3.7,1-5.3c1.5-2.1,4.2-2.9,6.7-2.1c2.4,0.7,3.9,2.7,3.9,5.3   c0.1,4.8,0,9.7,0,14.5c0,1.1-0.1,2.2,0,3.3c0,1.2,0.9,1.7,1.9,1c5.8-3.9,12-4.6,18.6-2.9c6.2,1.6,10.8,5.5,13.8,11.2   c2.1,4,2.9,8.2,3,12.7c0.1,8.9,0.1,17.8,0,26.7c0,2.7-1.8,5-4.3,5.7c-3.8,1-7.3-1.7-7.3-5.6c0-7.6,0-15,0-22.6c0-2.3,0.1-4.7-0.3-7   c-0.8-4.7-3-8.6-7.8-10.1c-5.2-1.7-10.1-1.1-14,3.1c-2.3,2.4-3.3,5.5-3.4,8.9c-0.1,7.7-0.1,15.3-0.1,23c0,1.7,0,3.3,0,5   c-0.1,3.5-2.7,5.7-5.8,5.7c-3.4,0-5.8-2.7-5.8-6C194.6,272,194.6,261.2,194.6,250.2L194.6,250.2z"></path>
	<path class="st16" d="M250.3,258.9c0.2-8.1,3.8-16.1,11.6-21.8c6.6-4.8,14.1-6.4,22.2-5c3.1,0.5,6.2,1.3,8.9,2.9   c2,1.2,4,2.6,5.7,4.3c1.9,1.9,1.9,4.8,0.3,6.9c-1.6,2.2-3.4,4.2-5.1,6.3c-3.4,4-6.8,8-10.2,12c-0.7,0.8-1.5,1.7-2.2,2.5   c-1.6,1.8-3.9,2.4-6.2,1.4c-2.3-1-3.4-2.9-3.2-5.4c0.1-1.8,1.2-2.9,2.2-4.1c2.8-3.4,5.6-6.7,8.5-10c0.8-1,1.7-1.9,2.5-2.8   c1.1-1.1,1-2-0.5-2.6c-2.1-0.8-4.4-1.2-6.7-1c-10.2,0.8-16.6,9.9-15.9,19.1c0.5,7.1,3.9,12.4,10.4,15.5c2.8,1.3,5.9,1.6,9,1.2   c3.6-0.5,6.6-2.2,9.2-4.7c1.6-1.5,3.3-2.9,5.6-2.7c2.1,0.1,3.7,1,4.6,2.9c1.2,2.3,0.7,4.5-0.9,6.3c-4.3,5-9.9,7.8-16.4,8.8   c-5.9,0.9-11.6,0.1-17.1-2.3c-3.8-1.7-7.1-4.2-9.7-7.4C252.5,273.5,250.4,267.7,250.3,258.9"></path>
	<path class="st16" d="M158.9,269.1c0-4.4-0.1-8.9,0-13.3c0.2-7.2,2.6-13.5,8-18.4c3.9-3.5,8.7-5.2,13.9-5.7   c0.9-0.1,1.8-0.1,2.6-0.1c2.8,0.2,5.2,2.3,5.2,5c0,3-1.3,5.1-4.8,5.7c-0.9,0.2-1.8,0.1-2.7,0.3c-4.4,0.6-7.5,3-9.2,7.2   c-1,2.5-1.3,5.1-1.3,7.8c0,8.5,0,16.9,0,25.4c0,3.4-2.5,5.9-5.9,6c-3.2,0-5.8-2.5-5.8-5.9C158.8,278.4,158.8,273.8,158.9,269.1   L158.9,269.1z"></path>
	<path class="st16" d="M138.2,260.4c0-7.5,0-15,0-22.5c0-3.4,1.8-5.5,5-6.1c3.5-0.6,6.6,2,6.7,5.7c0.1,2.5,0,5,0,7.5   c0,12.6,0,25.3,0,37.9c0,4.3-3.5,6.9-7.6,5.8c-2.4-0.7-4.1-3-4.1-5.7C138.2,275.5,138.2,268,138.2,260.4L138.2,260.4z"></path>
	<path class="st16" d="M137.2,218c0-3.9,2.9-6.8,6.8-6.8c4,0,7.1,3,7.1,6.9c0,3.6-3.3,6.9-6.8,7C140.6,225.1,137,222.4,137.2,218"></path>
</g>
</svg>
