<?xml version="1.0" encoding="UTF-8"?>
<!-- Generator: Adobe Illustrator 27.0.0, SVG Export Plug-In . SVG Version: 6.00 Build 0)  -->
<svg xmlns="http://www.w3.org/2000/svg" xmlns:xlink="http://www.w3.org/1999/xlink" version="1.1" id="Layer_1" x="0px" y="0px" viewBox="0 0 300 300" style="enable-background:new 0 0 300 300;" xml:space="preserve">
<style type="text/css">
	.st0{fill:#FFFFFF;}
</style>
<g>
	<path class="st0" d="M134.6,108.7c-1.3,0-2.6-0.1-3.9-0.2c-6.8-0.8-11.5-3.7-13.1-8.2c-1.6-4.4,0.1-9.7,4.8-14.7   c4.2-4.4,10.5-8.4,17.7-11c7.2-2.7,14.5-3.7,20.6-2.9c6.8,0.8,11.5,3.7,13.1,8.2l0,0c1.6,4.4-0.1,9.7-4.8,14.7   c-4.2,4.4-10.5,8.4-17.7,11C145.6,107.5,139.8,108.7,134.6,108.7z M157,77.1c-4.3,0-9.4,0.9-14.9,2.9c-6.4,2.4-11.9,5.7-15.5,9.5   c-3.1,3.2-4.4,6.5-3.6,8.7c0.9,2.3,3.9,3.9,8.3,4.4c5.2,0.6,11.6-0.4,18-2.7c13.4-4.9,20.8-13.5,19.1-18.3   C167.4,79,163,77.1,157,77.1z"></path>
</g>
<g>
	<g>
		<g>
			<path class="st0" d="M105.9,105.9l6.8,0.1v16.8c0.8-1.7,4.4-4.1,8.5-4.1c9.2,0,10.8,7.4,10.8,12v17.1h-6.8v-16.1     c0-5.4-2.5-7.4-5.7-7.4s-6.7,2.4-6.7,7.4v16.1H106L105.9,105.9z"></path>
			<path class="st0" d="M135.5,133.5c0-10,6.9-14.9,14.5-14.9c7.6,0,14.7,5,13.8,16.4l-21.8,0.2c0,2.2,1.8,7.4,7.5,7.7     c4.3,0.2,6.7-1.9,8-4.4l5.9,1.8c-1.4,3.5-5.9,8-13.4,8C140.8,148.4,135.5,141.7,135.5,133.5z M142.3,130.2l14.7-0.1     c0-2.7-2.9-6.5-8.2-5.9C145.4,124.3,142.6,126.9,142.3,130.2z"></path>
			<path class="st0" d="M174.4,147.9h-6.7v-41.9h6.7V147.9z"></path>
			<path class="st0" d="M178.7,119.3l5.9,0.1l0.3,2.9c1.7-2.4,4.6-3.9,8.8-3.9c6.2,0,13.9,5.7,13.1,16.5c-0.6,9.2-7,12.8-12,13.5     c-2.9,0.4-6.9-0.2-9.7-3.2l0.1,13.5l-6.3,0.1L178.7,119.3z M192.7,142.6c4.4,0.1,8-3.9,8-9.1c0-4.9-3.4-9.2-8.2-8.9     c-6.1,0.2-7.7,5.4-7.7,9C184.8,138.6,187.6,142.5,192.7,142.6z"></path>
		</g>
	</g>
	<path class="st0" d="M111.7,153.7v4c0.5-0.7,3.2-4.4,7.4-4.9c5.8-0.7,8.5,2.7,9.5,5.1c1.2-2.4,3.9-4.5,8.1-5.1   c7.9-1,10.8,5.6,10.8,10.4v18.6h-6.2v-16.3c0-3.6-0.9-7-4.4-7c-4.6,0-6.9,3.4-6.9,8.5V182h-6.2v-14.8c0-4.6-0.6-8.5-4.9-8.5   c-4.6,0-6.7,3.3-6.7,9.7V182h-6.3v-28.2H111.7z"></path>
	<path class="st0" d="M88.2,175.5l15.3,41h-7.2l-3.6-10.3H76l-3.7,10.3h-7.2l15.6-41H88.2z M84.2,182.6l-6.5,17.6h12.8L84.2,182.6z"></path>
	<path class="st0" d="M112.1,188.1v4c0.6-0.7,2.9-4.3,7.3-4.8c6.1-0.7,9.6,2.2,11,5.1c0.8,1.7,1.3,4.1,1.3,9.1v14.9h-6.6v-15.3   c0-4.9-0.7-8.2-7-8c-2.5,0.1-5.8,2.9-5.8,9v14.2h-6.5v-28.3H112.1z"></path>
	<path class="st0" d="M167.7,202.1c0-10,6.9-14.9,14.5-14.9c7.6,0,14.7,5,13.8,16.4l-21.8,0.2c0,2.2,1.8,7.4,7.5,7.7   c4.3,0.2,6.7-1.9,8-4.4l5.9,1.8c-1.4,3.5-5.9,8-13.4,8C173.2,217,167.7,210.4,167.7,202.1z M174.7,198.7l14.7-0.1   c0-2.7-2.9-6.5-8.2-5.9C177.7,193,174.9,195.6,174.7,198.7z"></path>
	<path class="st0" d="M206,216.5h-6.7v-41.9h6.7V216.5z"></path>
	<path class="st0" d="M209.3,209.2c-0.4-5.5,2.9-8.8,9-9.8c2.9-0.5,6.1-0.8,9.2-0.3c0.6-1.8,0.4-5.1-3.6-6.2c-3.6-0.9-7,0.1-8.4,3.7   l-5.6-2.1c0.6-1.8,1.9-4.1,5.3-5.9c2.9-1.7,8.1-2.2,12-0.7c4.8,1.8,7.2,5.9,7.2,9.6l0.2,18.8h-6.3l-0.2-3.6c-1.3,1.8-4,4-7.7,4.4   C214.6,217.7,209.8,214.4,209.3,209.2z M228.3,204.4c-5.7-0.4-12.6-1.2-12.6,3.7c0,2.8,3,4.6,6.8,3.7   C226.8,210.9,228.8,207.3,228.3,204.4z"></path>
	<path class="st0" d="M186.1,171.4c-4.5-1.9-8.1-1.1-11.4,1.1c-0.2,0.1-1.3,1-2.4,2.1c-2,2-3.8,2.7-7,2.6c-4.7-0.2-6.8-3.9-7.4-6.4   c-0.1-0.5-0.2-0.9-0.2-1.3l21.8-0.2c0.9-11.4-6.2-16.4-13.8-16.4c-7.7,0-14.5,4.9-14.5,14.9c0,0.9,0.1,1.7,0.2,2.5   c0,0.1,0,0.2,0.1,0.2c0,0.1,0.1,0.2,0.1,0.3c1.3,7.7,7.4,12,14.2,12c2.2,0,3.9-0.5,5.6-1.2c1.7-0.8,3.2-1.9,4.7-3.2   c0.6-0.6,1.3-0.9,1.7-1.3c1.5-1.1,2.2-1.4,3.9-1.6c1.4-0.1,3.2,0.9,2.9,2.5c-0.2,1.2-1.1,2.1-2.7,2.4c-1.4,0.4-6.2,1.2-10.8,2.7   l0,0c-1.4,0.5-2.7,0.9-3.8,1.6c-0.1,0-0.1,0.1-0.1,0.1c-0.1,0.1-0.3,0.2-0.4,0.2c-5.4,3-6.7,6.9-7.2,8c0,0,0,0.1-0.1,0.1   c0,0-2.9-5.9-11-5.9c-0.9,0-1.7,0.1-2.5,0.2h-0.1l0,0c-5.4,1.2-10.1,5.9-10.7,12.6c-0.6,7.2,2.7,12.8,7.5,15.1   c4.2,2.1,10.6,2.4,14.9-2.5c0,8-3.2,11-8.2,11c-3.2,0-5.4-1.8-7-4.7l-6.3,1.7c3.2,7.7,9.8,9.2,14.5,8.9c9.2-0.6,13.5-7.2,13.5-15.4   c0-3.2-0.1-8-0.1-13.1c0-1.6,0.2-3.1,0.6-4.6c0.2-0.6,0.4-1.1,0.6-1.5c2.9-5.8,9.2-8.8,16.6-9.6c6.2-0.6,8.4-4.2,8.5-6.9   C190.5,174.9,188.3,172.4,186.1,171.4z M164.5,158.3c5.4-0.5,8.2,3.2,8.2,5.9l-14.7,0.1C158.5,161.2,161.2,158.6,164.5,158.3z    M149.1,210.7c-4.1,0-7.5-3.9-7.5-8.8c0-4.7,2.6-7.7,6.2-8.7c0,0,0,0,0,0.1c0.6-0.1,1.2-0.2,1.9-0.2c0.7,0,1.4,0.1,2.1,0.3   c0.9,0.3,1.9,0.8,2.7,1.4c1.7,1.4,2.9,3.6,3.1,6.5c0,0.2,0,0.4,0,0.6C157.5,208.4,153.1,210.7,149.1,210.7z"></path>
</g>
</svg>
