<svg xmlns="http://www.w3.org/2000/svg" width="238.428" height="124.584" viewBox="0 0 238.428 124.584">
  <path id="Path_918" data-name="Path 918" d="M238.379,49.893c.8-8.831-8.387-12.622-15.523-14.405C188.685,24.077,153.787,14.549,120.6.415c-4.59-1.953-9.486,3.384-7.318,7.816,3.812,3.868,9.643,11.572,15.681,9.025,25.789,11.27,52.338,20.717,78.082,32.089-5.586,3.347-20.234,9.641-36.7,17.42,4.456-7.531-2.426-20.7-13.454-15.815-12.886,3.308-26.33,4.3-39.526,5.871-29.857,2.741-59.782,5.052-89.748,6.2C19.715,65.487-4.077,56.534.6,71.5c10.645,8.468,41.772,1.887,56.511,3.438C91.489,73.69,126.022,74.462,160.3,71.6c-30.878,15.191-62.98,34.36-52.12,48.6,3.9,4.847,11.755,6.014,16.6,1.775A239.563,239.563,0,0,1,161.2,96.466c15.943-12.183,74.745-29.963,77.175-46.572" fill="#fff"/>
</svg>
