<?xml version="1.0" encoding="UTF-8"?>
<!-- Generator: Adobe Illustrator 27.0.0, SVG Export Plug-In . SVG Version: 6.00 Build 0)  -->
<svg xmlns="http://www.w3.org/2000/svg" xmlns:xlink="http://www.w3.org/1999/xlink" version="1.1" id="Layer_1" x="0px" y="0px" viewBox="0 0 300 300" style="enable-background:new 0 0 300 300;" xml:space="preserve">
<style type="text/css">
	.st0{fill:#FFFFFF;}
</style>
<g>
	<g>
		<g id="koru-kids">
			<g id="Group_45" transform="translate(-33.025 -89.221)">
				<path id="Path_54" class="st0" d="M90,256.5l-9.5-9.5l6-6l9.5,9.5L90,256.5z M86.4,224.2c3.1,0,5.5,2.5,5.5,5.6      s-2.5,5.6-5.6,5.6s-5.5-2.5-5.5-5.6C80.9,226.7,83.4,224.2,86.4,224.2L86.4,224.2 M74,253.3l-8.5,3.1V226l8.5-3.1V253.3z       M78.6,205.9c-18.6,0-33.7,15.1-33.7,33.7s15.1,33.7,33.7,33.7s33.7-15.1,33.7-33.7C112.4,221.1,97.3,205.9,78.6,205.9      L78.6,205.9"></path>
				<path id="Path_55" class="st0" d="M132.8,242.5l-4.2,4.6v9.3h-6.5v-33.5h6.5V238l13.4-15.2h8.6l-13.3,14.6l13.4,18.9h-8.2      L132.8,242.5z"></path>
				<g id="Group_43" transform="translate(150.459 232.414)">
					<path id="Path_56" class="st0" d="M18.1,12.3c0-4.4-2.8-6.6-5.9-6.6s-5.9,2.2-5.9,6.6c0,4.3,2.8,6.6,5.9,6.6       S18.1,16.7,18.1,12.3 M24.4,12.3c-0.1,6.7-5.6,12.1-12.3,12.1S-0.1,18.8,0,12.1S5.5,0,12.2,0c6.6-0.1,12.1,5.1,12.2,11.7       C24.4,11.9,24.4,12.1,24.4,12.3"></path>
					<path id="Path_57" class="st0" d="M41.9,6.9c-0.6-0.1-1.3-0.2-1.9-0.2c-3.2,0-6,1.6-6,6.6V24h-6.3V0.7h6.1v3.5       c1.4-3.1,4.6-3.6,6.6-3.6c0.5,0,1,0,1.5,0.1L41.9,6.9z"></path>
					<path id="Path_58" class="st0" d="M60.8,21.5c-1.3,2.2-4,3.1-6.4,3.1c-5.6,0-8.8-4.1-8.8-9.2V0.7h6.3v13.4       c0,2.6,1.3,4.7,4.3,4.7c2.8,0,4.4-1.9,4.4-4.6V0.7h6.3v19c0,1.4,0.1,2.8,0.2,4.2h-6C60.9,23.1,60.8,22.3,60.8,21.5"></path>
				</g>
				<path id="Path_59" class="st0" d="M232.4,242.5l-4.2,4.6v9.3h-6.5v-33.5h6.5V238l13.4-15.2h8.6l-13.3,14.6l13.4,18.9h-8.2      L232.4,242.5z"></path>
				<g id="Group_44" transform="translate(254.31 221.591)">
					<path id="Path_60" class="st0" d="M0.8,11.5H7v23.3H0.8V11.5z M3.9,0C6,0,7.8,1.7,7.7,3.9C7.7,6,6,7.8,3.9,7.8       C1.8,7.7,0,6,0,3.9S1.7,0,3.9,0C3.8,0,3.9,0,3.9,0"></path>
					<path id="Path_61" class="st0" d="M22.7,29.7c3.2,0,5.7-2.5,5.7-6.7s-2.5-6.5-5.7-6.5S17,19,17,23.1S19.4,29.7,22.7,29.7        M34.5,30.6c0,1.6,0.1,3.3,0.2,4.2h-6c-0.2-0.9-0.2-1.8-0.2-2.7c-1,1.8-3.4,3.3-6.5,3.3c-6.6,0-11.3-5.2-11.3-12.2       c0-6.8,4.6-12.1,11.2-12.1c4,0,5.9,1.7,6.6,2.9V0.6h6.2L34.5,30.6z"></path>
					<path id="Path_62" class="st0" d="M43.6,27.1c0.1,1.8,1.5,3.5,4.3,3.5c2.1,0,3.1-1.1,3.1-2.3c0-1-0.7-1.9-2.5-2.3l-3.1-0.7       c-4.5-1-6.5-3.7-6.5-6.9c0-4.2,3.7-7.6,8.7-7.6c6.6,0,8.8,4.2,9.1,6.7l-5.2,1.2c-0.2-1.9-1.9-3.3-3.8-3.1c-1.7,0-3,1-3,2.3       c0,1.1,0.9,1.8,2.1,2.1l3.3,0.7c4.6,0.9,6.9,3.7,6.9,7.1c0,3.8-2.9,7.7-9,7.7c-7,0-9.4-4.5-9.7-7.2L43.6,27.1z"></path>
					<path id="Path_63" class="st0" d="M63.5,27.1c2.1,0,3.9,1.7,3.9,3.9c0,2.1-1.7,3.9-3.9,3.9c-2.1,0-3.8-1.7-3.9-3.8       C59.6,28.9,61.3,27.1,63.5,27.1L63.5,27.1"></path>
				</g>
			</g>
		</g>
	</g>
</g>
</svg>
