<svg id="Group_1323" data-name="Group 1323" xmlns="http://www.w3.org/2000/svg" xmlns:xlink="http://www.w3.org/1999/xlink" width="2361.15" height="1375.41" viewBox="0 0 2361.15 1375.41">
  <defs>
    <clipPath id="clip-path">
      <rect id="Rectangle_381" data-name="Rectangle 381" width="2361.15" height="1375.41" fill="#e4e4e4"/>
    </clipPath>
  </defs>
  <g id="Group_1323-2" data-name="Group 1323" clip-path="url(#clip-path)">
    <path id="Path_1445" data-name="Path 1445" d="M386.5,224.59c-.16-.09-.35-.18-.52-.27a125.529,125.529,0,0,0-33.76-57.76,125.362,125.362,0,0,1,34.28,58.03" fill="#e4e4e4"/>
    <path id="Path_1446" data-name="Path 1446" d="M1.02,1251.41q-.51-.21-1.02-.45v-1.1c.34.52.68,1.04,1.02,1.55" fill="#e4e4e4"/>
    <path id="Path_1447" data-name="Path 1447" d="M231.88,1375.41H0V1292q16.515,0,32.74-1.13a275.96,275.96,0,0,0,199.14,84.54" fill="#e4e4e4"/>
    <path id="Path_1448" data-name="Path 1448" d="M1129.64,0a125.5,125.5,0,1,1-125.5,125.5A125.5,125.5,0,0,1,1129.64,0H0V172.28A275.6,275.6,0,0,1,147.03,214.5a125.606,125.606,0,0,1,200.02-52.66c.65.57,1.29,1.13,1.93,1.7.56.5,1.11,1.01,1.66,1.52.52.49,1.04.98,1.55,1.48.01.01.02.02.03.02.5.48.99.97,1.48,1.46q2.925,2.955,5.66,6.1c.46.53.91,1.06,1.36,1.59q2.535,3,4.87,6.17c.37.5.74,1.01,1.1,1.52.43.59.85,1.18,1.26,1.79.3.43.6.87.89,1.31.25.36.49.72.72,1.09.36.53.7,1.06,1.04,1.6.51.8,1.01,1.61,1.5,2.42q.21.33.39.66c.47.78.93,1.56,1.37,2.34a1.091,1.091,0,0,0,.06.11c.44.77.87,1.55,1.28,2.33.16.28.3.55.45.83.44.84.88,1.69,1.3,2.54.28.56.56,1.13.83,1.7s.55,1.14.81,1.71c.07.14.13.27.19.41.27.58.53,1.17.78,1.75s.51,1.16.76,1.75c.07.18.15.35.22.53.23.55.46,1.11.68,1.67.27.66.53,1.33.78,2s.5,1.34.74,2.02.49,1.36.72,2.04c.15.43.29.87.43,1.3.19.58.38,1.16.56,1.74s.36,1.16.53,1.75.35,1.17.51,1.76.33,1.18.49,1.77c.17.09.36.18.52.27a125.961,125.961,0,0,1,44.46,37.83,276.624,276.624,0,0,1,345.7-48.61A99.519,99.519,0,0,1,944.35,255.2a277.02,277.02,0,0,1,281.08,123.02,270,270,0,0,1,368.49-107.21,469.1,469.1,0,0,1,572.39-18.56,275.964,275.964,0,0,1,194.84-80.17V0Zm-674,200a68.5,68.5,0,1,1,68.5-68.5,68.515,68.515,0,0,1-68.5,68.5m857,54a50.5,50.5,0,1,1,50.5-50.5,50.5,50.5,0,0,1-50.5,50.5" fill="#e4e4e4"/>
    <path id="Path_1449" data-name="Path 1449" d="M2236.82,1275.39A275.2,275.2,0,0,1,2084.64,1321c-135.35,0-247.98-97.24-271.84-225.69a465.923,465.923,0,0,1-93.05-26.01c-28.8,121.94-138.36,212.7-269.1,212.7a276.12,276.12,0,0,1-222.85-112.79,277.173,277.173,0,0,1-236.65,16.96,125.549,125.549,0,0,1-228.24-7.05,270.226,270.226,0,0,1-268.64,7.99c-36.93,109.48-140.45,188.3-262.39,188.3H2361.15V1292a470.715,470.715,0,0,1-124.33-16.61M1215.14,1261a28,28,0,1,1,28-28,28.005,28.005,0,0,1-28,28m530.5,31a62.5,62.5,0,1,1,62.5-62.5,62.315,62.315,0,0,1-62.5,62.5" fill="#e4e4e4"/>
  </g>
</svg>
