<svg xmlns="http://www.w3.org/2000/svg" xmlns:xlink="http://www.w3.org/1999/xlink" width="1352.563" height="1369.855" viewBox="0 0 1352.563 1369.855">
  <defs>
    <clipPath id="clip-path">
      <rect id="Rectangle_275" data-name="Rectangle 275" width="1068.641" height="1038.578" transform="translate(0)" fill="none"/>
    </clipPath>
  </defs>
  <g id="Group_1327" data-name="Group 1327" transform="translate(0 997.662) rotate(-69)">
    <g id="Group_1061" data-name="Group 1061" transform="translate(0 0)" clip-path="url(#clip-path)">
      <path id="Path_14" data-name="Path 14" d="M284.676,310.177c57.873-115.826,155.407-207.62,275.536-255.931C649.845,18.2,740.84.382,803.343.3L1042.1,0a27.978,27.978,0,0,1,19.045,8.554,26.977,26.977,0,0,1,7.4,16.877c1.213,16.254-9.5,22.042-25.717,21.665L846.384,50.617A15.261,15.261,0,0,0,835.95,54.67a15.813,15.813,0,0,0-4.7,10.388c-.1,10.976,11.159,12.036,22.137,11.815,26.1-.663,96.457,2.256,96.457,2.256,49.454.678,56.23.447,66.886,2.032,31.613.739,45.789,9.174,44.676,20.426-.96,9.684-3.758,24.923-50.776,23.823-14.945-.349-29.111-.827-53.594-1.4-52.308-1.065-92.59-1.258-105.2,2.266s-12.6,11.31-12.4,17.522,12.028,8.813,21.866,10l88.6-3.5,79.14,3.125a33.243,33.243,0,0,1,31.578,30.48s.231,26.142-39.308,22.388c-30.344-1.5-33.9-2.917-147.8.121-260.161,15.822-307.669,86.9-368.945,186.829L245.307,963.3A128.4,128.4,0,1,1,13.573,852.762Z" transform="translate(0 0)" fill="#ffffff"/>
    </g>
  </g>
</svg>
